<?xml version="1.0" encoding="UTF-8"?>
<svg xmlns="http://www.w3.org/2000/svg" width="32" height="32" viewBox="0 0 24 24" fill="#666666"><path d="M.85 18.07.1 19.32a.76.76 0 0 0-.1.28.76.76 0 0 0 .02.28.75.75 0 0 0 .33.46l4.97 3.07a.76.76 0 0 0 .86-.03.75.75 0 0 0 .2-.23l.73-1.23c1.97-3.23 3.97-2.83 7.54-1.14l4.93 2.34a.76.76 0 0 0 .6.03.76.76 0 0 0 .43-.4l2.36-5.35a.75.75 0 0 0 .02-.57.77.77 0 0 0-.38-.43c-1.04-.49-3.1-1.45-4.96-2.36C10.9 10.8 5.2 11 .85 18.07Z"/><path d="m23.15 5.94.75-1.25a.77.77 0 0 0 .08-.57.76.76 0 0 0-.13-.27.76.76 0 0 0-.22-.2L18.67.6a.76.76 0 0 0-.29-.1.77.77 0 0 0-.57.13.77.77 0 0 0-.2.23l-.73 1.22c-1.98 3.25-3.96 2.86-7.53 1.16L4.42.89a.78.78 0 0 0-.59-.03.76.76 0 0 0-.26.15.76.76 0 0 0-.18.24L1.02 6.61a.77.77 0 0 0-.02.57c.04.1.09.18.15.25a.76.76 0 0 0 .24.18c1.04.5 3.11 1.45 4.96 2.36 6.73 3.26 12.44 3.04 16.8-4.03z"/></svg>