<?xml version="1.0" encoding="UTF-8"?>
<svg xmlns="http://www.w3.org/2000/svg" width="32" height="32" viewBox="0 0 24 24" fill="#666666"><path d="M6.187 3.733h11.627v16.533h-1.707v-7.573h-.017a4.107 4.107 0 0 0-8.18 0h-.017v7.573H6.186z"/><path d="m3.093 6.08.693 2.347h.587v9.493a.533.533 0 0 0-.533.533v.64h-.107a.533.533 0 0 0-.533.533v.64h5.973v-.64a.533.533 0 0 0-.533-.533h-.107v-.64A.533.533 0 0 0 8 17.92h-.64V6.08zM16.213 17.92a.533.533 0 0 0-.533.533v.64h-.107a.533.533 0 0 0-.533.533v.64h5.973v-.64a.533.533 0 0 0-.533-.533h-.107v-.64a.533.533 0 0 0-.533-.533V8.427h.587l.693-2.347h-4.267v11.84z"/></svg>