<?xml version="1.0" encoding="UTF-8"?>
<svg xmlns="http://www.w3.org/2000/svg" width="32" height="32" viewBox="0 0 24 24" fill="#666666"><path d="M5.77 8.28A4.44 4.44 0 0 1 8.19.1h7.6a4.44 4.44 0 0 1 2.43 8.17 4.44 4.44 0 0 1-2.42 8.16h-.08a4.42 4.42 0 0 1-3-1.17v4.14a4.5 4.5 0 0 1-4.51 4.48 4.46 4.46 0 0 1-2.44-8.17 4.44 4.44 0 0 1 0-7.44ZM12.7 12a3 3 0 0 0 3 3h.09a3 3 0 1 0 0-6h-.08a3 3 0 0 0-3 3Zm-1.43-3H8.19a3 3 0 0 0-.01 6h3.1V9Zm-3.09 7.44h-.01a3 3 0 1 0 .03 6.01 3.06 3.06 0 0 0 3.07-3.04v-2.97H8.19Zm3.09-8.88V1.55H8.19a3 3 0 1 0 0 6.01h3.09Zm4.52 0a3 3 0 1 0 0-6.01H12.7v6.01h3.09Z"/></svg>