<?xml version="1.0" encoding="UTF-8"?>
<svg xmlns="http://www.w3.org/2000/svg" width="32" height="32" viewBox="0 0 24 24" fill="#666666"><path fill-rule="evenodd" d="M2.05 24h9.33c1.17 0 2.28-.52 3.11-1.47l5.22-5.97A5.45 5.45 0 0 0 21 13.01V2.34C21 1.05 20.08 0 18.95 0H9.62C8.45 0 7.34.52 6.5 1.47L1.29 7.43A5.45 5.45 0 0 0 0 11v10.66C0 22.95.92 24 2.05 24ZM3.47 6.5l3.72-4.25A3.2 3.2 0 0 1 9.62 1.1h9.33c.6 0 1.08.56 1.08 1.23V13a4.3 4.3 0 0 1-1 2.77l-3.73 4.25V6.51H3.47Zm-.17.2v13.52h11.83l-1.32 1.51a3.22 3.22 0 0 1-2.43 1.15H2.05c-.6 0-1.08-.56-1.08-1.24V11a4.3 4.3 0 0 1 1-2.77L3.3 6.71Zm6.6 10.43H4.8v1.37h5.1v-1.37Z"/></svg>