<?xml version="1.0" encoding="UTF-8"?>
<svg xmlns="http://www.w3.org/2000/svg" width="32" height="32" viewBox="0 0 24 24" fill="#666666"><path d="M3.120 5.821L7.301 4.600L4.526 8.004L3.120 5.821ZM0.197 4.600L7.301 4.600L5.303 6.302L4.526 8.004L3.601 8.004L3.601 15.848L4.970 15.848L3.305 16.625L2.047 19.252L0.197 19.252L0.197 4.600ZM0.826 17.550L4.970 15.848L2.047 19.252L0.826 17.550ZM5.895 8.004L8.855 4.600L9.780 6.746L5.895 8.004ZM8.855 6.154L8.855 4.600L17.328 4.600L17.328 8.004L5.895 8.004L8.855 6.154ZM14.072 17.254L18.105 15.848L15.145 19.252L14.072 17.254ZM6.672 15.848L18.105 15.848L15.626 17.254L15.145 19.252L6.672 19.252L6.672 15.848ZM15.774 4.600L23.322 1.196L8.226 19.252L0.678 22.804L15.774 4.600ZM19.030 8.152L21.953 4.600L21.805 7.375L19.030 8.152ZM21.953 4.600L23.803 4.600L23.803 19.252L16.551 19.252L18.697 17.402L19.474 15.848L20.399 15.848L20.399 8.152L19.030 8.152L20.547 6.746L21.953 4.600ZM16.551 19.252L19.474 15.848L20.251 18.179L16.551 19.252Z"/></svg>