<?xml version="1.0" encoding="UTF-8"?>
<svg xmlns="http://www.w3.org/2000/svg" width="32" height="32" viewBox="0 0 24 24" fill="#666666"><path d="M12.475 21.282L12.323 21.282Q12.171 21.282 11.867 21.054L11.867 21.054L11.639 20.902Q8.067 17.824 6.167 16.266L6.167 16.266L6.053 16.190L5.939 16.152L0.923 16.152Q0.315 16.152 0.125 15.582L0.125 15.582L0.125 8.818Q0.125 8.362 0.372 8.115Q0.619 7.868 1.075 7.868L1.075 7.868L6.053 7.868Q6.281 7.868 6.281 7.716L6.281 7.716L11.753 2.966Q12.095 2.700 12.437 2.719Q12.779 2.738 13.045 3.118L13.045 3.118Q13.159 3.232 13.159 3.574L13.159 3.574L13.159 20.332Q13.159 20.978 12.703 21.168L12.703 21.168L12.589 21.168L12.475 21.282ZM23.837 12.124L23.875 12.124Q23.875 12.846 23.723 13.188L23.723 13.188Q23.571 15.354 22.659 17.482L22.659 17.482Q21.899 19.382 20.759 20.674L20.759 20.674Q20.607 20.978 20.075 21.168L20.075 21.168Q19.581 21.168 19.239 20.788L19.239 20.788Q19.049 20.636 19.049 20.389Q19.049 20.142 19.239 19.952L19.239 19.952Q19.277 19.838 19.467 19.610Q19.657 19.382 19.695 19.268L19.695 19.268Q21.481 16.760 21.823 13.910L21.823 13.910Q22.545 8.514 19.239 4.296L19.239 4.296Q18.783 3.650 19.239 3.232L19.239 3.232Q19.505 2.852 19.904 2.852Q20.303 2.852 20.645 3.232L20.645 3.232Q22.089 5.056 22.659 6.652L22.659 6.652Q23.571 8.780 23.723 11.174L23.723 11.174L23.723 12.010Q23.799 12.010 23.837 12.086L23.837 12.086L23.837 12.124ZM20.645 11.896L20.645 11.896Q20.645 15.468 18.631 18.432L18.631 18.432Q18.479 18.698 17.909 18.888L17.909 18.888Q17.453 18.888 17.073 18.546L17.073 18.546Q16.921 18.356 16.921 18.109Q16.921 17.862 17.073 17.596L17.073 17.596Q17.073 17.520 17.149 17.463Q17.225 17.406 17.187 17.368L17.187 17.368Q18.517 15.582 18.859 13.188L18.859 13.188Q19.391 9.502 17.073 6.310L17.073 6.310Q16.845 5.816 16.845 5.588L16.845 5.588Q16.959 5.284 17.073 5.132Q17.187 4.980 17.453 4.866L17.453 4.866Q18.023 4.676 18.384 5.189Q18.745 5.702 19.467 6.918L19.467 6.918Q20.531 9.236 20.531 11.060L20.531 11.060Q20.645 11.554 20.645 11.896ZM17.339 12.010L17.339 12.010Q17.339 14.366 16.123 16.038L16.123 16.038Q15.971 16.380 15.648 16.475Q15.325 16.570 14.983 16.380Q14.641 16.190 14.546 15.867Q14.451 15.544 14.717 15.202L14.717 15.202Q15.325 14.290 15.553 12.846L15.553 12.846Q15.705 11.820 15.477 10.775Q15.249 9.730 14.717 8.818L14.717 8.818Q14.527 8.438 14.603 8.115Q14.679 7.792 14.945 7.621Q15.211 7.450 15.591 7.526Q15.971 7.602 16.123 7.868L16.123 7.868Q16.655 8.666 17.073 10.110L17.073 10.110L17.149 10.414Q17.339 11.516 17.339 12.010Z"/></svg>