<?xml version="1.0" encoding="UTF-8"?>
<svg xmlns="http://www.w3.org/2000/svg" width="32" height="32" viewBox="0 0 24 24" fill="#666666"><path d="M16.267 5.578L16.267 5.578L16.267 5.578L16.267 5.578ZM13.717 12.276L13.717 12.276Q13.343 12.106 13.207 11.885Q13.071 11.664 12.782 11.562Q12.493 11.460 12.170 11.460Q11.847 11.460 11.558 11.562Q11.269 11.664 11.116 11.885Q10.963 12.106 10.623 12.276L10.623 12.276Q9.569 12.752 8.957 13.755Q8.345 14.758 8.413 15.914L8.413 15.914Q8.379 15.914 8.464 16.509Q8.549 17.104 8.651 17.546L8.651 17.546Q8.821 18.158 8.991 18.277Q9.161 18.396 10.147 18.566L10.147 18.566Q11.337 18.804 12.170 18.804Q13.003 18.804 14.227 18.566L14.227 18.566Q15.247 18.396 15.417 18.277Q15.587 18.158 15.723 17.546L15.723 17.546Q15.825 17.104 15.893 16.458L15.893 16.458Q15.961 15.914 15.927 15.914L15.927 15.914Q15.961 14.758 15.366 13.755Q14.771 12.752 13.717 12.276ZM22.455 8.094L22.455 8.094Q22.285 7.958 21.979 7.652L21.979 7.652Q21.027 6.700 20.449 6.326Q19.871 5.952 19.021 5.782L19.021 5.782Q18.443 5.646 17.457 5.578L17.457 5.578Q17.355 5.748 17.525 5.952L17.525 5.952L18.069 6.496Q19.633 8.094 19.973 9.964L19.973 9.964L20.007 10.406Q20.381 13.092 20.449 13.160L20.449 13.160Q20.585 13.534 20.721 13.568Q20.857 13.602 21.129 13.296L21.129 13.296Q21.163 13.262 21.401 12.786L21.401 12.786Q21.945 11.596 22.183 11.290Q22.421 10.984 23.237 10.304L23.237 10.304Q23.781 9.896 23.815 9.794Q23.849 9.692 23.356 9.097Q22.863 8.502 22.455 8.094ZM5.897 6.496L6.407 5.986Q6.407 5.952 6.441 5.952L6.441 5.952Q6.611 5.748 6.509 5.578L6.509 5.578Q5.523 5.646 4.945 5.782L4.945 5.782Q4.095 5.952 3.517 6.326Q2.939 6.700 1.987 7.652L1.987 7.652L1.511 8.094Q1.103 8.502 0.661 9.080L0.661 9.080Q0.151 9.692 0.185 9.794Q0.219 9.896 0.729 10.304L0.729 10.304Q1.545 10.984 1.800 11.290Q2.055 11.596 2.599 12.786L2.599 12.786Q2.803 13.262 2.837 13.296L2.837 13.296Q3.109 13.602 3.245 13.568Q3.381 13.534 3.517 13.160L3.517 13.160Q3.585 13.092 3.959 10.406L3.959 10.406L4.027 9.930Q4.333 8.094 5.897 6.496L5.897 6.496ZM19.259 13.160L19.259 13.160L19.259 13.160ZM16.879 6.496L16.879 6.496Q16.811 6.428 16.709 6.326L16.709 6.326L16.335 5.918Q16.165 5.748 16.267 5.578L16.267 5.578L15.111 5.442Q13.989 5.306 13.411 5.238L13.411 5.238Q10.827 5.068 8.243 5.578L8.243 5.578L8.175 5.612Q7.903 5.646 7.767 5.578L7.767 5.578L7.733 5.646Q7.767 5.782 7.631 5.918L7.631 5.918L7.087 6.496Q5.523 8.094 5.217 9.930L5.217 9.930L5.047 10.984L5.047 11.120L5.047 11.086Q4.979 11.596 4.928 12.276Q4.877 12.956 4.911 13.160L4.911 13.160L4.945 13.228Q5.047 13.976 5.285 14.282L5.285 14.282Q5.387 14.452 5.625 14.758L5.625 14.758Q6.033 15.268 6.067 15.608L6.067 15.608Q6.339 17.036 7.767 17.546L7.767 17.546Q7.563 17.138 7.393 16.152L7.393 16.152Q7.257 15.234 7.325 15.200L7.325 15.200Q7.257 13.942 8.022 12.854Q8.787 11.766 10.147 11.256L10.147 11.256Q10.589 11.086 10.776 10.848Q10.963 10.610 11.320 10.508Q11.677 10.406 12.102 10.406Q12.527 10.406 12.884 10.508Q13.241 10.610 13.428 10.848Q13.615 11.086 14.057 11.256L14.057 11.256Q15.417 11.766 16.182 12.854Q16.947 13.942 16.879 15.200L16.879 15.200Q16.947 15.234 16.811 16.118L16.811 16.118Q16.641 17.070 16.437 17.512L16.437 17.512Q17.729 16.968 17.967 15.744L17.967 15.744Q18.069 15.234 18.375 14.860L18.375 14.860L18.409 14.792Q18.613 14.554 18.647 14.384L18.647 14.384Q18.783 14.282 18.919 13.976L18.919 13.976L18.987 13.738Q19.123 13.330 19.259 13.160L19.259 13.160Q19.191 13.024 18.851 10.440L18.851 10.440L18.783 9.930Q18.443 8.094 16.879 6.496ZM6.747 8.060L6.747 8.060Q6.713 8.026 6.730 8.026Q6.747 8.026 6.747 8.060ZM7.699 11.630L7.699 11.630Q7.087 11.630 6.662 11.205Q6.237 10.780 6.237 10.168Q6.237 9.556 6.662 9.114Q7.087 8.672 7.699 8.672Q8.311 8.672 8.753 9.114Q9.195 9.556 9.195 10.168Q9.195 10.780 8.753 11.205Q8.311 11.630 7.699 11.630ZM15.315 11.052L15.315 11.052Q15.315 11.052 15.315 11.052L15.315 11.052L15.315 11.052ZM16.607 11.630L16.607 11.630Q15.995 11.630 15.553 11.205Q15.111 10.780 15.111 10.168Q15.111 9.556 15.553 9.114Q15.995 8.672 16.607 8.672Q17.219 8.672 17.644 9.114Q18.069 9.556 18.069 10.168Q18.069 10.780 17.644 11.205Q17.219 11.630 16.607 11.630ZM18.171 10.746L18.171 10.746Q18.171 10.712 18.171 10.678L18.171 10.678L18.171 10.576L18.171 10.610Q18.171 10.678 18.171 10.746ZM18.171 10.406L18.171 10.406Q18.171 10.406 18.171 10.440L18.171 10.440L18.171 10.406Q18.205 10.372 18.171 10.406Z"/></svg>