<?xml version="1.0" encoding="UTF-8"?>
<svg xmlns="http://www.w3.org/2000/svg" width="32" height="32" viewBox="0 0 24 24" fill="#666666"><path d="M17.267 10.696L17.267 10.696Q16.679 10.444 16.595 9.772L16.595 9.772Q16.511 9.268 16.679 8.638L16.679 8.638L16.889 8.050L18.317 6.748L18.569 6.790Q18.863 6.790 19.094 6.643Q19.325 6.496 19.409 6.286Q19.493 6.076 19.493 5.866L19.493 5.866L19.493 5.698L20.585 4.480Q20.627 4.396 20.543 4.270Q20.459 4.144 20.186 3.871Q19.913 3.598 19.367 3.199Q18.821 2.800 18.359 2.632L18.359 2.632Q18.023 2.464 17.771 2.485Q17.519 2.506 17.393 2.590L17.393 2.590L16.091 3.598L15.839 3.598Q15.587 3.640 15.419 3.724Q15.251 3.808 15.335 4.102L15.335 4.102Q15.377 4.270 15.419 4.396L15.419 4.396L10.043 8.848L7.313 2.548L7.397 2.380Q7.523 2.128 7.481 1.897Q7.439 1.666 7.229 1.540L7.229 1.540L7.019 1.498Q6.599 0.742 6.305 0.448L6.305 0.448Q6.179 0.322 6.095 0.322L6.095 0.322L6.095 0.322Q4.709-0.014 3.701 0.574L3.701 0.574Q3.197 0.868 2.945 1.246L2.945 1.246L2.945 1.246Q2.861 1.330 2.987 1.750L2.987 1.750L3.113 2.170L3.029 2.212Q2.945 2.296 2.924 2.464Q2.903 2.632 2.945 2.926L2.945 2.926Q3.113 3.514 3.449 3.556L3.449 3.556Q3.617 3.556 3.743 3.472L3.743 3.472L7.313 11.326Q7.313 11.998 4.541 22.372L4.541 22.372L4.541 22.372Q5.843 23.758 7.943 23.800L7.943 23.800Q8.993 23.800 9.791 23.548L9.791 23.548L9.791 23.548Q9.791 22.246 11.345 14.644L11.345 14.644L11.345 14.644Q12.479 15.652 13.865 16.114L13.865 16.114Q14.789 16.450 15.545 16.450L15.545 16.450Q15.545 16.996 15.671 17.374L15.671 17.374L16.091 17.500Q16.595 17.584 17.099 17.584L17.099 17.584Q17.813 17.584 18.359 17.332L18.359 17.332Q19.031 16.996 19.493 16.324L19.493 16.324Q19.619 16.198 19.619 15.946L19.619 15.946L19.997 15.736Q20.417 15.484 20.711 15.148L20.711 15.148Q21.089 14.686 21.089 14.098L21.089 14.098Q21.089 12.880 19.661 11.914L19.661 11.914Q18.821 11.326 17.267 10.696ZM19.913 15.400L19.913 15.400Q19.997 15.022 19.955 14.644L19.955 14.644Q19.871 14.350 19.745 14.140L19.745 14.140L19.619 13.972L19.535 14.182Q19.409 14.434 19.115 14.686L19.115 14.686Q18.695 14.980 18.044 15.148Q17.393 15.316 16.931 15.274L16.931 15.274Q16.595 15.190 16.385 15.022L16.385 15.022L16.217 14.896L16.049 15.148Q15.839 15.484 15.713 15.820L15.713 15.820Q12.815 15.316 11.513 13.384L11.513 13.384L11.513 13.300Q11.345 12.922 11.639 11.998L11.639 11.998L15.545 9.100Q15.377 10.276 16.385 11.032L16.385 11.032Q16.889 11.452 17.393 11.620L17.393 11.620L18.191 11.914Q19.073 12.376 19.619 12.838L19.619 12.838Q20.417 13.510 20.417 14.224L20.417 14.224Q20.501 14.686 20.291 15.022L20.291 15.022Q20.165 15.274 19.913 15.400Z"/></svg>