<?xml version="1.0" encoding="UTF-8"?>
<svg xmlns="http://www.w3.org/2000/svg" width="32" height="32" viewBox="0 0 24 24" fill="#666666"><path d="M7.486 23.628L2.845 23.628L4.120 17.253L0.142 17.253L0.142 13.887L4.936 13.887L5.701 9.909L1.570 9.909L1.570 6.594L6.517 6.594L7.792 0.372L12.229 0.372L10.954 6.594L15.442 6.594L16.717 0.372L21.154 0.372L19.880 6.594L23.858 6.594L23.858 9.909L19.267 9.909L18.299 13.887L22.429 13.887L22.429 17.253L17.686 17.253L16.412 23.628L11.924 23.628L13.198 17.253L8.761 17.253L7.486 23.628ZM9.373 13.938L13.861 13.938L14.627 9.909L10.189 9.909L9.373 13.938Z"/></svg>