<?xml version="1.0" encoding="UTF-8"?>
<svg xmlns="http://www.w3.org/2000/svg" width="32" height="32" viewBox="0 0 24 24" fill="#666666"><path d="M23.193 23.856L12.000 12.663L0.807 23.856L23.193 23.856ZM23.856 13.248L18.864 18.240L23.856 23.193L23.856 13.248ZM0.144 23.193L11.337 12L0.144 0.807L0.144 23.193ZM13.326 0.144L23.856 10.674L23.856 0.144L13.326 0.144ZM12.663 12L18.240 6.384L23.817 11.961L18.240 17.577L12.663 12ZM12.000 0.144L0.807 0.144L5.955 5.331L17.187 5.331L12.000 0.144ZM6.891 6.228L12.000 11.337L17.109 6.228L6.891 6.228Z"/></svg>