<?xml version="1.0" encoding="UTF-8"?>
<svg xmlns="http://www.w3.org/2000/svg" width="32" height="32" viewBox="0 0 24 24" fill="#666666"><path d="M14.250 17.360L14.250 17.360Q14.516 17.284 14.972 17.227Q15.428 17.170 15.694 17.132L15.694 17.132Q18.088 16.524 18.886 14.738L18.886 14.738Q19.912 12.686 19.380 10.330L19.380 10.330Q19.266 9.874 19.038 9.418L19.038 9.418Q18.848 9.114 18.430 8.582L18.430 8.582Q18.278 8.430 18.278 8.202L18.278 8.202Q18.658 6.758 18.164 5.466L18.164 5.466Q18.164 5.390 18.069 5.314Q17.974 5.238 17.822 5.238L17.822 5.238Q17.442 5.238 17.024 5.390L17.024 5.390Q16.758 5.466 16.283 5.713Q15.808 5.960 15.086 6.416L15.086 6.416Q14.972 6.530 14.744 6.530L14.744 6.530Q11.932 5.846 9.158 6.530L9.158 6.530Q8.930 6.530 8.778 6.416L8.778 6.416L8.512 6.264Q7.790 5.846 7.448 5.694L7.448 5.694Q6.878 5.428 6.308 5.352L6.308 5.352Q5.852 5.276 5.757 5.333Q5.662 5.390 5.586 5.846L5.586 5.846Q5.244 7.062 5.586 8.316L5.586 8.316L5.586 8.544Q4.826 9.418 4.560 10.558L4.560 10.558Q4.332 11.584 4.522 12.724L4.522 12.724Q4.598 12.952 4.655 13.370Q4.712 13.788 4.750 14.016L4.750 14.016Q5.206 15.270 6.080 16.011Q6.954 16.752 8.322 17.132L8.322 17.132Q9.272 17.360 9.880 17.474L9.880 17.474Q9.386 17.930 9.158 18.880L9.158 18.880Q9.158 18.994 9.044 19.032L9.044 19.032L9.044 19.032Q8.056 19.412 7.220 19.222L7.220 19.222Q6.308 18.994 5.700 18.082L5.700 18.082Q5.092 17.018 4.028 16.866L4.028 16.866L3.458 16.866Q3.268 16.866 3.249 16.999Q3.230 17.132 3.344 17.246L3.344 17.246L3.572 17.474Q4.522 18.044 4.864 19.146L4.864 19.146Q5.244 19.906 5.852 20.305Q6.460 20.704 7.372 20.780L7.372 20.780Q8.436 20.780 9.044 20.666L9.044 20.666L9.044 22.946Q9.044 23.212 8.797 23.345Q8.550 23.478 8.208 23.402L8.208 23.402Q6.764 22.870 5.358 21.996L5.358 21.996Q2.622 20.096 1.330 17.512L1.330 17.512Q-0.038 14.890 0.114 11.660L0.114 11.660Q0.228 8.962 1.520 6.663Q2.812 4.364 4.959 2.806Q7.106 1.248 9.728 0.716L9.728 0.716Q12.768 0.146 15.694 1.096L15.694 1.096Q18.506 2.046 20.596 4.231Q22.686 6.416 23.522 9.380L23.522 9.380Q24.282 12.306 23.522 15.232L23.522 15.232Q22.762 18.082 20.748 20.267Q18.734 22.452 15.922 23.402L15.922 23.402Q15.466 23.592 15.219 23.402Q14.972 23.212 14.972 22.680L14.972 22.680L14.972 19.830Q15.086 19.070 14.934 18.500L14.934 18.500Q14.782 17.854 14.250 17.360Z"/></svg>