<?xml version="1.0" encoding="UTF-8"?>
<svg xmlns="http://www.w3.org/2000/svg" width="32" height="32" viewBox="0 0 24 24" fill="#666666"><path d="M15.627 15.494L15.813 15.742Q15.782 15.804 15.689 15.897L15.689 15.897L13.364 18.098Q13.271 18.222 13.178 18.207Q13.085 18.191 12.992 18.067L12.992 18.067L8.094 13.386L3.320 18.005Q3.134 18.160 3.010 18.160Q2.886 18.160 2.731 18.005L2.731 18.005Q2.204 17.478 1.057 16.393L1.057 16.393L0.282 15.649L0.499 15.494Q0.778 15.339 0.871 15.215L0.871 15.215Q4.653 11.619 7.846 8.550L7.846 8.550Q8.001 8.395 8.110 8.395Q8.218 8.395 8.373 8.519L8.373 8.519L15.627 15.494ZM11.535 10.038L15.968 5.791Q16.681 6.473 18.107 7.837L18.107 7.837L23.718 13.200L21.083 15.742L15.968 10.875L14.170 12.580L11.535 10.038Z"/></svg>