<?xml version="1.0" encoding="UTF-8"?>
<svg xmlns="http://www.w3.org/2000/svg" width="32" height="32" viewBox="0 0 24 24" fill="#666666"><path d="M12.000 18.678L12.000 18.678Q8.808 18.678 6.120 17.628Q3.432 16.578 1.836 14.772Q0.240 12.966 0.240 10.824Q0.240 8.682 1.836 6.876Q3.432 5.070 6.120 3.999Q8.808 2.928 12.000 2.928Q15.192 2.928 17.880 3.999Q20.568 5.070 22.164 6.876Q23.760 8.682 23.760 10.824Q23.760 12.966 22.164 14.772Q20.568 16.578 17.880 17.628Q15.192 18.678 12.000 18.678ZM13.806 6.036L13.806 6.036Q11.370 6.036 9.312 6.750Q7.254 7.464 6.057 8.703Q4.860 9.942 4.860 11.391Q4.860 12.840 6.057 14.079Q7.254 15.318 9.312 16.053Q11.370 16.788 13.806 16.788L13.806 16.788Q17.712 16.788 19.938 15.486L19.938 15.486Q22.374 14.100 22.374 11.412Q22.374 8.724 19.938 7.296L19.938 7.296Q17.712 6.036 13.806 6.036ZM18.678 15.024L18.132 15.108Q18.342 15.192 18.552 15.276L18.552 15.276Q19.014 15.402 19.266 15.570L19.266 15.570Q19.602 15.738 19.854 15.948L19.854 15.948Q19.938 16.074 20.022 16.200L20.022 16.200L22.920 21.030L18.384 21.030L16.242 17.082L15.990 16.662Q15.738 16.242 15.570 16.116L15.570 16.116Q15.234 15.864 15.024 15.864L15.024 15.864L13.932 15.864L13.932 21.072L9.942 21.072L9.942 7.842L18.006 7.842L18.552 7.884Q19.266 8.010 19.812 8.304L19.812 8.304Q20.610 8.682 21.072 9.354L21.072 9.354Q21.660 10.194 21.660 11.391Q21.660 12.588 21.114 13.428L21.114 13.428Q20.652 14.142 19.896 14.562L19.896 14.562Q19.350 14.856 18.678 15.024L18.678 15.024ZM16.410 10.698L16.410 10.698L13.974 10.698L13.974 12.966L16.410 12.924L16.704 12.882Q17.040 12.798 17.250 12.588L17.250 12.588Q17.544 12.294 17.502 11.790L17.502 11.790Q17.544 11.076 16.956 10.824L16.956 10.824Q16.662 10.698 16.410 10.698L16.410 10.698Z"/></svg>