<?xml version="1.0" encoding="UTF-8"?>
<svg xmlns="http://www.w3.org/2000/svg" width="32" height="32" viewBox="0 0 24 24" fill="#666666"><path d="M21.571 1.813L21.655 1.603Q22.915 5.005 23.377 7.483L23.377 7.483Q24.007 10.675 23.629 13.531L23.629 13.531Q23.041 18.067 19.555 21.175L19.555 21.175Q17.749 22.561 15.775 23.275L15.775 23.275Q13.675 24.031 11.575 23.905L11.575 23.905Q6.451 23.737 3.154 19.873Q-0.143 16.009 0.277 11.053L0.277 11.053Q0.487 7.231 3.049 4.501L3.049 4.501Q5.569 1.057 10.651 0.175L10.651 0.175Q15.187-0.413 19.177 2.527L19.177 2.527Q19.975 3.199 20.227 3.283L20.227 3.283Q20.563 3.451 20.815 3.157L20.815 3.157Q20.983 2.947 21.403 1.981L21.403 1.981Q21.487 1.981 21.571 1.813L21.571 1.813ZM20.605 9.205L20.605 9.205Q19.723 13.153 15.775 16.429L15.775 16.429Q14.767 17.269 13.339 17.941L13.339 17.941Q12.457 18.361 10.609 19.033L10.609 19.033L9.853 19.327Q9.601 19.411 9.076 19.600Q8.551 19.789 8.299 19.873L8.299 19.873Q8.299 20.125 8.425 20.251L8.425 20.251Q9.223 20.209 10.903 20.167L10.903 20.167Q13.045 20.125 14.095 20.083L14.095 20.083Q15.817 19.957 17.203 19.705L17.203 19.705Q19.807 19.327 21.214 17.857Q22.621 16.387 23.125 13.699L23.125 13.699Q23.629 10.507 22.579 6.727L22.579 6.727Q22.369 6.055 21.991 4.669L21.991 4.669L21.529 3.031Q21.193 3.577 21.025 3.577L21.025 3.577Q19.471 5.971 16.153 7.525L16.153 7.525Q15.187 7.945 13.843 8.155L13.843 8.155Q13.003 8.281 11.365 8.365L11.365 8.365L10.525 8.449Q7.585 8.659 5.905 10.003L5.905 10.003Q4.897 10.759 4.288 12.019Q3.679 13.279 3.658 14.602Q3.637 15.925 4.225 16.975L4.225 16.975Q4.687 17.941 5.317 18.214Q5.947 18.487 6.955 18.277L6.955 18.277Q7.291 18.193 7.942 18.004Q8.593 17.815 8.929 17.731L8.929 17.731Q13.045 16.681 15.775 14.833L15.775 14.833Q18.841 12.691 20.605 9.205ZM4.729 18.781L4.729 18.781Q4.351 18.781 4.078 19.117Q3.805 19.453 3.805 19.852Q3.805 20.251 4.141 20.503Q4.477 20.755 4.855 20.755Q5.233 20.755 5.506 20.440Q5.779 20.125 5.779 19.663Q5.779 19.201 5.548 18.991Q5.317 18.781 4.729 18.781Z"/></svg>