<?xml version="1.0" encoding="UTF-8"?>
<svg xmlns="http://www.w3.org/2000/svg" width="32" height="32" viewBox="0 0 24 24" fill="#666666"><path d="M23.840 19.720L23.840 9.880L18.880 4.960L14.920 1Q14.600 0.640 14.060 0.400Q13.520 0.160 13.080 0.160L13.080 0.160Q12.120 0.160 11.560 0.480L11.560 0.480L4.640 3.960L4.160 4.200L0.480 11.880Q0.160 12.560 0.160 13.040L0.160 13.040Q0.160 14.240 1 15.080L1 15.080L9.760 23.840L19.720 23.840L19.720 19.720L23.840 19.720ZM5.480 4.120L11.840 0.920Q12.280 0.640 13.080 0.640L13.080 0.640Q13.400 0.640 13.840 0.860Q14.280 1.080 14.560 1.360L14.560 1.360L17.360 4.160L17.280 4.160Q16.920 4.120 16.560 4.120L16.560 4.120L5.480 4.120ZM19.200 19.560L19.200 23.320L9.960 23.320L5.320 18.680Q4.880 18.240 4.760 17.900Q4.640 17.560 4.640 16.720L4.640 16.720L4.640 5L19.200 19.560Z"/></svg>