<?xml version="1.0" encoding="UTF-8"?>
<svg xmlns="http://www.w3.org/2000/svg" width="32" height="32" viewBox="0 0 24 24" fill="#666666"><path d="M23.875 6.585L23.875 6.585L23.875 3.507Q23.875 3.127 23.609 2.842Q23.343 2.557 22.925 2.557L22.925 2.557L14.223 2.557L14.223 0.429L12.589 0.429Q12.475 0.429 12.285 0.486Q12.095 0.543 11.981 0.543L11.981 0.543Q11.563 0.581 10.727 0.771Q9.891 0.961 9.473 0.999L9.473 0.999Q7.839 1.265 7.117 1.493L7.117 1.493Q5.445 1.721 4.495 1.949L4.495 1.949L1.873 2.329Q0.695 2.557 0.239 2.557L0.239 2.557L0.125 2.557L0.125 21.443Q0.581 21.481 1.531 21.671Q2.481 21.861 2.956 21.918Q3.431 21.975 4.438 22.146Q5.445 22.317 5.920 22.374Q6.395 22.431 7.345 22.621Q8.295 22.811 8.789 22.849L8.789 22.849Q9.967 23.001 11.753 23.457L11.753 23.457Q12.095 23.571 12.931 23.571L12.931 23.571L13.995 23.571L13.995 21.557Q13.995 21.481 14.014 21.462Q14.033 21.443 14.109 21.443L14.109 21.443L22.773 21.443Q23.153 21.443 23.267 21.329L23.267 21.329Q23.609 21.329 23.609 20.949L23.609 20.949Q23.609 20.835 23.666 20.664Q23.723 20.493 23.723 20.379L23.723 20.379L23.723 6.585L23.837 6.699Q23.875 6.699 23.875 6.585ZM10.803 8.371L10.803 8.371L9.739 13.007Q9.587 13.463 9.397 14.413L9.397 14.413Q9.245 15.211 9.131 15.629L9.131 15.629Q9.131 15.705 9.055 15.705L9.055 15.705L9.017 15.743Q8.865 15.819 8.523 15.781L8.523 15.781L8.295 15.743L7.573 15.743Q7.497 15.743 7.478 15.724Q7.459 15.705 7.459 15.629L7.459 15.629Q7.421 15.249 7.231 14.489Q7.041 13.729 7.003 13.349L7.003 13.349Q6.889 12.893 6.699 11.943Q6.509 10.993 6.395 10.499L6.395 10.499Q6.395 10.613 6.338 10.860Q6.281 11.107 6.281 11.221L6.281 11.221L5.559 14.793Q5.559 14.907 5.502 15.211Q5.445 15.515 5.445 15.610Q5.445 15.705 5.426 15.724Q5.407 15.743 5.331 15.743L5.331 15.743Q5.103 15.743 4.628 15.686Q4.153 15.629 3.925 15.629L3.925 15.629Q3.811 15.629 3.792 15.610Q3.773 15.591 3.773 15.515L3.773 15.515Q3.089 11.715 2.595 9.701L2.595 9.701Q2.557 9.511 2.481 9.093Q2.405 8.675 2.367 8.485L2.367 8.485L2.367 8.371L3.773 8.371Q3.887 9.131 4.153 10.689L4.153 10.689Q4.495 12.513 4.609 13.463L4.609 13.463Q4.609 13.349 4.666 13.121Q4.723 12.893 4.723 12.779L4.723 12.779Q4.913 12.057 5.217 10.575Q5.521 9.093 5.673 8.371L5.673 8.371Q5.673 8.295 5.692 8.276Q5.711 8.257 5.825 8.257L5.825 8.257L7.003 8.257Q7.155 8.257 7.212 8.295Q7.269 8.333 7.345 8.485L7.345 8.485Q8.067 11.829 8.409 13.615L8.409 13.615L8.409 13.729Q8.485 13.235 8.656 12.285Q8.827 11.335 8.884 10.898Q8.941 10.461 9.131 9.568Q9.321 8.675 9.359 8.257L9.359 8.257L9.397 8.181Q9.397 8.143 9.473 8.143L9.473 8.143Q10.423 8.143 11.031 8.029L11.031 8.029L11.145 8.029Q10.993 8.029 10.898 8.143Q10.803 8.257 10.803 8.371ZM23.039 3.507L23.039 3.507Q23.039 3.545 23.039 3.545L23.039 3.545L23.039 3.507L23.039 20.721L14.109 20.721L14.109 18.593L21.139 18.593L21.139 17.529L14.375 17.529Q14.261 17.529 14.242 17.510Q14.223 17.491 14.223 17.415L14.223 17.415L14.223 16.313Q14.223 16.237 14.242 16.218Q14.261 16.199 14.375 16.199L14.375 16.199L21.253 16.199L21.253 15.135L14.223 15.135L14.223 13.843L21.139 13.843Q21.215 13.843 21.234 13.824Q21.253 13.805 21.253 13.729L21.253 13.729L21.253 12.893Q21.253 12.817 21.234 12.798Q21.215 12.779 21.139 12.779L21.139 12.779L14.375 12.779Q14.261 12.779 14.242 12.760Q14.223 12.741 14.223 12.665L14.223 12.665L14.223 11.449L21.253 11.449L21.253 10.385L14.489 10.385Q14.375 10.385 14.356 10.366Q14.337 10.347 14.337 10.271L14.337 10.271L14.337 9.207Q14.337 9.131 14.356 9.112Q14.375 9.093 14.489 9.093L14.489 9.093L21.253 9.093L21.253 8.029L14.223 8.029L14.223 6.585L21.139 6.585Q21.215 6.585 21.234 6.566Q21.253 6.547 21.253 6.471L21.253 6.471L21.253 5.635Q21.253 5.559 21.234 5.540Q21.215 5.521 21.139 5.521L21.139 5.521L14.109 5.521L14.109 3.735Q14.109 3.659 14.128 3.640Q14.147 3.621 14.223 3.621L14.223 3.621L22.925 3.621L23.001 3.431Q23.039 3.431 23.039 3.507Z"/></svg>