<?xml version="1.0" encoding="UTF-8"?>
<svg xmlns="http://www.w3.org/2000/svg" width="32" height="32" viewBox="0 0 24 24" fill="#666666"><path d="M6.119 10.273L1.933 10.247Q1.855 10.247 1.881 10.195L1.881 10.195L2.141 9.883Q2.167 9.831 2.271 9.831L2.271 9.831L6.379 9.831Q6.457 9.831 6.431 9.883L6.431 9.883L6.223 10.195Q6.171 10.273 6.119 10.273L6.119 10.273ZM5.651 11.313L0.191 11.313Q0.113 11.313 0.139 11.261L0.139 11.261L0.399 10.949Q0.425 10.897 0.529 10.897L0.529 10.897L5.781 10.897Q5.859 10.897 5.833 10.949L5.833 10.949L5.755 11.235Q5.729 11.313 5.651 11.313L5.651 11.313ZM5.495 12.379L2.973 12.379Q2.895 12.379 2.947 12.301L2.947 12.301L3.103 12.015Q3.155 11.963 3.233 11.963L3.233 11.963L5.521 11.963Q5.599 11.963 5.599 12.041L5.599 12.041L5.573 12.301Q5.573 12.379 5.495 12.379L5.495 12.379ZM14.985 10.039L14.985 10.039Q14.569 10.143 13.893 10.325L13.893 10.325L13.009 10.559Q12.905 10.585 12.853 10.572Q12.801 10.559 12.697 10.429L12.697 10.429Q12.411 10.117 12.151 9.987L12.151 9.987Q11.111 9.493 10.071 10.169L10.071 10.169Q8.875 10.949 8.875 12.379L8.875 12.379Q8.901 13.055 9.330 13.575Q9.759 14.095 10.435 14.173L10.435 14.173Q11.605 14.329 12.411 13.419L12.411 13.419L12.723 13.003L10.487 13.003Q10.305 13.003 10.253 12.899Q10.201 12.795 10.279 12.639L10.279 12.639Q10.591 11.911 10.851 11.391L10.851 11.391Q10.955 11.209 11.137 11.209L11.137 11.209L15.349 11.209L15.349 11.521Q15.323 11.937 15.297 12.145L15.297 12.145Q15.089 13.419 14.335 14.407L14.335 14.407Q13.061 16.097 11.033 16.357L11.033 16.357Q9.265 16.591 7.939 15.603L7.939 15.603Q6.665 14.641 6.457 13.029L6.457 13.029Q6.249 11.209 7.445 9.649L7.445 9.649Q8.693 8.011 10.695 7.647L10.695 7.647Q12.437 7.335 13.737 8.219L13.737 8.219Q14.647 8.817 15.089 9.857L15.089 9.857Q15.193 9.987 14.985 10.039ZM19.119 16.409L18.807 16.435Q17.117 16.409 15.973 15.421L15.973 15.421Q14.933 14.511 14.725 13.185L14.725 13.185Q14.439 11.313 15.661 9.701L15.661 9.701Q16.285 8.869 17.065 8.414Q17.845 7.959 18.911 7.777L18.911 7.777Q20.835 7.439 22.226 8.375Q23.617 9.311 23.825 10.923L23.825 10.923Q24.111 13.211 22.499 14.849L22.499 14.849Q21.381 15.993 19.717 16.331L19.717 16.331Q19.509 16.357 19.119 16.409L19.119 16.409ZM21.537 11.755L21.537 11.755Q21.537 11.729 21.537 11.651L21.537 11.651Q21.537 11.469 21.511 11.391L21.511 11.391Q21.355 10.533 20.666 10.091Q19.977 9.649 19.145 9.857L19.145 9.857Q17.507 10.221 17.143 11.859L17.143 11.859Q16.987 12.535 17.286 13.146Q17.585 13.757 18.209 14.043L18.209 14.043Q19.145 14.459 20.081 13.965L20.081 13.965Q21.459 13.263 21.537 11.755Z"/></svg>