<?xml version="1.0" encoding="UTF-8"?>
<svg xmlns="http://www.w3.org/2000/svg" width="32" height="32" viewBox="0 0 24 24" fill="#666666"><path d="M9.396 0.198L0.198 0.198L0.198 23.802L23.802 23.802L23.802 0.198L14.646 0.198Q14.646 1.164 13.806 1.983Q12.966 2.802 12 2.802Q11.034 2.802 10.215 1.983Q9.396 1.164 9.396 0.198L9.396 0.198ZM8.976 21.198L7.002 13.302L8.598 13.302L9.774 17.838L10.950 13.302L12.126 13.302L13.302 17.838L14.478 13.302L16.074 13.302L14.100 21.198L12.714 21.198L11.538 16.074L11.328 17.166Q10.782 19.770 10.362 21.198L10.362 21.198L8.976 21.198ZM15.486 21.198L17.460 13.302L19.812 13.302L21.786 21.198L20.022 21.198L19.602 19.224L17.628 19.224L17.250 21.198L15.486 21.198ZM19.434 17.838L18.846 14.898L18.426 14.898L17.838 17.838L19.434 17.838Z"/></svg>