<?xml version="1.0" encoding="UTF-8"?>
<svg xmlns="http://www.w3.org/2000/svg" width="32" height="32" viewBox="0 0 24 24" fill="#666666"><path d="M19.896 0.198L19.896 14.940Q19.854 15.108 19.854 15.444L19.854 15.444Q19.854 16.410 19.812 16.914L19.812 16.914Q19.728 17.796 19.518 18.384L19.518 18.384Q18.972 20.106 17.733 21.387Q16.494 22.668 14.856 23.340L14.856 23.340Q14.100 23.634 13.365 23.718Q12.630 23.802 11.454 23.802L11.454 23.802Q9.060 23.802 7.338 23.130L7.338 23.130Q5.448 22.248 4.104 20.610L4.104 20.610L6.750 17.208Q7.548 18.258 8.745 18.846Q9.942 19.434 11.328 19.434L11.328 19.434Q13.176 19.434 14.205 18.216Q15.234 16.998 15.234 14.562L15.234 14.562L15.234 0.198L19.896 0.198Z"/></svg>