<?xml version="1.0" encoding="UTF-8"?>
<svg xmlns="http://www.w3.org/2000/svg" width="32" height="32" viewBox="0 0 24 24" fill="#666666"><path d="M15.570 8.681L15.570 8.646Q15.850 8.926 16.375 9.451L16.375 9.451Q17.530 10.711 18.055 11.341L18.055 11.341Q18.895 12.461 19.280 13.511L19.280 13.511Q19.735 14.806 19.595 16.276L19.595 16.276Q19.385 19.006 18.055 20.826L18.055 20.826Q17.005 22.331 15.325 23.101L15.325 23.101Q13.995 23.731 12.542 23.783Q11.090 23.836 9.725 23.416L9.725 23.416Q7.905 22.891 6.680 21.631L6.680 21.631Q5.140 20.056 4.580 17.501L4.580 17.501Q4.090 15.261 4.755 12.321L4.755 12.321Q5.385 9.731 6.785 7.001L6.785 7.001Q8.115 4.481 9.725 2.608Q11.335 0.736 12.630 0.211L12.630 0.211Q12.525 1.366 12.735 2.871L12.735 2.871Q12.980 4.446 13.470 5.601L13.470 5.601Q13.085 5.566 12.735 5.566L12.735 5.566Q10.530 5.566 9.147 6.756Q7.765 7.946 7.765 9.836L7.765 9.836Q7.765 10.921 8.307 11.551Q8.850 12.181 10.495 12.881L10.495 12.881L11.510 13.301Q12.070 13.546 12.385 13.931Q12.700 14.316 12.700 14.841L12.700 14.841Q12.700 15.716 12.035 16.206Q11.370 16.696 10.250 16.696L10.250 16.696Q9.340 16.696 8.412 16.328Q7.485 15.961 6.680 15.296L6.680 15.296L6.190 17.886Q7.170 18.341 8.220 18.586L8.220 18.586Q9.165 18.796 10.145 18.796L10.145 18.796Q12.490 18.796 13.872 17.623Q15.255 16.451 15.255 14.491L15.255 14.491Q15.255 13.336 14.677 12.566Q14.100 11.796 12.840 11.236L12.840 11.236L11.790 10.781Q10.215 10.046 10.215 9.311Q10.215 8.576 10.845 8.103Q11.475 7.631 12.455 7.631Q13.435 7.631 14.222 7.893Q15.010 8.156 15.570 8.681L15.570 8.681ZM10.495 21.736L10.495 21.736Q11.930 22.051 12.490 22.051L12.490 22.051Q13.295 22.086 13.400 21.666L13.400 21.666Q13.645 20.581 7.485 19.916L7.485 19.916Q8.045 20.476 8.972 21.053Q9.900 21.631 10.495 21.736Z"/></svg>