<?xml version="1.0" encoding="UTF-8"?>
<svg xmlns="http://www.w3.org/2000/svg" width="32" height="32" viewBox="0 0 24 24" fill="#666666"><path d="M14.413 15.173L14.451 15.287Q14.451 15.591 14.394 16.256Q14.337 16.921 14.337 17.225L14.337 17.225Q14.071 20.987 14.071 22.925L14.071 22.925L14.071 23.723Q14.071 23.837 14.052 23.856Q14.033 23.875 13.957 23.875L13.957 23.875L10.385 23.153Q10.119 23.077 9.568 23.020Q9.017 22.963 8.751 22.925L8.751 22.925L8.447 22.849Q7.573 22.659 7.193 22.659L7.193 22.659Q6.433 22.545 4.875 22.260Q3.317 21.975 2.557 21.823L2.557 21.823Q2.063 21.633 0.923 21.405L0.923 21.405L0.657 21.367Q0.543 21.367 0.543 21.139L0.543 21.139Q0.771 19.923 0.999 17.377L0.999 17.377L1.037 17.073Q1.037 16.959 1.094 16.674Q1.151 16.389 1.151 16.275L1.151 16.275Q1.189 16.199 1.189 16.047Q1.189 15.895 1.265 15.781L1.265 15.781Q1.303 15.477 1.379 14.850Q1.455 14.223 1.493 13.881L1.493 13.881Q1.721 12.703 1.721 11.981L1.721 11.981Q2.177 9.017 2.329 7.231L2.329 7.231Q2.329 6.775 2.785 6.509L2.785 6.509L4.951 5.825Q5.027 5.825 5.103 5.730Q5.179 5.635 5.179 5.445L5.179 5.445Q5.483 3.735 6.737 1.873L6.737 1.873Q7.497 0.733 8.485 0.239L8.485 0.239Q8.751 0.239 9.169 0.182Q9.587 0.125 9.815 0.125L9.815 0.125Q10.803 0.125 11.221 0.695L11.221 0.695L11.335 0.809L11.449 0.809Q11.943 0.809 12.342 0.999Q12.741 1.189 13.007 1.531L13.007 1.531Q13.387 2.025 13.843 2.975L13.843 2.975Q13.843 3.089 14.071 3.089L14.071 3.089L14.679 2.823Q14.869 2.823 14.888 2.861Q14.907 2.899 14.907 3.089L14.907 3.089Q14.907 3.621 14.850 4.628Q14.793 5.635 14.793 6.167L14.793 6.167Q14.717 6.813 14.660 8.181Q14.603 9.549 14.565 10.195L14.565 10.195Q14.489 11.031 14.432 12.627Q14.375 14.223 14.299 15.059L14.299 15.059L14.413 15.173ZM5.635 14.717L5.635 14.717Q6.129 15.173 6.471 15.439L6.471 15.439Q7.155 15.857 7.307 16.503L7.307 16.503Q7.421 16.959 7.231 17.282Q7.041 17.605 6.585 17.681L6.585 17.681L6.015 17.681Q5.141 17.529 4.229 16.845L4.229 16.845Q4.153 16.769 4.115 16.788Q4.077 16.807 4.001 16.959L4.001 16.959Q3.735 17.909 3.545 18.403Q3.355 18.897 3.735 19.125L3.735 19.125Q5.369 20.341 7.193 20.189L7.193 20.189Q8.181 20.075 8.865 19.562Q9.549 19.049 9.910 18.156Q10.271 17.263 10.271 16.389Q10.271 15.515 9.701 14.717L9.701 14.717Q9.701 14.641 9.644 14.584Q9.587 14.527 9.587 14.489L9.587 14.489Q9.321 14.071 8.903 13.729L8.903 13.729Q8.637 13.539 8.029 13.159L8.029 13.159Q7.801 13.045 7.307 12.589L7.307 12.589Q7.041 12.095 7.231 11.525Q7.421 10.955 8.029 10.803L8.029 10.803Q9.093 10.651 10.271 11.031L10.271 11.031Q10.347 11.107 10.423 11.050Q10.499 10.993 10.499 10.917L10.499 10.917L11.221 8.789Q11.335 8.523 11.297 8.447Q11.259 8.371 10.993 8.295L10.993 8.295Q9.891 7.991 8.485 8.181L8.485 8.181Q6.965 8.447 5.977 9.397L5.977 9.397Q4.913 10.461 4.837 11.981L4.837 11.981Q4.647 12.741 4.875 13.444Q5.103 14.147 5.635 14.717ZM10.385 1.037L10.385 1.037Q10.309 0.961 10.271 0.961L10.271 0.961L10.157 0.923Q10.005 0.847 9.663 0.923L9.663 0.923L9.321 0.923Q8.371 1.265 7.687 2.139L7.687 2.139Q6.661 3.279 6.015 5.445L6.015 5.445Q6.015 5.521 6.034 5.540Q6.053 5.559 6.129 5.559L6.129 5.559Q6.433 5.521 6.965 5.331Q7.497 5.141 7.801 5.103L7.801 5.103Q7.877 5.103 7.877 5.027L7.877 5.027L7.915 4.989Q7.915 4.837 7.972 4.609Q8.029 4.381 8.029 4.267L8.029 4.267Q8.447 3.127 8.903 2.443L8.903 2.443Q9.511 1.531 10.385 1.037ZM11.221 3.545L11.221 3.545Q11.221 2.975 10.993 1.987L10.993 1.987Q10.917 1.835 10.879 1.816Q10.841 1.797 10.765 1.873L10.765 1.873Q10.195 2.177 10.043 2.481L10.043 2.481Q9.359 3.317 8.979 4.495L8.979 4.495L8.979 4.609L9.093 4.609Q9.435 4.533 10.119 4.343L10.119 4.343L10.765 4.153Q11.107 4.039 11.164 3.963Q11.221 3.887 11.221 3.545ZM12.171 3.773L12.171 3.773Q12.437 3.659 13.121 3.431L13.121 3.431L13.121 3.317Q12.931 2.519 12.437 1.987L12.437 1.987Q12.171 1.759 11.943 1.645L11.943 1.645L11.829 1.645L11.829 1.759Q11.829 1.835 11.886 2.006Q11.943 2.177 11.943 2.253L11.943 2.253Q12.057 2.595 12.057 3.545L12.057 3.545Q12.057 3.773 12.171 3.773ZM22.735 18.289L23.115 19.581L23.457 22.089L23.457 22.203L23.343 22.317Q22.621 22.431 21.253 22.735Q19.885 23.039 19.201 23.153L19.201 23.153Q17.415 23.571 16.237 23.723L16.237 23.723L16.123 23.761Q16.047 23.761 16.047 23.742Q16.047 23.723 16.085 23.609L16.085 23.609Q16.085 22.773 16.199 22.431L16.199 22.431Q16.275 21.595 16.332 19.999Q16.389 18.403 16.465 17.567L16.465 17.567L16.465 16.389Q16.465 15.553 16.579 15.173L16.579 15.173L16.579 14.337L16.921 8.067L16.921 6.889Q17.035 5.939 17.035 4.153L17.035 4.153L17.035 2.937Q17.149 2.937 17.149 2.956Q17.149 2.975 17.149 3.089L17.149 3.089L17.643 3.545L17.909 3.773Q18.175 4.001 18.251 4.153Q18.327 4.305 18.460 4.343Q18.593 4.381 18.840 4.381Q19.087 4.381 19.619 4.438Q20.151 4.495 20.379 4.495L20.379 4.495Q20.455 4.495 20.531 4.571Q20.607 4.647 20.607 4.723L20.607 4.723Q20.683 4.989 20.740 5.464Q20.797 5.939 20.835 6.167L20.835 6.167L21.215 8.523Q21.329 9.131 21.500 10.385Q21.671 11.639 21.785 12.209L21.785 12.209Q21.975 13.235 22.279 15.249Q22.583 17.263 22.735 18.289L22.735 18.289Z"/></svg>