<?xml version="1.0" encoding="UTF-8"?>
<svg xmlns="http://www.w3.org/2000/svg" width="32" height="32" viewBox="0 0 24 24" fill="#666666"><path d="M15.067 0.258L15.067 0.223Q12.792 0.223 10.849 1.500Q8.907 2.777 7.979 4.895Q7.052 7.012 7.384 9.305Q7.717 11.598 9.257 13.348L9.257 13.348L1.627 22.098L2.677 23.043L10.272 14.328Q11.777 15.518 13.632 15.867Q15.487 16.218 17.289 15.675Q19.092 15.133 20.457 13.803Q21.822 12.473 22.434 10.670Q23.047 8.867 22.784 6.995Q22.522 5.122 21.419 3.565Q20.317 2.008 18.637 1.133Q16.957 0.258 15.067 0.258L15.067 0.258ZM15.067 14.572L15.067 14.572Q13.142 14.572 11.532 13.470Q9.922 12.367 9.187 10.565Q8.452 8.762 8.837 6.855Q9.222 4.947 10.587 3.565Q11.952 2.183 13.842 1.797Q15.732 1.412 17.517 2.165Q19.302 2.918 20.369 4.545Q21.437 6.172 21.437 8.098L21.437 8.098Q21.437 9.392 20.964 10.582Q20.492 11.773 19.599 12.683Q18.707 13.593 17.534 14.082Q16.362 14.572 15.067 14.572ZM15.102 1.657L15.102 1.657Q13.212 1.657 11.602 2.690Q9.992 3.723 9.204 5.473Q8.417 7.223 8.714 9.113Q9.012 11.003 10.272 12.438L10.272 12.438L3.937 19.648L4.847 20.453L11.112 13.277Q12.372 14.258 13.912 14.537Q15.452 14.818 16.939 14.380Q18.427 13.943 19.564 12.840Q20.702 11.738 21.209 10.250Q21.717 8.762 21.489 7.205Q21.262 5.648 20.352 4.370Q19.442 3.092 18.059 2.375Q16.677 1.657 15.102 1.657L15.102 1.657ZM15.102 13.453L15.102 13.453Q13.492 13.453 12.162 12.560Q10.832 11.668 10.219 10.180Q9.607 8.692 9.922 7.117Q10.237 5.543 11.374 4.387Q12.512 3.232 14.087 2.918Q15.662 2.602 17.132 3.232Q18.602 3.863 19.512 5.192L19.512 5.192Q20.562 6.767 20.369 8.657Q20.177 10.547 18.847 11.913L18.847 11.913Q18.112 12.648 17.132 13.050Q16.152 13.453 15.102 13.453ZM3.622 23.778L1.137 21.608L9.782 11.808L12.232 13.978L3.622 23.778Z"/></svg>