<?xml version="1.0" encoding="UTF-8"?>
<svg xmlns="http://www.w3.org/2000/svg" width="32" height="32" viewBox="0 0 24 24" fill="#666666"><path d="M8.154 16.514L8.154 16.514Q7.964 15.298 6.976 14.956L6.976 14.956L6.140 14.462Q5.418 14.234 5.190 14.120L5.190 14.120Q4.848 13.968 4.468 14.348L4.468 14.348Q4.316 14.690 4.582 14.956L4.582 14.956Q4.696 15.184 5.076 15.564L5.076 15.564Q5.304 15.906 5.912 16.514L5.912 16.514L5.988 16.628Q6.178 16.894 6.216 17.046L6.216 17.046Q6.330 17.274 6.254 17.578L6.254 17.578Q6.064 18.946 5.190 19.820L5.190 19.820Q5.114 19.896 5.000 19.934L5.000 19.934L4.962 19.934Q4.696 19.934 4.373 19.801Q4.050 19.668 3.860 19.478L3.860 19.478Q3.632 19.212 3.670 18.965Q3.708 18.718 4.012 18.528L4.012 18.528Q4.088 18.528 4.164 18.452Q4.240 18.376 4.240 18.262L4.240 18.262Q4.620 17.882 4.468 17.464L4.468 17.464Q4.392 17.388 4.335 17.274Q4.278 17.160 4.240 17.084L4.240 17.084Q3.746 16.628 2.568 15.678L2.568 15.678Q0.364 13.968 0.212 11.384L0.212 11.384Q0.022 8.648 1.504 6.064L1.504 6.064Q2.150 4.962 3.062 4.506L3.062 4.506Q3.518 4.278 4.468 4.012L4.468 4.012Q6.862 3.366 8.610 3.670L8.610 3.670Q10.624 4.088 11.118 5.684L11.118 5.684Q11.498 7.052 11.346 8.078L11.346 8.078Q11.270 9.294 10.415 10.282Q9.560 11.270 8.382 11.612L8.382 11.612Q7.850 11.802 7.546 11.707Q7.242 11.612 6.976 11.156L6.976 11.156L6.786 10.890Q6.330 10.206 6.140 9.864L6.140 9.864L6.140 9.712Q6.140 9.674 6.083 9.617Q6.026 9.560 6.026 9.484L6.026 9.484Q6.140 10.206 6.216 10.548L6.216 10.548Q6.368 11.118 6.596 11.498L6.596 11.498Q6.824 11.802 7.033 11.954Q7.242 12.106 7.546 12.106L7.546 12.106Q9.864 12.296 11.232 10.548L11.232 10.548Q12.562 8.724 12.182 6.064L12.182 6.064Q12.182 5.760 12.030 5.304L12.030 5.304L11.954 5.114Q11.954 4.886 11.992 4.791Q12.030 4.696 12.182 4.620L12.182 4.620Q12.410 4.620 12.410 4.506L12.410 4.506Q14.462 4.088 16.096 4.278L16.096 4.278Q18.452 4.468 20.010 5.570L20.010 5.570Q22.746 7.280 23.696 10.662L23.696 10.662Q23.810 11.042 23.810 11.612L23.810 11.612Q23.810 11.802 23.734 11.821Q23.658 11.840 23.487 11.745Q23.316 11.650 23.088 11.422L23.088 11.422L23.012 11.270Q22.936 11.232 22.822 11.042Q22.708 10.852 22.632 10.776Q22.556 10.700 22.480 10.700Q22.404 10.700 22.404 10.776Q22.404 10.852 22.347 10.966Q22.290 11.080 22.290 11.156L22.290 11.156Q21.682 13.208 20.618 14.234L20.618 14.234Q20.542 14.348 20.466 14.481Q20.390 14.614 20.390 14.728L20.390 14.728L20.352 15.184Q20.314 15.830 20.390 16.134L20.390 16.134L20.732 19.098Q20.808 19.516 20.675 19.744Q20.542 19.972 20.124 20.162L20.124 20.162Q19.440 20.428 18.946 20.428L18.946 20.428L17.046 20.428Q17.046 19.706 16.970 19.402L16.970 19.402Q16.856 18.870 16.476 18.642L16.476 18.642Q16.704 17.692 16.837 17.084Q16.970 16.476 16.590 15.906L16.590 15.906Q16.286 15.450 15.640 15.678L15.640 15.678Q14.348 16.476 12.676 15.906L12.676 15.906Q12.258 15.792 12.011 15.868Q11.764 15.944 11.612 16.248L11.612 16.248Q11.232 16.970 11.232 17.692Q11.232 18.414 11.460 19.592L11.460 19.592Q11.460 19.896 11.422 19.991Q11.384 20.086 11.118 20.162L11.118 20.162Q9.978 20.504 8.762 20.314L8.762 20.314L8.610 20.314Q8.610 19.592 8.534 19.288L8.534 19.288Q8.344 18.756 7.812 18.528L7.812 18.528Q8.382 17.920 8.154 16.514ZM3.290 13.778L3.290 13.778Q3.518 13.512 3.518 13.284L3.518 13.284Q3.594 13.018 3.404 12.676Q3.214 12.334 2.910 12.220L2.910 12.220Q2.758 12.144 2.663 12.182Q2.568 12.220 2.454 12.334L2.454 12.334Q2.264 12.524 1.979 12.885Q1.694 13.246 1.504 13.398L1.504 13.398Q1.504 13.474 1.447 13.531Q1.390 13.588 1.390 13.664L1.390 13.664Q1.276 13.816 1.352 13.968Q1.428 14.120 1.618 14.120L1.618 14.120Q1.960 14.120 2.112 14.234L2.112 14.234Q2.796 14.234 3.290 13.778ZM3.290 9.864L3.290 9.864Q3.290 9.674 3.138 9.522Q2.986 9.370 2.796 9.370Q2.606 9.370 2.435 9.541Q2.264 9.712 2.340 9.978L2.340 9.978Q2.340 10.168 2.511 10.301Q2.682 10.434 2.910 10.434L2.910 10.434Q3.290 10.092 3.290 9.864Z"/></svg>