<?xml version="1.0" encoding="UTF-8"?>
<svg xmlns="http://www.w3.org/2000/svg" width="32" height="32" viewBox="0 0 24 24" fill="#666666"><path d="M18.955 15.993L18.993 15.993Q18.993 16.107 18.993 16.297L18.993 16.297Q19.221 18.615 19.221 19.774Q19.221 20.933 18.651 21.693Q18.081 22.453 17.207 22.529L17.207 22.529Q16.333 22.719 15.307 22.301L15.307 22.301Q14.547 21.921 13.179 21.009L13.179 21.009Q12.305 20.439 11.849 20.173L11.849 20.173Q10.671 21.123 9.949 21.579L9.949 21.579Q9.341 21.997 8.771 22.187L8.771 22.187Q7.707 22.643 6.795 22.472Q5.883 22.301 5.332 21.579Q4.781 20.857 4.762 19.679Q4.743 18.501 4.971 15.879L4.971 15.879Q3.527 15.423 2.805 14.929L2.805 14.929Q1.855 14.473 0.905 13.523L0.905 13.523Q0.145 12.725 0.183 11.794Q0.221 10.863 1.057 10.065L1.057 10.065Q1.665 9.343 2.691 8.849L2.691 8.849Q3.299 8.507 4.591 8.051L4.591 8.051Q4.667 8.051 4.838 7.994Q5.009 7.937 5.085 7.937L5.085 7.937L4.743 5.315Q4.705 4.479 4.971 3.073L4.971 3.073Q5.237 2.085 6.054 1.667Q6.871 1.249 7.935 1.515L7.935 1.515Q8.885 1.743 9.835 2.351L9.835 2.351Q10.519 2.769 11.393 3.529L11.393 3.529Q11.545 3.605 11.735 3.871L11.735 3.871L11.849 4.023Q13.749 2.579 14.813 1.971L14.813 1.971Q16.029 1.173 17.207 1.515L17.207 1.515Q18.081 1.705 18.594 2.446Q19.107 3.187 19.221 4.365L19.221 4.365L19.221 6.265Q19.221 6.645 19.031 7.405L19.031 7.405Q18.917 7.899 18.841 8.165L18.841 8.165Q19.905 8.507 20.874 8.982Q21.843 9.457 22.261 9.761L22.261 9.761Q22.983 10.255 23.401 10.882Q23.819 11.509 23.819 12.193Q23.819 12.877 23.401 13.504Q22.983 14.131 22.261 14.625L22.261 14.625Q21.805 14.929 20.855 15.423L20.855 15.423Q20.171 15.537 18.955 15.993L18.955 15.993ZM10.861 15.841L12.077 15.879Q12.267 15.879 12.685 15.841L12.685 15.841Q13.255 15.765 13.521 15.765L13.521 15.765Q14.015 15.765 14.357 15.271L14.357 15.271Q15.535 13.371 15.991 12.307L15.991 12.307Q16.105 12.155 16.105 11.927Q16.105 11.699 15.991 11.623L15.991 11.623Q15.421 10.521 14.205 8.659L14.205 8.659Q14.053 8.279 13.635 8.279L13.635 8.279Q11.621 8.279 10.557 8.165L10.557 8.165Q9.607 8.165 9.113 9.001L9.113 9.001Q8.657 9.723 8.391 10.179L8.391 10.179L7.859 11.167Q7.517 11.661 7.460 11.870Q7.403 12.079 7.460 12.288Q7.517 12.497 7.859 13.029L7.859 13.029L8.391 13.979L8.847 14.739Q9.227 15.347 9.379 15.499L9.379 15.499Q9.607 15.765 9.911 15.803L9.911 15.803Q10.139 15.841 10.861 15.841L10.861 15.841ZM5.199 14.929L5.199 14.929Q5.921 13.029 6.263 12.193L6.263 12.193L6.263 11.737L5.199 9.001Q3.071 9.647 1.893 10.521L1.893 10.521Q1.057 11.167 1.057 11.908Q1.057 12.649 1.893 13.257L1.893 13.257Q2.501 13.903 3.451 14.321L3.451 14.321Q4.021 14.587 5.199 14.929ZM18.613 8.887L18.613 8.887Q18.157 9.951 17.435 11.851L17.435 11.851L17.397 11.965Q17.359 12.079 17.435 12.079L17.435 12.079Q18.157 13.979 18.613 15.157L18.613 15.157Q19.069 14.929 20.019 14.435L20.019 14.435Q21.273 13.865 21.805 13.523L21.805 13.523Q22.793 12.877 22.793 12.079Q22.793 11.281 21.843 10.673L21.843 10.673Q21.197 10.103 19.753 9.419L19.753 9.419Q18.955 9.077 18.613 8.887ZM5.883 7.481L5.921 7.671Q7.821 7.481 8.885 7.215L8.885 7.215Q8.961 7.215 9.037 7.139L9.037 7.139L9.113 7.101Q9.797 6.151 11.013 4.707L11.013 4.707Q10.063 3.909 9.569 3.529L9.569 3.529Q8.733 2.883 7.935 2.579L7.935 2.579Q6.947 2.237 6.339 2.598Q5.731 2.959 5.541 4.023L5.541 4.023Q5.465 4.745 5.579 5.695L5.579 5.695Q5.655 6.265 5.883 7.481L5.883 7.481ZM17.777 7.709L17.777 7.671Q17.777 7.633 17.834 7.462Q17.891 7.291 17.891 7.215L17.891 7.215Q18.157 6.037 18.157 5.391L18.157 5.391Q18.233 4.327 17.891 3.529L17.891 3.529Q17.739 2.921 17.321 2.655Q16.903 2.389 16.371 2.465L16.371 2.465Q15.421 2.617 14.509 3.225L14.509 3.225Q13.939 3.567 12.951 4.479L12.951 4.479L12.685 4.707Q13.293 5.543 14.471 6.987L14.471 6.987L14.813 7.329L17.777 7.709ZM5.921 16.221L5.921 16.221Q5.883 16.449 5.807 16.867L5.807 16.867Q5.579 17.931 5.541 18.425L5.541 18.425Q5.465 19.299 5.693 20.059L5.693 20.059Q5.845 20.933 6.434 21.275Q7.023 21.617 7.935 21.351L7.935 21.351Q8.695 21.123 9.493 20.591L9.493 20.591Q9.949 20.249 10.823 19.489L10.823 19.489L11.127 19.223Q10.443 18.273 9.227 16.829L9.227 16.829Q8.999 16.601 8.885 16.601L8.885 16.601Q7.517 16.601 5.921 16.221ZM12.571 19.223L12.571 19.223Q13.065 19.869 14.015 20.553L14.015 20.553Q14.889 21.199 15.649 21.465L15.649 21.465Q17.549 22.035 17.891 20.173L17.891 20.173Q18.043 19.337 17.967 18.349L17.967 18.349Q17.929 17.741 17.701 16.525L17.701 16.525L17.663 16.373L16.903 16.449Q15.307 16.563 14.585 16.829L14.585 16.829Q14.243 17.019 13.939 17.361L13.939 17.361Q13.749 17.589 13.445 18.045L13.445 18.045Q13.179 18.425 13.046 18.634Q12.913 18.843 12.571 19.223ZM10.443 7.101L13.293 7.101Q13.027 6.797 12.552 6.265Q12.077 5.733 11.849 5.429L11.849 5.429L11.659 5.695Q10.937 6.607 10.443 7.101L10.443 7.101ZM12.837 17.361L13.293 16.829L10.557 16.829Q10.785 17.133 11.260 17.665Q11.735 18.197 11.963 18.501L11.963 18.501Q12.229 18.083 12.837 17.361L12.837 17.361ZM8.391 15.651L8.391 15.651Q8.239 15.385 7.935 14.853L7.935 14.853Q7.289 13.789 6.985 13.143L6.985 13.143L6.263 15.157Q6.909 15.423 8.391 15.651ZM16.713 13.143L16.713 13.143L15.307 15.651L17.435 15.271Q17.283 14.511 16.713 13.143ZM6.985 10.787L6.985 10.787L8.391 8.279L6.263 8.621L6.415 9.115Q6.681 10.217 6.985 10.787ZM15.307 8.279L15.307 8.279Q15.535 8.773 16.010 9.476Q16.485 10.179 16.713 10.673L16.713 10.673Q17.207 9.229 17.435 8.659L17.435 8.659Q16.523 8.621 15.307 8.279Z"/></svg>