<?xml version="1.0" encoding="UTF-8"?>
<svg xmlns="http://www.w3.org/2000/svg" width="32" height="32" viewBox="0 0 24 24" fill="#666666"><path d="M24 7.296L0 7.296L0 15.296L6.816 15.296L6.816 16.704L12.096 16.704L12.096 15.392L24 15.392L24 7.296ZM6.592 8.704L6.592 13.984L5.312 13.984L5.312 10.112L4 10.112L4 13.984L1.312 13.984L1.312 8.704L6.592 8.704ZM13.184 13.984L13.216 13.984L10.496 13.984L10.496 15.392L7.808 15.392L7.808 8.800L13.088 8.800Q13.216 10.400 13.184 13.984L13.184 13.984ZM22.592 8.704L22.592 13.984L21.312 13.984L21.312 10.112L20 10.112L20 13.984L18.592 13.984L18.592 10.112L17.312 10.112L17.312 13.984L14.592 13.984L14.592 8.704L22.592 8.704ZM11.904 12.704L11.904 10.112L10.592 10.112L10.592 12.704L11.904 12.704Z"/></svg>