<?xml version="1.0" encoding="UTF-8"?>
<svg xmlns="http://www.w3.org/2000/svg" width="32" height="32" viewBox="0 0 24 24" fill="#666666"><path d="M11.376 6.833L11.532 6.833L7.359 6.833L7.359 19.235L4.317 19.235L4.317 6.833L0.183 6.833L0.183 4.610L11.376 4.610L11.376 6.833ZM20.892 15.491L20.892 15.491Q20.892 15.062 20.736 14.750Q20.580 14.438 20.307 14.126L20.307 14.126Q20.073 13.931 19.605 13.697L19.605 13.697Q19.293 13.580 18.513 13.268L18.513 13.268L18.201 13.151Q15.666 12.410 14.184 11.318L14.184 11.318Q12.858 10.187 12.858 8.510L12.858 8.510Q12.858 6.677 14.457 5.585L14.457 5.585Q15.900 4.492 18.299 4.492Q20.697 4.492 22.257 5.858L22.257 5.858Q23.700 7.145 23.700 9.017L23.700 9.017L20.892 9.017Q20.892 8.471 20.716 8.081Q20.541 7.691 20.151 7.301L20.151 7.301Q19.371 6.716 18.201 6.716Q17.031 6.716 16.407 7.184Q15.783 7.652 15.783 8.510L15.783 8.510Q15.783 9.212 16.524 9.758L16.524 9.758Q16.836 9.992 17.460 10.226L17.460 10.226Q17.928 10.421 18.942 10.733L18.942 10.733Q21.321 11.434 22.569 12.507Q23.817 13.580 23.817 15.491L23.817 15.491Q23.817 16.427 23.447 17.187Q23.076 17.948 22.374 18.416L22.374 18.416Q20.892 19.508 18.474 19.508L18.474 19.508Q15.900 19.508 14.301 18.260L14.301 18.260Q12.468 16.817 12.624 14.750L12.624 14.750L15.549 14.750Q15.549 15.998 16.407 16.700L16.407 16.700Q16.758 16.973 17.343 17.129Q17.928 17.285 18.591 17.285L18.591 17.285Q19.917 17.285 20.424 16.817L20.424 16.817Q20.892 16.076 20.892 15.491Z"/></svg>