<?xml version="1.0" encoding="UTF-8"?>
<svg xmlns="http://www.w3.org/2000/svg" width="32" height="32" viewBox="0 0 24 24" fill="#666666"><path d="M23.165 13.645L23.165 13.645Q22.829 13.561 22.199 13.309L22.199 13.309L21.695 13.099Q21.695 12.637 21.632 11.797Q21.569 10.957 21.569 10.495L21.569 10.495Q21.569 10.411 21.632 10.348Q21.695 10.285 21.695 10.201L21.695 10.201L23.165 9.571Q23.543 9.361 23.669 9.004Q23.795 8.647 23.669 8.269L23.669 8.269L22.493 5.623Q22.283 5.203 21.926 5.056Q21.569 4.909 21.191 5.119L21.191 5.119L19.721 5.749Q19.469 5.749 19.469 5.623L19.469 5.623Q19.301 5.371 18.839 4.951L18.839 4.951L18.545 4.699Q18.419 4.573 18.104 4.300Q17.789 4.027 17.621 3.901L17.621 3.901Q17.789 3.649 17.978 3.124Q18.167 2.599 18.293 2.347L18.293 2.347Q18.503 1.843 18.314 1.465Q18.125 1.087 17.621 0.919L17.621 0.919Q17.075 0.793 15.815 0.373L15.815 0.373L15.143 0.121Q14.639-0.089 14.261 0.100Q13.883 0.289 13.715 0.751L13.715 0.751Q13.631 1.087 13.379 1.717L13.379 1.717L13.169 2.221Q12.707 2.221 11.867 2.284Q11.027 2.347 10.565 2.347L10.565 2.347Q10.481 2.347 10.418 2.284Q10.355 2.221 10.271 2.221L10.271 2.221L9.641 0.751Q9.431 0.373 9.074 0.247Q8.717 0.121 8.339 0.247L8.339 0.247L5.693 1.423Q5.273 1.633 5.126 1.990Q4.979 2.347 5.189 2.725L5.189 2.725L5.819 4.195Q5.819 4.447 5.693 4.447L5.693 4.447L5.399 4.699Q5.105 4.909 5.021 5.077L5.021 5.077Q4.853 5.287 4.517 5.686Q4.181 6.085 3.971 6.295L3.971 6.295Q3.677 6.211 3.047 5.959L3.047 5.959L2.543 5.749Q2.039 5.539 1.661 5.728Q1.283 5.917 1.115 6.421L1.115 6.421L0.905 6.925Q0.401 8.185 0.191 8.773Q-0.019 9.361 0.128 9.697Q0.275 10.033 0.821 10.201L0.821 10.201Q1.157 10.285 1.787 10.537L1.787 10.537L2.291 10.747Q2.291 11.209 2.354 12.049Q2.417 12.889 2.417 13.351L2.417 13.351Q2.417 13.435 2.354 13.498Q2.291 13.561 2.291 13.645L2.291 13.645L0.821 14.275Q0.443 14.485 0.317 14.842Q0.191 15.199 0.317 15.577L0.317 15.577L1.493 18.223Q1.703 18.643 2.060 18.790Q2.417 18.937 2.795 18.727L2.795 18.727L4.265 18.097Q4.517 18.097 4.517 18.223L4.517 18.223Q4.685 18.475 5.147 18.895L5.147 18.895L5.441 19.147Q5.567 19.273 5.882 19.525Q6.197 19.777 6.365 19.945L6.365 19.945Q6.239 20.197 6.029 20.722Q5.819 21.247 5.693 21.499L5.693 21.499Q5.483 22.003 5.672 22.381Q5.861 22.759 6.365 22.969L6.365 22.969Q6.659 23.053 7.331 23.305L7.331 23.305Q8.297 23.725 8.864 23.893Q9.431 24.061 9.767 23.935Q10.103 23.809 10.271 23.221L10.271 23.221Q10.355 22.885 10.607 22.255L10.607 22.255L10.817 21.751Q11.279 21.751 12.119 21.688Q12.959 21.625 13.421 21.625L13.421 21.625Q13.505 21.625 13.568 21.688Q13.631 21.751 13.715 21.751L13.715 21.751L14.345 23.221Q14.555 23.599 14.912 23.725Q15.269 23.851 15.647 23.725L15.647 23.725L18.293 22.549Q18.713 22.339 18.860 21.982Q19.007 21.625 18.797 21.247L18.797 21.247L18.167 19.819Q18.167 19.525 18.293 19.525L18.293 19.525Q18.545 19.357 18.965 18.895L18.965 18.895L19.217 18.601Q19.343 18.475 19.595 18.160Q19.847 17.845 20.015 17.719L20.015 17.719Q20.309 17.761 20.939 18.055L20.939 18.055L21.443 18.223Q21.947 18.433 22.325 18.244Q22.703 18.055 22.871 17.551L22.871 17.551Q22.997 17.257 23.249 16.585L23.249 16.585Q23.669 15.619 23.795 15.073L23.795 15.073Q24.257 13.981 23.165 13.645ZM13.967 16.375L13.967 16.375Q12.077 17.173 10.250 16.459Q8.423 15.745 7.541 13.897L7.541 13.897Q6.743 12.007 7.457 10.180Q8.171 8.353 10.019 7.471L10.019 7.471Q11.909 6.673 13.736 7.387Q15.563 8.101 16.445 9.949L16.445 9.949Q17.243 11.839 16.529 13.666Q15.815 15.493 13.967 16.375Z"/></svg>