<?xml version="1.0" encoding="UTF-8"?>
<svg xmlns="http://www.w3.org/2000/svg" width="32" height="32" viewBox="0 0 24 24" fill="#666666"><path d="M23.919 0.975L23.919 0.975Q23.919 0.926 23.772 0.828L23.772 0.828L23.674 0.730L23.527 0.730L21.469 1.661Q17.353 3.425 11.963 3.768L11.963 3.768L7.553 4.062Q5.299 4.209 4.123 4.111L4.123 4.111Q2.261 3.964 0.742 3.278L0.742 3.278Q1.330 4.552 0.056 5.091L0.056 5.091L0.056 5.238L0.301 5.385Q0.644 5.581 0.840 5.630L0.840 5.630L1.085 5.679Q1.722 5.875 2.016 6.120L2.016 6.120Q2.702 6.610 2.898 7.247L2.898 7.247Q2.947 7.394 3.290 7.394L3.290 7.394L3.633 7.443Q4.564 7.492 5.030 7.467Q5.495 7.443 5.814 7.590Q6.132 7.737 6.083 8.031Q6.034 8.325 5.691 8.595Q5.348 8.864 4.981 8.962Q4.613 9.060 3.878 9.011L3.878 9.011L3.437 8.962Q3.094 8.913 2.972 9.035Q2.849 9.158 2.996 9.501L2.996 9.501Q3.045 9.697 3.094 10.187L3.094 10.187L3.143 10.481L5.985 10.481L5.789 14.499L3.584 14.352L3.486 13.764L4.662 12.882Q4.025 12.441 3.070 12.416Q2.114 12.392 1.036 12.833L1.036 12.833L1.281 13.029Q1.575 13.323 1.771 13.421L1.771 13.421Q2.212 13.764 2.188 13.985Q2.163 14.205 1.575 14.499L1.575 14.499Q2.065 15.332 2.163 16.410L2.163 16.410Q2.261 17.145 2.163 18.419L2.163 18.419Q2.163 18.517 2.016 18.738Q1.869 18.958 1.869 19.056L1.869 19.056L1.820 19.252Q1.624 19.987 1.771 20.134L1.771 20.134Q1.967 20.330 2.016 20.624L2.016 20.624Q2.065 20.820 2.016 21.163L2.016 21.163L2.016 21.506Q2.065 21.849 2.016 22.143L2.016 22.143Q1.918 22.731 2.555 22.682L2.555 22.682L3.731 22.682L3.437 20.428L5.397 20.428L5.152 22.437L7.602 22.437L7.602 20.232L8.925 20.134L8.925 22.290L10.395 22.290L10.395 21.702L10.444 21.065Q10.542 20.232 10.542 19.791L10.542 19.791Q10.542 19.546 10.469 19.130Q10.395 18.713 10.346 18.517L10.346 18.517L10.297 17.880Q10.199 17.145 10.199 16.753L10.199 16.753Q10.199 16.116 10.444 15.626L10.444 15.626Q10.836 14.940 10.297 14.597L10.297 14.597Q10.199 14.548 10.224 14.278Q10.248 14.009 10.371 13.837Q10.493 13.666 10.934 13.323L10.934 13.323L11.179 13.078Q9.562 12.441 7.945 13.078L7.945 13.078L8.974 14.352L8.827 14.548L7.406 14.548L7.406 10.383L15.148 9.942L14.903 14.254L13.629 14.254L13.629 13.372L14.854 12.441Q12.992 11.608 10.983 12.392L10.983 12.392L11.816 13.274Q12.110 13.568 12.086 13.715Q12.061 13.862 11.865 14.107L11.865 14.107L11.620 14.352Q11.767 14.499 11.743 14.842Q11.718 15.185 11.767 15.381Q11.816 15.577 12.061 15.724L12.061 15.724Q12.159 15.724 12.110 16.018L12.110 16.018L12.110 16.753Q12.110 17.929 12.061 18.566L12.061 18.566Q12.061 18.909 11.669 19.448L11.669 19.448L11.816 20.134Q11.963 20.967 11.963 21.359L11.963 21.359Q12.012 22.094 11.914 22.682L11.914 22.682Q11.865 22.780 12.012 23.074L12.012 23.074L12.110 23.270L13.972 23.270L13.727 20.673L15.050 20.673L15.050 22.878L17.696 22.878L17.451 20.526L18.627 20.526L18.627 22.633L18.872 22.731Q19.656 22.780 19.901 22.755Q20.146 22.731 20.195 22.486Q20.244 22.241 20.244 21.506L20.244 21.506L20.244 21.457Q20.195 21.016 20.342 20.134L20.342 20.134L20.440 19.399Q20.440 19.252 20.440 19.154L20.440 19.154Q19.999 18.419 19.999 17.439L19.999 17.439Q20.048 16.851 20.244 15.724L20.244 15.724L20.244 15.577Q20.293 15.332 20.195 14.793L20.195 14.793L20.097 14.401L20.048 13.764L21.175 12.784Q19.313 12.098 17.598 12.784L17.598 12.784Q17.696 13.029 18.113 13.299Q18.529 13.568 18.627 13.715L18.627 13.715Q18.823 14.009 18.725 14.401L18.725 14.401L17.402 14.401Q17.304 14.401 17.182 14.328Q17.059 14.254 17.059 14.156L17.059 14.156L16.471 9.942L20.391 9.599L20.440 9.158Q20.587 8.521 20.587 8.178L20.587 8.178Q20.587 8.080 20.416 7.957Q20.244 7.835 20.146 7.835L20.146 7.835L20.146 7.835Q18.872 7.884 18.333 8.080L18.333 8.080Q17.892 8.227 17.500 8.080L17.500 8.080Q17.255 7.982 16.863 7.688L16.863 7.688L16.618 7.541L16.716 7.345Q16.814 7.051 16.912 6.953L16.912 6.953Q17.157 6.610 17.353 6.561L17.353 6.561L20.097 6.169Q20.538 6.071 20.587 5.924L20.587 5.924Q20.783 5.189 21.371 4.846L21.371 4.846Q21.714 4.601 22.547 4.356L22.547 4.356L23.919 3.915L23.919 3.670Q23.968 2.102 23.919 0.975ZM5.544 15.871L5.544 18.860Q4.662 18.909 3.535 19.007L3.535 19.007L3.535 15.724L5.544 15.871ZM7.406 15.871L8.925 15.871Q8.925 16.116 8.925 16.655L8.925 16.655Q8.925 17.880 8.925 18.517L8.925 18.517Q8.925 18.811 8.778 18.860Q8.631 18.909 8.386 18.860L8.386 18.860L8.043 18.860Q7.749 18.909 7.602 18.860Q7.455 18.811 7.455 18.468L7.455 18.468L7.406 15.871ZM8.141 8.668L8.141 8.668Q7.553 8.521 7.553 8.129L7.553 8.129Q7.553 7.835 7.896 7.345L7.896 7.345L9.660 7.198L9.905 8.668L9.317 8.717Q8.484 8.766 8.141 8.668ZM14.952 15.724L14.952 19.154L13.727 19.154L13.727 15.724L14.952 15.724ZM17.304 15.773L18.725 15.724L18.725 19.007L17.500 19.105L17.304 15.773ZM12.600 8.423L12.600 8.423Q12.551 7.688 12.649 7.394Q12.747 7.100 13.139 6.977Q13.531 6.855 14.658 6.806L14.658 6.806L15.197 7.492Q14.756 8.178 14.021 8.374L14.021 8.374Q13.482 8.521 12.600 8.423Z"/></svg>