<?xml version="1.0" encoding="UTF-8"?>
<svg xmlns="http://www.w3.org/2000/svg" width="32" height="32" viewBox="0 0 24 24" fill="#666666"><path d="M23.232 11.712L23.232 11.712Q23.232 17.760 19.464 20.880Q15.696 24 8.400 24L8.400 24L0.768 24L0.768 0L9.312 0Q16.032 0 19.632 3.168L19.632 3.168Q21.456 4.608 22.344 6.792Q23.232 8.976 23.232 11.712ZM17.232 11.856L17.232 11.856Q17.232 4.032 9.456 4.032L9.456 4.032L6.432 4.032L6.432 19.776L9.024 19.776Q13.152 19.776 15.192 17.832Q17.232 15.888 17.232 11.856Z"/></svg>