<?xml version="1.0" encoding="UTF-8"?>
<svg xmlns="http://www.w3.org/2000/svg" width="32" height="32" viewBox="0 0 24 24" fill="#666666"><path d="M23.802 23.151L23.802 0.849L0.198 0.849L0.198 23.151L23.802 23.151ZM13.848 16.977L13.848 16.977L12.546 16.977Q12.336 16.977 12.273 16.956Q12.210 16.935 12.126 16.725L12.126 16.725Q12 16.263 11.664 15.276Q11.328 14.289 11.202 13.827L11.202 13.827Q11.202 13.743 11.097 13.659Q10.992 13.575 10.824 13.575L10.824 13.575L8.052 13.575Q7.884 13.575 7.758 13.743L7.758 13.743L7.674 13.827L6.876 16.725Q6.876 16.809 6.792 16.893Q6.708 16.977 6.624 16.977L6.624 16.977L5.196 16.977Q4.986 16.977 4.944 16.914Q4.902 16.851 4.902 16.725L4.902 16.725Q5.154 15.885 5.616 14.289L5.616 14.289Q6.078 12.441 6.372 11.601L6.372 11.601Q6.624 10.635 7.212 8.598Q7.800 6.561 8.052 5.595L8.052 5.595L8.136 5.469Q8.178 5.301 8.241 5.259Q8.304 5.217 8.472 5.301L8.472 5.301L10.446 5.301Q10.572 5.301 10.635 5.343Q10.698 5.385 10.698 5.595L10.698 5.595Q11.034 6.561 11.622 8.598Q12.210 10.635 12.546 11.601L12.546 11.601L14.100 16.725Q14.184 16.935 14.163 16.956Q14.142 16.977 13.848 16.977ZM17.796 16.347L17.796 16.347Q17.796 16.809 17.712 16.893Q17.628 16.977 17.124 16.977L17.124 16.977L16.200 16.977Q15.990 16.977 15.969 16.956Q15.948 16.935 15.948 16.725L15.948 16.725L15.948 8.199Q15.948 7.989 16.032 7.905Q16.116 7.821 16.200 7.947L16.200 7.947L17.376 7.947Q17.544 7.947 17.586 8.010Q17.628 8.073 17.628 8.199L17.628 8.199Q17.754 10.971 17.796 16.347ZM16.872 7.023L16.872 7.023Q16.452 7.023 16.137 6.750Q15.822 6.477 15.822 6.078Q15.822 5.679 16.095 5.364Q16.368 5.049 16.809 5.049Q17.250 5.049 17.586 5.322Q17.922 5.595 17.922 5.973L17.922 5.973Q17.922 6.477 17.628 6.750Q17.334 7.023 16.872 7.023ZM9.648 7.821L9.648 7.821Q9.648 7.695 9.564 7.695Q9.480 7.695 9.396 7.821L9.396 7.821Q9.396 7.863 9.312 7.989Q9.228 8.115 9.228 8.199L9.228 8.199Q8.724 10.551 8.304 11.601L8.304 11.601Q8.346 11.895 8.472 11.895L8.472 11.895L10.278 11.895Q10.488 11.895 10.509 11.811Q10.530 11.727 10.446 11.601L10.446 11.601Q10.236 9.543 9.648 7.821Z"/></svg>