<?xml version="1.0" encoding="UTF-8"?>
<svg xmlns="http://www.w3.org/2000/svg" width="32" height="32" viewBox="0 0 24 24" fill="#666666"><path d="M23.839 13.145L23.877 13.145Q23.877 13.677 23.687 14.551L23.687 14.551L23.611 14.817L7.955 14.817Q6.397 14.817 6.397 16.375L6.397 16.375Q6.397 16.983 6.834 17.325Q7.271 17.667 8.069 17.667L8.069 17.667L22.547 17.667Q21.141 20.365 18.842 21.923Q16.543 23.481 13.484 23.842Q10.425 24.203 7.537 23.025L7.537 23.025Q4.763 21.847 2.825 19.529Q0.887 17.211 0.355 14.209L0.355 14.209Q-0.253 11.131 0.735 8.205L0.735 8.205Q1.723 5.355 3.927 3.284Q6.131 1.213 9.133 0.453L9.133 0.453Q11.603-0.193 14.130 0.263Q16.657 0.719 18.785 2.163Q20.913 3.607 22.205 5.773L22.205 5.773Q21.939 5.925 21.255 5.925L21.255 5.925L13.541 5.925Q12.895 5.925 12.496 6.324Q12.097 6.723 12.097 7.350Q12.097 7.977 12.439 8.300Q12.781 8.623 13.427 8.623L13.427 8.623L23.383 8.623Q23.725 9.535 23.725 10.409L23.725 10.409L10.805 10.409Q9.133 10.409 9.133 11.853L9.133 11.853Q9.133 12.461 9.570 12.803Q10.007 13.145 10.805 13.145L10.805 13.145L22.775 13.145Q23.307 12.993 23.839 13.145L23.839 13.145Z"/></svg>