<?xml version="1.0" encoding="UTF-8"?>
<svg xmlns="http://www.w3.org/2000/svg" width="32" height="32" viewBox="0 0 24 24" fill="#666666"><path d="M4.661 20.860L21.083 4.480Q21.335 3.934 21.335 3.682L21.335 3.682Q21.167 2.968 20.600 2.779Q20.033 2.590 19.361 3.010L19.361 3.010L16.715 5.656Q16.589 5.782 16.211 5.782L16.211 5.782Q13.943 4.900 11.738 4.921Q9.533 4.942 7.307 5.908L7.307 5.908Q3.191 7.714 0.335 12.082L0.335 12.082Q0.125 12.502 0.146 12.817Q0.167 13.132 0.461 13.384L0.461 13.384Q1.469 14.602 2.687 15.610L2.687 15.610Q3.485 16.282 5.039 17.332L5.039 17.332Q4.997 17.332 4.934 17.395Q4.871 17.458 4.787 17.458L4.787 17.458L4.115 18.088Q3.317 18.886 2.939 19.306L2.939 19.306Q2.519 19.768 2.687 20.482L2.687 20.482Q2.897 21.112 3.611 21.280L3.611 21.280Q4.283 21.280 4.661 20.860L4.661 20.860ZM7.811 14.560L6.887 15.484L6.635 15.484Q4.241 14.182 2.687 12.502L2.687 12.502Q4.955 9.520 7.559 8.134L7.559 8.134Q5.627 11.410 7.811 14.560L7.811 14.560ZM12.809 8.302L12.809 8.302Q12.599 8.932 11.885 8.932L11.885 8.932Q11.003 8.932 10.373 9.478Q9.743 10.024 9.659 10.906L9.659 10.906L9.659 11.284Q9.659 11.662 9.428 11.872Q9.197 12.082 8.840 12.082Q8.483 12.082 8.273 11.830Q8.063 11.578 8.063 11.158L8.063 11.158Q8.063 9.562 9.197 8.407Q10.331 7.252 11.885 7.252L11.885 7.252Q12.347 7.252 12.620 7.567Q12.893 7.882 12.809 8.302ZM23.561 11.956L23.561 11.956Q23.225 11.578 22.574 10.717Q21.923 9.856 21.587 9.478L21.587 9.478Q21.335 9.142 20.684 8.554Q20.033 7.966 19.739 7.630L19.739 7.630L18.185 9.184Q20.033 10.654 21.335 12.502L21.335 12.502Q21.083 12.754 20.957 12.754L20.957 12.754Q20.159 13.510 19.739 13.804L19.739 13.804Q15.623 17.122 10.961 16.534L10.961 16.534Q10.583 16.534 10.415 16.702L10.415 16.702Q9.911 17.206 9.659 17.584L9.659 17.584L8.861 18.382L8.987 18.382Q12.137 19.054 14.615 18.508L14.615 18.508Q19.739 17.626 23.561 13.132L23.561 13.132Q24.149 12.754 23.561 11.956Z"/></svg>