<?xml version="1.0" encoding="UTF-8"?>
<svg xmlns="http://www.w3.org/2000/svg" width="32" height="32" viewBox="0 0 24 24" fill="#666666"><path d="M16.968 17.184L15.132 15.456L7.032 15.456L8.868 17.184L16.968 17.184ZM8.868 11.136L7.032 12.864L15.132 12.864L16.968 11.136L8.868 11.136ZM16.968 8.544L15.132 6.816L7.032 6.816L8.868 8.544L16.968 8.544ZM2.244 14.160L6.168 10.236L4.944 9.012L0.408 13.548Q0.156 13.800 0.156 14.160Q0.156 14.520 0.408 14.772L0.408 14.772L4.944 19.308L6.168 18.084L2.244 14.160ZM23.592 9.228L23.592 9.228L19.056 4.692L17.832 5.916L21.756 9.840L17.832 13.764L19.056 14.988L23.592 10.452Q23.844 10.200 23.844 9.840Q23.844 9.480 23.592 9.228Z"/></svg>