<?xml version="1.0" encoding="UTF-8"?>
<svg xmlns="http://www.w3.org/2000/svg" width="32" height="32" viewBox="0 0 24 24" fill="#666666"><path d="M0.024 11.935L0.024 11.935Q0.024 9.398 0.841 7.377Q1.659 5.356 2.970 4.045Q4.282 2.733 6.216 1.873L6.216 1.873Q7.722 1.185 10.130 1.185L10.130 1.185Q12.151 1.185 13.763 2.002Q15.376 2.819 16.451 3.894L16.451 3.894L13.484 7.248L13.140 6.990Q12.409 6.431 12.021 6.302L12.021 6.302L11.549 6.173Q10.689 5.915 10.130 5.915L10.130 5.915Q9.184 5.915 8.367 6.302L8.367 6.302Q7.463 6.775 6.905 7.528Q6.346 8.280 5.959 9.441Q5.572 10.602 5.572 11.935L5.572 11.935Q5.572 15.031 6.905 16.364L6.905 16.364Q7.593 17.224 8.453 17.611Q9.313 17.998 10.387 17.998Q11.463 17.998 12.280 17.611L12.280 17.611Q13.183 17.138 13.742 16.364L13.742 16.364L16.709 19.761Q15.462 21.180 13.742 22.041L13.742 22.041Q12.151 22.814 10.130 22.814L10.130 22.814Q8.238 22.814 6.216 22.169L6.216 22.169Q4.411 21.567 2.992 20.148L2.992 20.148Q2.389 19.503 1.831 18.471L1.831 18.471Q1.530 17.869 0.970 16.537L0.970 16.537Q0.024 14.644 0.024 11.935ZM13.355 10.731L13.355 8.452L11.463 8.452L11.463 10.731L9.313 10.731L9.313 12.623L11.463 12.623L11.463 15.031L13.355 15.031L13.355 12.623L15.505 12.623L15.505 10.731L13.355 10.731ZM23.976 10.602L21.396 10.602L21.396 7.936L19.117 7.936L19.117 10.602L16.580 10.602L16.580 12.881L19.117 12.881L19.117 15.720L21.396 15.720L21.396 12.881L23.976 12.881L23.976 10.602Z"/></svg>