<?xml version="1.0" encoding="UTF-8"?>
<svg xmlns="http://www.w3.org/2000/svg" width="32" height="32" viewBox="0 0 24 24" fill="#666666"><path d="M20.197 0.406L20.197 0.406Q19.936 0.406 19.559 0.580L19.559 0.580Q19.037 0.754 18.515 1.218L18.515 1.218Q18.225 1.479 17.674 2.117L17.674 2.117Q16.079 3.828 14.948 6.119L14.948 6.119Q13.556 8.555 12.686 11.542L12.686 11.542Q12.309 12.992 12.309 13.920L12.309 13.920Q12.338 14.239 12.556 14.427Q12.773 14.616 13.034 14.558L13.034 14.558Q13.556 14.500 13.962 14.152L13.962 14.152Q14.223 13.920 14.658 13.427L14.658 13.427L14.774 13.282L14.774 12.992Q14.223 13.543 13.962 13.717L13.962 13.717Q13.759 13.862 13.629 13.804Q13.498 13.746 13.498 13.543L13.498 13.543L13.498 12.644Q13.498 11.223 14.136 9.454L14.136 9.454Q14.861 7.482 15.325 6.583L15.325 6.583Q16.427 4.176 17.848 2.755L17.848 2.755Q18.573 1.624 19.849 1.508L19.849 1.508Q20.197 1.508 20.400 1.595Q20.603 1.682 20.661 1.943L20.661 1.943Q20.661 2.030 20.748 2.030L20.748 2.030L20.806 2.001Q20.864 1.943 20.922 1.943L20.922 1.943Q21.125 1.392 21.125 1.116Q21.125 0.841 20.835 0.594Q20.545 0.348 20.197 0.406ZM11.149 9.570L11.149 9.570Q10.685 9.570 10.076 9.990Q9.467 10.411 9.235 10.817L9.235 10.817L9.235 11.020L9.322 10.991L9.438 10.904L9.496 10.817Q9.670 10.614 9.786 10.556L9.786 10.556Q9.960 10.382 10.076 10.324L10.076 10.324Q10.250 10.237 10.424 10.295Q10.598 10.353 10.642 10.556Q10.685 10.759 10.598 10.904L10.598 10.904Q10.511 11.890 10.221 13.572L10.221 13.572L10.134 13.920Q9.525 16.298 8.713 17.806L8.713 17.806Q7.495 20.213 5.987 21.605L5.987 21.605Q5.465 22.040 5.088 22.243L5.088 22.243Q4.566 22.504 4.073 22.504L4.073 22.504Q3.725 22.504 3.566 22.402Q3.406 22.301 3.348 21.982L3.348 21.982Q3.348 21.924 3.261 21.866L3.261 21.866L3.174 21.779Q2.768 22.330 2.913 22.968Q3.058 23.606 3.435 23.606L3.435 23.606Q3.899 23.606 4.450 23.432L4.450 23.432Q4.798 23.316 5.175 23.026L5.175 23.026Q5.378 22.852 5.784 22.446L5.784 22.446L5.987 22.243Q7.553 20.677 8.713 18.531L8.713 18.531Q10.482 15.486 11.410 12.180L11.410 12.180L11.468 12.035Q11.613 11.397 11.671 11.078L11.671 11.078Q11.758 10.556 11.700 10.092L11.700 10.092Q11.700 9.889 11.526 9.729Q11.352 9.570 11.149 9.570Z"/></svg>