<?xml version="1.0" encoding="UTF-8"?>
<svg xmlns="http://www.w3.org/2000/svg" width="32" height="32" viewBox="0 0 24 24" fill="#666666"><path d="M13.806 5.334L12.086 3.829L10.237 5.291Q9.463 5.248 8.345 5.420L8.345 5.420Q7.098 5.592 6.367 5.850L6.367 5.850Q5.808 5.463 5.163 4.990L5.163 4.990L4.647 4.603L3.486 6.495Q2.282 7.140 1.594 7.785L1.594 7.785L0.089 7.140L0.562 8.129Q1.207 9.591 1.637 10.236L1.637 10.236Q2.325 11.311 3.228 11.913L3.228 11.913Q4.174 10.408 6.711 9.634L6.711 9.634Q9.033 8.903 11.979 8.946Q14.924 8.989 17.289 9.720L17.289 9.720Q19.826 10.537 20.815 11.870L20.815 11.870Q21.890 11.311 22.707 9.978L22.707 9.978Q23.137 9.204 23.825 7.441L23.825 7.441L23.911 7.226Q23.051 7.527 22.277 7.785L22.277 7.785Q22.019 7.527 21.524 7.140Q21.030 6.753 20.600 6.495L20.600 6.495L19.482 4.560L17.762 5.764Q15.053 5.248 13.806 5.334L13.806 5.334ZM1.035 11.053L1.035 11.053L3.185 16.299Q4.561 18.105 6.926 19.137L6.926 19.137Q9.205 20.126 11.849 20.169Q14.494 20.212 16.816 19.266L16.816 19.266Q19.267 18.277 20.772 16.385L20.772 16.385L23.137 11.010Q21.890 12.816 19.224 14.321L19.224 14.321Q18.751 14.579 17.676 14.794L17.676 14.794L16.687 14.966L12.043 12.558L7.356 14.923L6.367 14.751Q5.292 14.493 4.819 14.278L4.819 14.278Q3.658 13.676 2.755 12.859L2.755 12.859Q1.895 12.128 1.035 11.053L1.035 11.053Z"/></svg>