<?xml version="1.0" encoding="UTF-8"?>
<svg xmlns="http://www.w3.org/2000/svg" width="32" height="32" viewBox="0 0 24 24" fill="#666666"><path d="M20.167 0.198L20.167 0.198Q19.915 0.450 19.621 0.744L19.621 0.744Q18.907 1.374 18.067 1.962L18.067 1.962Q16.849 2.718 15.505 3.138L15.505 3.138Q13.783 3.684 11.977 3.684Q10.171 3.684 8.491 3.138L8.491 3.138Q7.147 2.718 5.929 1.962L5.929 1.962Q5.089 1.374 4.375 0.744L4.375 0.744L3.829 0.198L3.367 0.996Q2.821 2.004 2.359 3.054L2.359 3.054Q1.729 4.566 1.435 5.994L1.435 5.994Q1.015 7.800 1.099 9.354L1.099 9.354Q1.267 11.790 1.981 13.722L1.981 13.722Q2.863 16.116 4.753 18.258L4.753 18.258Q7.357 21.156 11.977 23.802L11.977 23.802Q16.219 21.408 18.739 18.804L18.739 18.804Q20.923 16.536 21.931 13.974L21.931 13.974Q22.729 11.916 22.897 9.354L22.897 9.354Q23.065 6.540 21.637 3.054L21.637 3.054Q20.923 1.332 20.167 0.198L20.167 0.198ZM4.249 2.676L4.249 2.676Q5.047 3.264 5.887 3.684L5.887 3.684Q4.207 4.272 3.115 5.658L3.115 5.658Q3.577 4.104 4.249 2.676ZM19.369 15.528L19.369 15.528Q18.277 17.208 16.555 18.720L16.555 18.720L16.555 17.334L15.001 17.334L15.001 20.022Q13.993 20.778 12.775 21.534L12.775 21.534L12.775 19.266L11.221 19.266L11.221 21.534Q10.087 20.820 8.995 20.022L8.995 20.022L8.995 17.334L7.441 17.334L7.441 18.720Q6.643 18.048 5.929 17.250L5.929 17.250Q4.417 15.528 3.619 13.638L3.619 13.638Q4.795 14.772 6.391 15.171Q7.987 15.570 9.541 15.066L9.541 15.066L11.977 17.544L14.455 15.066Q16.009 15.570 17.605 15.171Q19.201 14.772 20.377 13.638L20.377 13.638Q19.957 14.646 19.369 15.528ZM11.977 15.318L11.053 14.394Q11.557 14.058 11.977 13.638L11.977 13.638Q12.439 14.058 12.943 14.394L12.943 14.394L11.977 15.318ZM16.177 13.806L16.177 13.806Q14.749 13.806 13.594 12.966Q12.439 12.126 11.977 10.782L11.977 10.782Q11.473 12.336 10.087 13.155Q8.701 13.974 7.084 13.722Q5.467 13.470 4.417 12.231Q3.367 10.992 3.367 9.375Q3.367 7.758 4.417 6.519Q5.467 5.280 7.084 5.007Q8.701 4.734 10.087 5.574Q11.473 6.414 11.977 7.926L11.977 7.926Q12.523 6.330 14.014 5.511Q15.505 4.692 17.164 5.049Q18.823 5.406 19.810 6.792Q20.797 8.178 20.608 9.858Q20.419 11.538 19.159 12.672Q17.899 13.806 16.177 13.806ZM18.109 3.684L18.109 3.684Q18.949 3.264 19.747 2.676L19.747 2.676Q20.419 4.104 20.881 5.658L20.881 5.658Q19.789 4.272 18.109 3.684ZM5.593 9.354L5.593 9.354Q5.593 10.278 6.244 10.929Q6.895 11.580 7.798 11.580Q8.701 11.580 9.352 10.929Q10.003 10.278 10.003 9.354Q10.003 8.430 9.352 7.800Q8.701 7.170 7.798 7.170Q6.895 7.170 6.244 7.800Q5.593 8.430 5.593 9.354ZM13.993 9.354L13.993 9.354Q13.993 10.278 14.644 10.929Q15.295 11.580 16.198 11.580Q17.101 11.580 17.752 10.929Q18.403 10.278 18.403 9.354Q18.403 8.430 17.752 7.800Q17.101 7.170 16.198 7.170Q15.295 7.170 14.644 7.800Q13.993 8.430 13.993 9.354Z"/></svg>