<?xml version="1.0" encoding="UTF-8"?>
<svg xmlns="http://www.w3.org/2000/svg" width="32" height="32" viewBox="0 0 24 24" fill="#666666"><path d="M21.348 23.894L21.348 23.894L2.652 23.894Q2.386 23.894 2.234 23.723Q2.082 23.552 2.082 23.324L2.082 23.324L2.082 0.714Q2.082 0.486 2.234 0.315Q2.386 0.144 2.652 0.144L2.652 0.144L21.348 0.144Q21.576 0.144 21.747 0.315Q21.918 0.486 21.918 0.714L21.918 0.714L21.918 23.324Q21.918 23.552 21.766 23.723Q21.614 23.894 21.348 23.894ZM11.620 14.546L11.620 0.106L12.380 0.106L12.380 14.546L11.620 14.546ZM11.810 1.778L11.810 0.980L14.128 0.980L14.128 1.778L11.810 1.778ZM11.810 3.412L11.810 2.614L14.128 2.614L14.128 3.412L11.810 3.412ZM11.810 5.084L11.810 4.286L14.128 4.286L14.128 5.084L11.810 5.084ZM11.810 6.718L11.810 5.920L14.128 5.920L14.128 6.718L11.810 6.718ZM11.810 8.390L11.810 7.592L14.128 7.592L14.128 8.390L11.810 8.390ZM11.810 10.024L11.810 9.264L14.128 9.264L14.128 10.024L11.810 10.024ZM11.810 11.696L11.810 10.898L14.128 10.898L14.128 11.696L11.810 11.696ZM11.810 13.330L11.810 12.532L14.128 12.532L14.128 13.330L11.810 13.330ZM9.796 2.538L9.796 1.740L12.152 1.740L12.152 2.538L9.796 2.538ZM9.796 4.172L9.796 3.412L12.152 3.412L12.152 4.172L9.796 4.172ZM9.796 5.844L9.796 5.046L12.152 5.046L12.152 5.844L9.796 5.844ZM9.796 7.516L9.796 6.718L12.152 6.718L12.152 7.516L9.796 7.516ZM9.796 9.150L9.796 8.352L12.152 8.352L12.152 9.150L9.796 9.150ZM9.796 10.822L9.796 10.024L12.152 10.024L12.152 10.822L9.796 10.822ZM9.796 12.456L9.796 11.658L12.152 11.658L12.152 12.456L9.796 12.456ZM9.796 0.904L9.796 0.106L12.152 0.106L12.152 0.904L9.796 0.904ZM9.796 14.090L9.796 13.330L12.152 13.330L12.152 14.090L9.796 14.090ZM14.812 19.410L14.812 19.410Q14.736 18.726 14.470 17.358L14.470 17.358L14.318 16.408L14.280 16.294Q14.090 15.914 13.558 15.724Q13.026 15.534 12.019 15.534Q11.012 15.534 10.461 15.724Q9.910 15.914 9.720 16.294L9.720 16.294L9.682 16.408L9.530 17.358Q9.264 18.726 9.188 19.410L9.188 19.410Q9.112 19.942 9.530 20.265Q9.948 20.588 10.746 20.626L10.746 20.626L13.254 20.626Q14.052 20.588 14.470 20.265Q14.888 19.942 14.812 19.410ZM12.038 18.308L12.038 18.308L11.962 18.308Q11.392 18.308 11.050 18.061Q10.708 17.814 10.689 17.377Q10.670 16.940 11.031 16.655Q11.392 16.370 11.962 16.408L11.962 16.408L11.962 16.408L12.038 16.370Q12.608 16.370 12.969 16.655Q13.330 16.940 13.311 17.377Q13.292 17.814 12.950 18.061Q12.608 18.308 12.038 18.308Z"/></svg>