<?xml version="1.0" encoding="UTF-8"?>
<svg xmlns="http://www.w3.org/2000/svg" width="32" height="32" viewBox="0 0 24 24" fill="#666666"><path d="M3.651 6.951L3.651 13.650L2.199 13.650L2.199 14.970L6.753 14.970L6.753 13.650L5.400 13.650L5.400 6.951L5.829 6.951Q6.456 6.951 6.753 7.017Q7.050 7.083 7.198 7.281Q7.347 7.479 7.479 7.974L7.479 7.974L8.700 7.974L8.502 5.598L0.450 5.598L0.153 9.327L1.374 9.327L1.374 8.799Q1.473 7.842 1.605 7.545L1.605 7.545Q1.770 7.149 2.100 7.050L2.100 7.050Q2.397 6.951 3.222 6.951L3.222 6.951L3.651 6.951ZM11.802 17.346L11.802 17.346L10.053 17.346L10.053 14.475L10.647 14.475Q11.076 14.475 11.191 14.508Q11.307 14.541 11.340 14.706Q11.373 14.871 11.373 15.399L11.373 15.399L11.373 15.927L12.627 15.927L12.627 11.670L11.373 11.670L11.373 12.198Q11.373 12.726 11.340 12.891Q11.307 13.056 11.191 13.089Q11.076 13.122 10.647 13.122L10.647 13.122L10.053 13.122L10.053 10.647L11.703 10.647Q12.462 10.647 12.809 10.812Q13.155 10.977 13.287 11.373L13.287 11.373Q13.386 11.703 13.452 12.495L13.452 12.495L14.673 12.495L14.376 9.195L7.149 9.195L7.149 10.548L8.172 10.548L8.172 17.148L7.149 17.148L7.149 18.501L14.475 18.501L14.871 15.795L13.551 15.795Q13.551 16.686 13.171 17.016Q12.792 17.346 11.802 17.346ZM17.874 14.970L17.874 13.749L17.379 13.749L18.897 11.472L20.448 13.749L20.151 13.749L20.151 14.871L23.847 14.871L23.847 13.650L23.352 13.650Q22.890 13.650 22.791 13.617Q22.692 13.584 22.626 13.452L22.626 13.452L20.151 9.822L21.801 7.446L21.900 7.347Q22.098 7.116 22.263 7.017L22.263 7.017Q22.527 6.852 22.923 6.852L22.923 6.852L23.451 6.852L23.451 5.499L20.250 5.499L20.250 6.720L20.778 6.720L20.679 6.852L19.425 8.601L18.072 6.951L18.402 6.951L18.402 5.499L14.673 5.499L14.673 6.951L15.201 6.951Q15.663 6.951 15.745 6.967Q15.828 6.984 15.927 7.149L15.927 7.149L18.072 10.350L16.224 13.122L15.927 13.452Q15.597 13.749 15.102 13.749L15.102 13.749L14.574 13.749L14.574 14.970L17.874 14.970Z"/></svg>