<?xml version="1.0" encoding="UTF-8"?>
<svg xmlns="http://www.w3.org/2000/svg" width="32" height="32" viewBox="0 0 24 24" fill="#666666"><path d="M11.488 18.832L11.488 18.832L11.200 18.832Q11.104 18.736 10.784 18.736L10.784 18.736L9.792 18.448Q9.568 18.288 9.504 18.128Q9.440 17.968 9.600 17.744L9.600 17.744Q9.792 17.456 10.016 16.848L10.016 16.848Q10.432 15.856 10.624 15.184L10.624 15.184Q10.848 14.224 10.688 13.360L10.688 13.360Q10.528 11.728 9.088 11.168Q7.648 10.608 6.912 9.840L6.912 9.840Q5.728 8.752 5.184 7.760L5.184 7.760Q4.544 6.544 4.608 5.136L4.608 5.136L19.392 5.136Q19.392 6.736 18.688 7.856L18.688 7.856Q17.472 10.032 14.912 11.152L14.912 11.152Q13.344 11.920 13.216 13.552L13.216 13.552Q13.120 14.480 13.472 15.568L13.472 15.568Q13.728 16.304 14.304 17.456L14.304 17.456Q14.528 17.872 14.448 18.048Q14.368 18.224 13.888 18.448L13.888 18.448L13.408 18.640Q13.248 18.704 12.896 18.752Q12.544 18.800 12.384 18.864L12.384 18.864L12 18.864Q11.840 18.672 11.488 18.832ZM24 9.360L24 9.936Q23.872 10.064 23.776 10.416L23.776 10.416Q23.744 10.576 23.712 10.640L23.712 10.640Q22.912 12.400 21.312 12.848L21.312 12.848Q20.288 13.104 20.288 14.352L20.288 14.352Q20.224 14.896 20.416 15.472L20.416 15.472Q20.512 15.856 20.800 16.560L20.800 16.560Q21.024 17.008 20.928 17.184Q20.832 17.360 20.288 17.456L20.288 17.456Q19.200 17.616 18.304 17.360L18.304 17.360Q17.824 17.200 18.112 16.752L18.112 16.752Q18.432 16.144 18.592 15.664L18.592 15.664Q18.784 15.056 18.688 14.448L18.688 14.448Q18.624 13.680 18.416 13.408Q18.208 13.136 17.696 13.040L17.696 13.040Q17.344 13.040 17.216 12.752L17.216 12.752Q17.248 12.752 17.296 12.704Q17.344 12.656 17.408 12.656L17.408 12.656Q19.616 11.824 20.896 9.552L20.896 9.552Q20.960 9.424 21.072 9.392Q21.184 9.360 21.408 9.360L21.408 9.360L24 9.360ZM0 10.160L0 9.232L2.496 9.232Q2.688 9.232 2.752 9.264Q2.816 9.296 2.912 9.456L2.912 9.456Q4.160 11.536 6.688 12.656L6.688 12.656Q6.656 12.688 6.560 12.736Q6.464 12.784 6.400 12.848L6.400 12.848Q5.792 13.072 5.552 13.472Q5.312 13.872 5.312 14.544L5.312 14.544Q5.312 15.344 5.792 16.336L5.792 16.336Q6.016 16.752 6.096 16.880Q6.176 17.008 6.160 17.120Q6.144 17.232 6.016 17.232L6.016 17.232Q4.640 17.840 3.296 17.232L3.296 17.232Q3.104 17.232 3.056 17.120Q3.008 17.008 3.104 16.752L3.104 16.752Q3.488 15.952 3.648 15.536L3.648 15.536Q3.872 14.864 3.792 14.256Q3.712 13.648 3.520 13.424Q3.328 13.200 2.816 13.040L2.816 13.040Q1.056 12.528 0.192 10.448L0.192 10.448Q0.160 10.416 0.144 10.288Q0.128 10.160 0 10.160L0 10.160Z"/></svg>