<?xml version="1.0" encoding="UTF-8"?>
<svg xmlns="http://www.w3.org/2000/svg" width="32" height="32" viewBox="0 0 24 24" fill="#666666"><path d="M23.825 5.486L23.825 5.486Q23.825 6.861 23.115 8.066Q22.406 9.270 21.202 10.000Q19.998 10.732 18.557 10.732Q17.117 10.732 15.913 10.044Q14.709 9.355 14.021 8.151Q13.333 6.948 13.333 5.486Q13.333 4.023 14.021 2.820Q14.709 1.616 15.913 0.928Q17.117 0.239 18.536 0.239Q19.955 0.239 21.159 0.928Q22.363 1.616 23.094 2.820Q23.825 4.023 23.825 5.486ZM4.862 0.111L9.291 0.111L9.291 19.332Q9.291 20.492 9.248 20.922L9.248 20.922Q9.205 21.568 9.011 22.041Q8.818 22.514 8.366 22.965Q7.915 23.416 7.399 23.632L7.399 23.632Q7.055 23.803 6.410 23.847L6.410 23.847Q6.023 23.890 4.733 23.890L4.733 23.890Q3.572 23.890 3.142 23.847L3.142 23.847Q2.497 23.803 2.024 23.610Q1.551 23.416 1.099 22.965Q0.648 22.514 0.433 21.998L0.433 21.998Q0.261 21.654 0.175 21.009L0.175 21.009Q0.175 20.579 0.175 19.332L0.175 19.332L0.175 4.797Q0.175 3.378 0.175 2.863L0.175 2.863Q0.261 2.088 0.454 1.701Q0.648 1.315 1.013 0.949Q1.379 0.584 1.809 0.390Q2.239 0.197 2.970 0.154L2.970 0.154Q3.443 0.111 4.862 0.111L4.862 0.111Z"/></svg>