<?xml version="1.0" encoding="UTF-8"?>
<svg xmlns="http://www.w3.org/2000/svg" width="32" height="32" viewBox="0 0 24 24" fill="#666666"><path d="M11.751 0.458L11.751 0.458Q11.681 0.458 11.646 0.493L11.646 0.493L11.436 0.633Q9.826 1.613 9.056 2.208L9.056 2.208Q7.761 3.293 7.446 4.273L7.446 4.273Q7.341 4.588 7.341 4.833L7.341 4.833Q7.341 4.973 7.411 5.288L7.411 5.288L7.446 5.393Q7.691 6.233 8.251 7.108L8.251 7.108Q8.391 7.388 8.793 7.895Q9.196 8.403 9.231 8.403L9.231 8.403Q11.156 7.178 12.136 6.233L12.136 6.233L12.136 3.538Q12.136 1.823 12.101 1.298Q12.066 0.773 11.978 0.633Q11.891 0.493 11.751 0.458ZM7.061 5.008L7.061 5.008Q6.956 5.008 6.868 5.463Q6.781 5.918 6.448 7.230Q6.116 8.543 5.906 9.208L5.906 9.208Q5.766 9.733 5.713 10.223Q5.661 10.713 5.766 10.853L5.766 10.853Q5.906 11.098 9.476 12.218L9.476 12.218Q10.246 12.463 10.491 12.445Q10.736 12.428 10.876 12.148L10.876 12.148L10.911 12.113Q11.051 11.833 11.033 11.640Q11.016 11.448 10.666 10.923L10.666 10.923Q10.386 10.538 9.406 9.208L9.406 9.208L9.266 8.963Q8.076 7.353 7.743 6.793Q7.411 6.233 7.271 5.498L7.271 5.498Q7.131 5.008 7.061 5.008ZM17.946 5.673L17.946 5.673Q17.806 5.673 17.666 5.673L17.666 5.673Q17.211 5.743 15.846 5.830Q14.481 5.918 13.816 5.953L13.816 5.953Q13.256 5.953 12.766 6.058Q12.276 6.163 12.171 6.303L12.171 6.303Q11.996 6.513 12.066 10.258L12.066 10.258Q12.066 11.063 12.153 11.290Q12.241 11.518 12.521 11.588L12.521 11.588L12.591 11.588Q12.906 11.658 13.081 11.570Q13.256 11.483 13.641 10.958L13.641 10.958Q13.921 10.608 14.901 9.278L14.901 9.278L15.076 9.033Q16.231 7.423 16.668 6.933Q17.106 6.443 17.736 6.058L17.736 6.058Q18.191 5.813 18.156 5.743Q18.121 5.673 17.946 5.673ZM18.961 5.883L18.961 5.883Q18.646 5.883 18.436 5.953L18.436 5.953Q18.261 5.988 18.016 6.163L18.016 6.163L17.911 6.198Q17.176 6.688 16.511 7.493L16.511 7.493Q16.301 7.738 15.933 8.280Q15.566 8.823 15.601 8.858L15.601 8.858Q17.351 10.328 18.576 10.923L18.576 10.923L21.131 10.118Q22.741 9.593 23.248 9.400Q23.756 9.208 23.861 9.068Q23.966 8.928 23.931 8.788L23.931 8.788Q23.896 8.718 23.861 8.718L23.861 8.718L23.686 8.543Q22.251 7.318 21.411 6.793L21.411 6.793Q20.011 5.883 18.961 5.883ZM0.411 9.243L0.411 9.243Q0.341 9.243 0.306 9.278L0.306 9.278Q0.131 9.313 0.096 9.453L0.096 9.453Q0.061 9.488 0.061 9.558L0.061 9.558L0.131 9.768Q0.586 11.623 0.901 12.533L0.901 12.533Q1.531 14.108 2.371 14.703L2.371 14.703Q2.651 14.913 2.861 14.983L2.861 14.983Q3.001 15.018 3.316 15.053L3.316 15.053L3.421 15.053Q4.296 15.088 5.311 14.843L5.311 14.843Q5.626 14.773 6.238 14.545Q6.851 14.318 6.851 14.283L6.851 14.283Q6.291 12.078 5.696 10.853L5.696 10.853L3.106 10.013Q0.761 9.243 0.411 9.243ZM18.506 11.028L18.471 10.993Q17.981 10.993 14.726 12.113L14.726 12.113Q13.956 12.358 13.763 12.515Q13.571 12.673 13.606 12.988L13.606 12.988L13.606 13.023Q13.641 13.338 13.781 13.478Q13.921 13.618 14.516 13.863L14.516 13.863Q14.936 14.003 16.546 14.493L16.546 14.493L16.791 14.598Q18.716 15.193 19.311 15.473Q19.906 15.753 20.466 16.243L20.466 16.243Q20.851 16.558 20.921 16.505Q20.991 16.453 20.798 16.033Q20.606 15.613 20.098 14.353Q19.591 13.093 19.381 12.463L19.381 12.463Q19.171 11.938 18.926 11.500Q18.681 11.063 18.506 11.028L18.506 11.028ZM10.421 13.583L10.421 13.583Q10.176 13.583 9.546 13.758L9.546 13.758Q9.126 13.898 7.656 14.353L7.656 14.353L7.411 14.458Q5.486 15.088 4.838 15.210Q4.191 15.333 3.456 15.263L3.456 15.263Q2.966 15.228 2.931 15.315Q2.896 15.403 3.316 15.630Q3.736 15.858 4.873 16.593Q6.011 17.328 6.571 17.713L6.571 17.713Q7.026 17.993 7.481 18.203Q7.936 18.413 8.111 18.378L8.111 18.378Q8.391 18.308 10.526 15.228L10.526 15.228Q11.016 14.563 11.086 14.335Q11.156 14.108 10.911 13.898L10.911 13.898L10.876 13.863Q10.736 13.688 10.648 13.635Q10.561 13.583 10.421 13.583ZM12.871 14.353L12.871 14.353Q12.766 14.353 12.591 14.423L12.591 14.423L12.556 14.458Q12.276 14.563 12.188 14.738Q12.101 14.913 12.066 15.543L12.066 15.543Q12.031 15.998 12.066 17.678L12.066 17.678L12.066 17.958Q12.066 19.953 11.996 20.618Q11.926 21.283 11.611 21.948L11.611 21.948Q11.436 22.403 11.506 22.455Q11.576 22.508 11.926 22.193Q12.276 21.878 13.308 21.020Q14.341 20.163 14.901 19.743L14.901 19.743Q15.321 19.393 15.653 19.025Q15.986 18.658 15.986 18.483L15.986 18.483Q16.021 18.203 13.781 15.228L13.781 15.228Q13.396 14.703 13.203 14.528Q13.011 14.353 12.871 14.353ZM17.141 15.053L17.141 15.053Q17.141 15.053 17.141 15.053L17.141 15.053L17.141 15.053Q16.301 17.188 16.091 18.518L16.091 18.518L17.666 20.688Q18.646 22.053 18.996 22.473Q19.346 22.893 19.503 22.963Q19.661 23.033 19.801 22.928L19.801 22.928Q19.836 22.928 19.836 22.858L19.836 22.858L19.941 22.648Q20.676 20.898 20.921 19.953L20.921 19.953Q21.341 18.343 21.026 17.328L21.026 17.328Q20.921 17.013 20.781 16.838L20.781 16.838Q20.676 16.698 20.466 16.488L20.466 16.488L20.361 16.418Q19.696 15.893 18.716 15.508L18.716 15.508Q18.436 15.403 17.841 15.210Q17.246 15.018 17.141 15.053ZM9.896 18.343L9.896 18.343Q8.881 18.378 8.111 18.483L8.111 18.483L6.536 20.653Q5.521 22.053 5.223 22.490Q4.926 22.928 4.926 23.103Q4.926 23.278 5.031 23.383L5.031 23.383Q5.066 23.418 5.136 23.418L5.136 23.418L5.381 23.418Q7.271 23.593 8.216 23.523L8.216 23.523Q9.896 23.453 10.736 22.823L10.736 22.823Q11.016 22.613 11.156 22.438L11.156 22.438Q11.226 22.298 11.366 22.018L11.366 22.018L11.401 21.913Q11.716 21.108 11.786 20.058L11.786 20.058Q11.821 19.743 11.786 19.095Q11.751 18.448 11.716 18.413L11.716 18.413Q10.666 18.343 9.896 18.343Z"/></svg>