<?xml version="1.0" encoding="UTF-8"?>
<svg xmlns="http://www.w3.org/2000/svg" width="32" height="32" viewBox="0 0 24 24" fill="#666666"><path d="M8.143 20.493L4.267 23.875L4.267 17.111L8.143 20.493ZM18.213 10.157L18.213 10.157Q19.163 11.069 19.505 12.399L19.505 12.399Q19.733 13.121 19.695 13.729L19.695 13.729L19.695 23.875L16.275 23.875L16.275 13.767Q16.275 13.045 15.857 12.589L15.857 12.589Q15.325 12.019 14.147 12.019L14.147 12.019Q11.943 12.019 9.131 12.893L9.131 12.893Q7.535 13.387 6.699 13.767L6.699 13.767L4.267 14.869L4.267 0.125L7.725 0.125L7.725 9.777Q11.297 8.637 14.147 8.637L14.147 8.637Q16.693 8.637 18.213 10.157ZM17.149 5.673L13.729 5.673Q15.705 3.051 16.275 0.125L16.275 0.125L19.733 0.125Q19.353 3.203 17.149 5.673L17.149 5.673Z"/></svg>