<?xml version="1.0" encoding="UTF-8"?>
<svg xmlns="http://www.w3.org/2000/svg" width="32" height="32" viewBox="0 0 24 24" fill="#666666"><path d="M16.344 11.229L16.344 11.229L15.197 10.640L15.197 10.640Q15.197 10.361 15.414 10.144Q15.631 9.927 15.894 9.927Q16.158 9.927 16.344 10.067Q16.530 10.206 16.607 10.423Q16.685 10.640 16.607 10.857Q16.530 11.074 16.344 11.229ZM22.389 4.502L22.389 4.502Q21.707 3.789 20.777 3.541Q19.847 3.293 18.917 3.510Q17.987 3.727 17.243 4.409L17.243 4.409Q17.150 4.502 17.150 4.657Q17.150 4.812 17.243 4.905L17.243 4.905L17.708 5.370Q17.801 5.463 17.940 5.479Q18.080 5.494 18.173 5.401L18.173 5.401Q18.731 4.998 19.444 4.998L19.444 4.998Q20.312 4.998 20.947 5.618Q21.583 6.238 21.583 7.122Q21.583 8.005 20.978 8.594Q20.374 9.183 19.661 9.276L19.661 9.276Q19.041 9.307 18.204 8.997L18.204 8.997Q17.677 8.780 16.499 8.191L16.499 8.191Q14.639 7.261 13.554 6.889L13.554 6.889Q11.694 6.238 9.834 6.331L9.834 6.331Q7.602 6.424 5.184 7.571L5.184 7.571Q4.719 7.788 4.548 8.300Q4.378 8.811 4.657 9.245L4.657 9.245L6.176 11.911Q6.424 12.345 6.904 12.469Q7.385 12.593 7.819 12.345L7.819 12.345L7.850 12.345L7.819 12.345L8.501 11.973L9.214 11.508Q10.020 10.950 10.640 10.392L10.640 10.392Q10.733 10.299 10.872 10.284Q11.012 10.268 11.136 10.361L11.136 10.361L11.136 10.361Q11.260 10.454 11.260 10.625Q11.260 10.795 11.136 10.888L11.136 10.888Q10.082 11.849 8.873 12.593L8.873 12.593L8.191 12.996Q7.478 13.368 6.718 13.167Q5.959 12.965 5.556 12.283L5.556 12.283L4.130 9.772Q1.929 11.322 0.968 13.988L0.968 13.988Q-0.086 16.840 0.565 20.312L0.565 20.312Q0.596 20.436 0.689 20.514Q0.782 20.591 0.906 20.591L0.906 20.591L2.549 20.591Q2.704 20.591 2.797 20.498Q2.890 20.405 2.921 20.281L2.921 20.281Q3.014 19.382 3.696 18.778Q4.378 18.173 5.292 18.173Q6.207 18.173 6.889 18.778Q7.571 19.382 7.695 20.281L7.695 20.281Q7.695 20.405 7.803 20.498Q7.912 20.591 8.036 20.591L8.036 20.591L9.648 20.591Q9.772 20.591 9.865 20.498Q9.958 20.405 9.989 20.281L9.989 20.281Q10.113 19.382 10.795 18.778Q11.477 18.173 12.376 18.173Q13.275 18.173 13.957 18.778Q14.639 19.382 14.763 20.281L14.763 20.281Q14.794 20.405 14.887 20.498Q14.980 20.591 15.104 20.591L15.104 20.591L16.685 20.591Q16.840 20.591 16.948 20.483Q17.057 20.374 17.057 20.250L17.057 20.250Q17.088 18.359 17.584 16.840L17.584 16.840Q18.204 15.042 19.413 14.143L19.413 14.143Q22.110 12.097 23.133 9.958L23.133 9.958Q23.939 8.253 23.567 6.610L23.567 6.610Q23.257 5.370 22.389 4.502Z"/></svg>