<?xml version="1.0" encoding="UTF-8"?>
<svg xmlns="http://www.w3.org/2000/svg" width="32" height="32" viewBox="0 0 24 24" fill="#666666"><path d="M12.464 0.865L12.226 1.001Q11.818 1.341 11.138 1.851L11.138 1.851Q9.982 2.769 9.540 3.177L9.540 3.177Q8.894 3.789 8.316 4.605L8.316 4.605Q7.772 5.387 7.636 6.849Q7.500 8.311 7.908 9.671L7.908 9.671Q8.384 11.201 9.370 11.949L9.370 11.949Q9.030 11.949 7.840 11.303L7.840 11.303L6.718 10.657L8.282 12.833Q10.016 15.145 10.764 15.859L10.764 15.859Q13.280 19.531 13.926 23.747L13.926 23.747Q14.402 20.245 12.668 17.049L12.668 17.049L12.668 16.947Q12.566 16.505 12.685 16.182Q12.804 15.859 13.178 15.553L13.178 15.553Q13.722 15.247 15.966 13.105L15.966 13.105L15.966 13.105L14.708 13.819Q13.382 14.533 12.974 14.601L12.974 14.601L13.756 13.785Q14.334 13.173 14.606 12.901L14.606 12.901Q15.082 12.459 15.524 12.153L15.524 12.153Q17.598 10.487 17.224 7.699L17.224 7.699Q17.224 7.359 17.054 6.747L17.054 6.747L17.020 6.543Q16.238 3.143 13.178 0.253L13.178 0.253Q12.940 0.559 12.464 0.865L12.464 0.865Z"/></svg>