<?xml version="1.0" encoding="UTF-8"?>
<svg xmlns="http://www.w3.org/2000/svg" width="32" height="32" viewBox="0 0 24 24" fill="#666666"><path d="M18.640 13.480L18.640 13.480Q19.560 13.480 20.220 12.840Q20.880 12.200 20.880 11.260Q20.880 10.320 20.220 9.660Q19.560 9 18.620 9Q17.680 9 17.020 9.660Q16.360 10.320 16.360 11.260Q16.360 12.200 17.020 12.840Q17.680 13.480 18.640 13.480ZM23.880 6.640L4.760 6.640L4.760 22.120L23.880 22.120L23.880 6.640ZM5.640 19L5.640 7.480L23 7.480L23 21L18.520 15.880L15.760 19.120L10.240 13.240L5.640 19ZM17.880 4L17.880 1.880L0.120 1.880L0.120 15.360L2.520 15.360L2.520 4L17.880 4Z"/></svg>