<?xml version="1.0" encoding="UTF-8"?>
<svg xmlns="http://www.w3.org/2000/svg" width="32" height="32" viewBox="0 0 24 24" fill="#666666"><path d="M23.692 12.305L16.958 13.119Q17.328 14.340 18.179 17.522L18.179 17.522L18.956 20.408L23.692 19.816L23.692 12.305ZM10.372 21.444L8.892 13.933L0.308 14.858L0.308 22.739L10.372 21.444ZM16.033 6.311L16.033 6.311Q15.589 7.236 15.219 7.569L15.219 7.569L15.922 9.900L23.581 8.975L22.989 8.087Q22.249 7.051 21.435 6.163L21.435 6.163Q20.288 4.942 19.178 4.239L19.178 4.239Q17.772 3.351 16.403 2.944L16.403 2.944Q16.810 4.461 16.033 6.311ZM7.708 10.011L7.708 10.011Q5.747 9.826 4.489 8.383L4.489 8.383L0.308 11.639L7.967 10.714Q7.893 10.566 7.838 10.344Q7.782 10.122 7.708 10.011ZM13.998 10.825L13.147 7.680Q13.073 7.421 13.092 7.236Q13.110 7.051 13.258 6.866L13.258 6.866Q13.739 6.200 13.961 5.719L13.961 5.719Q14.775 3.906 13.850 2.500L13.850 2.500Q12.851 0.835 10.853 1.205L10.853 1.205Q10.594 1.205 10.520 1.427Q10.446 1.649 10.631 1.908L10.631 1.908L11.667 3.980L11.667 4.091Q11.704 4.165 11.686 4.202Q11.667 4.239 11.556 4.239L11.556 4.239Q10.150 5.164 9.558 5.497L9.558 5.497Q9.410 5.682 9.225 5.497L9.225 5.497Q8.781 5.016 8.078 4.091L8.078 4.091Q7.930 3.980 7.708 3.795L7.708 3.795L7.486 3.647L7.301 3.610Q7.116 3.610 7.042 3.758L7.042 3.758Q6.561 4.535 6.450 5.497L6.450 5.497Q6.302 6.607 6.783 7.347L6.783 7.347Q7.671 8.716 9.225 8.716L9.225 8.716Q9.447 8.716 9.595 8.790Q9.743 8.864 9.817 9.086L9.817 9.086L10.335 11.417Q12.518 20.556 12.703 21.703L12.703 21.703Q12.777 22.221 13.110 22.572Q13.443 22.924 13.850 22.850L13.850 22.850L14.220 22.776Q14.960 22.702 15.293 22.591L15.293 22.591Q15.885 22.406 16.292 22.036L16.292 22.036Q16.921 21.407 16.736 20.519L16.736 20.519Q16.477 20.038 13.998 10.825L13.998 10.825Z"/></svg>