<?xml version="1.0" encoding="UTF-8"?>
<svg xmlns="http://www.w3.org/2000/svg" width="32" height="32" viewBox="0 0 24 24" fill="#666666"><path d="M9.606 0.870L9.606 0.870Q7.800 1.248 6.456 1.920L6.456 1.920Q6.498 3.390 6.624 4.524L6.624 4.524L6.288 4.734Q5.742 5.070 5.490 5.280L5.490 5.280L5.280 5.406Q4.692 5.910 4.398 6.162L4.398 6.162Q3.390 5.490 2.298 4.944L2.298 4.944Q0.996 6.372 0.198 7.716L0.198 7.716Q1.038 9.018 1.626 9.774L1.626 9.774L1.626 16.032L5.490 16.410Q5.658 16.410 5.763 16.515Q5.868 16.620 5.868 16.788L5.868 16.788L5.994 18.468L9.354 18.720L9.564 17.166Q9.606 16.998 9.711 16.893Q9.816 16.788 9.984 16.788L9.984 16.788L14.016 16.788Q14.184 16.788 14.289 16.893Q14.394 16.998 14.436 17.166L14.436 17.166L14.646 18.720L18.006 18.468L18.132 16.788Q18.132 16.620 18.237 16.515Q18.342 16.410 18.510 16.410L18.510 16.410L22.374 16.032L22.374 9.774Q23.088 8.850 23.802 7.716L23.802 7.716Q23.004 6.372 21.702 4.944L21.702 4.944Q20.610 5.490 19.602 6.162L19.602 6.162Q19.308 5.868 18.678 5.406L18.678 5.406L18.510 5.280Q18.258 5.070 17.712 4.734L17.712 4.734L17.334 4.524Q17.502 3.222 17.544 1.920L17.544 1.920Q16.200 1.248 14.394 0.870L14.394 0.870Q13.764 1.962 13.218 3.138L13.218 3.138Q12.630 3.054 12 3.054L12 3.054L12 3.054Q11.370 3.054 10.782 3.138L10.782 3.138Q10.236 1.962 9.606 0.870ZM6.582 10.026L6.582 10.026Q7.506 10.026 8.178 10.698Q8.850 11.370 8.850 12.315Q8.850 13.260 8.178 13.953Q7.506 14.646 6.561 14.646Q5.616 14.646 4.923 13.953Q4.230 13.260 4.230 12.315Q4.230 11.370 4.923 10.698Q5.616 10.026 6.582 10.026ZM17.418 10.026L17.418 10.026Q18.384 10.026 19.056 10.698Q19.728 11.370 19.728 12.315Q19.728 13.260 19.056 13.953Q18.384 14.646 17.439 14.646Q16.494 14.646 15.801 13.953Q15.108 13.260 15.108 12.315Q15.108 11.370 15.801 10.698Q16.494 10.026 17.418 10.026ZM12 11.370L12 11.370Q12.294 11.370 12.525 11.559Q12.756 11.748 12.756 12.042L12.756 12.042L12.756 14.184Q12.756 14.436 12.525 14.646Q12.294 14.856 12 14.856Q11.706 14.856 11.475 14.646Q11.244 14.436 11.244 14.184L11.244 14.184L11.244 12.042Q11.244 11.748 11.475 11.559Q11.706 11.370 12 11.370ZM22.374 16.872L18.930 17.208L18.804 18.888Q18.804 19.056 18.699 19.161Q18.594 19.266 18.426 19.266L18.426 19.266L14.310 19.560Q14.142 19.560 14.037 19.476Q13.932 19.392 13.890 19.224L13.890 19.224L13.680 17.628L10.320 17.628L10.110 19.224Q10.068 19.392 9.942 19.497Q9.816 19.602 9.648 19.560L9.648 19.560L5.574 19.266Q5.406 19.266 5.301 19.161Q5.196 19.056 5.196 18.888L5.196 18.888L5.070 17.208L1.626 16.872L1.626 17.712Q1.626 20.358 4.650 21.786L4.650 21.786Q7.464 23.130 12 23.130L12 23.130L12 23.130Q16.536 23.130 19.350 21.786L19.350 21.786Q22.374 20.358 22.374 17.712L22.374 17.712L22.374 16.872ZM8.304 12.462L8.304 12.462Q8.346 12.882 8.136 13.239Q7.926 13.596 7.569 13.827Q7.212 14.058 6.792 14.058Q6.372 14.058 6.015 13.827Q5.658 13.596 5.448 13.239Q5.238 12.882 5.238 12.462L5.238 12.462Q5.280 11.832 5.721 11.391Q6.162 10.950 6.792 10.950Q7.422 10.950 7.863 11.391Q8.304 11.832 8.304 12.462ZM15.696 12.462L15.696 12.462Q15.696 13.092 16.137 13.533Q16.578 13.974 17.208 13.974Q17.838 13.974 18.300 13.533Q18.762 13.092 18.762 12.462Q18.762 11.832 18.300 11.370Q17.838 10.908 17.208 10.908Q16.578 10.908 16.137 11.370Q15.696 11.832 15.696 12.462Z"/></svg>