<?xml version="1.0" encoding="UTF-8"?>
<svg xmlns="http://www.w3.org/2000/svg" width="32" height="32" viewBox="0 0 24 24" fill="#666666"><path d="M12.546 9.327L12.546 9.327Q9.858 9.327 7.884 9.201L7.884 9.201Q5.448 9.033 3.348 8.571L3.348 8.571Q2.844 8.487 1.920 8.109L1.920 8.109Q1.416 7.857 1.122 7.773L1.122 7.773Q0.576 7.605 0.576 6.975L0.576 6.975L0.576 2.397Q0.576 2.187 0.681 2.019Q0.786 1.851 0.954 1.851L0.954 1.851L1.374 1.683Q2.802 1.053 3.600 0.927L3.600 0.927Q5.784 0.423 8.472 0.255L8.472 0.255Q10.068 0.171 13.302 0.171L13.302 0.171Q17.712 0.171 21.198 1.095L21.198 1.095Q21.996 1.263 22.878 1.725L22.878 1.725Q23.424 1.893 23.424 2.523L23.424 2.523L23.424 7.101Q23.424 7.395 23.046 7.773L23.046 7.773Q21.996 8.277 21.450 8.445L21.450 8.445L19.602 8.739Q17.166 9.117 15.948 9.201L15.948 9.201Q15.360 9.285 14.205 9.285Q13.050 9.285 12.546 9.327ZM23.424 9.621L23.424 9.621L23.424 14.325Q23.424 14.535 23.193 14.766Q22.962 14.997 22.752 14.997L22.752 14.997L22.080 15.249Q20.820 15.669 20.274 15.795L20.274 15.795Q15.360 16.635 8.976 16.425L8.976 16.425L8.892 16.425Q6.792 16.299 5.700 16.173L5.700 16.173Q3.936 15.963 2.550 15.501L2.550 15.501Q2.004 15.375 0.996 14.871L0.996 14.871Q0.576 14.661 0.576 14.199L0.576 14.199L0.576 9.621Q3.180 10.503 6.288 10.839L6.288 10.839Q8.514 11.049 12 11.049L12 11.049Q15.150 11.175 17.712 10.881L17.712 10.881Q20.736 10.545 23.424 9.621ZM23.424 16.971L23.424 16.971L23.424 21.549Q23.424 21.759 23.193 21.990Q22.962 22.221 22.752 22.347L22.752 22.347Q21.702 22.725 21.198 22.893L21.198 22.893Q20.316 23.187 19.602 23.271L19.602 23.271Q11.580 24.447 3.726 23.145L3.726 23.145Q3.054 23.019 1.710 22.557L1.710 22.557L1.122 22.347Q0.828 22.263 0.702 22.053Q0.576 21.843 0.576 21.423L0.576 21.423L0.576 16.971Q3.096 17.853 6.204 18.189L6.204 18.189Q8.430 18.399 12 18.399L12 18.399Q15.486 18.399 17.712 18.189L17.712 18.189Q20.820 17.853 23.424 16.971Z"/></svg>