<?xml version="1.0" encoding="UTF-8"?>
<svg xmlns="http://www.w3.org/2000/svg" width="32" height="32" viewBox="0 0 24 24" fill="#666666"><path d="M23.787 11.131L23.787 11.131L23.787 10.501Q23.409 8.023 22.233 5.881L22.233 5.881Q21.057 4.117 19.461 2.731L19.461 2.731Q18.159 1.639 16.563 1.051L16.563 1.051Q11.355-0.965 6.483 1.555L6.483 1.555Q3.669 3.151 2.031 5.755L2.031 5.755Q1.107 7.183 0.645 8.569L0.645 8.569Q0.183 10.039 0.183 11.677L0.183 11.677L0.183 13.105Q0.561 16.171 2.031 18.481L2.031 18.481Q3.585 20.749 5.433 21.883L5.433 21.883Q6.903 22.891 8.163 23.227L8.163 23.227Q11.061 24.109 13.413 23.731L13.413 23.731Q19.965 22.765 22.737 16.801L22.737 16.801Q23.997 14.281 23.787 11.131ZM14.883 17.431L14.883 17.431Q14.169 17.809 13.287 17.893L13.287 17.893Q12.783 17.977 11.733 17.977L11.733 17.977Q9.717 17.977 7.533 16.633L7.533 16.633Q7.155 16.465 7.407 16.255L7.407 16.255L8.163 14.701L8.331 14.575L8.457 14.533Q9.927 15.667 11.985 15.877L11.985 15.877Q12.783 15.877 13.161 15.751L13.161 15.751Q13.833 15.583 14.085 14.827L14.085 14.827Q14.085 14.113 13.413 13.777L13.413 13.777Q12.657 13.357 11.061 12.853L11.061 12.853L10.893 12.811Q10.011 12.559 9.591 12.349L9.591 12.349Q8.835 12.013 8.457 11.551L8.457 11.551Q7.785 10.879 7.785 9.451L7.785 9.451Q7.869 7.939 8.835 7.057L8.835 7.057Q9.675 6.217 11.061 6.007L11.061 6.007Q13.665 5.629 15.933 7.057L15.933 7.057Q16.059 7.183 16.059 7.477L16.059 7.477L15.261 8.905Q15.219 9.031 15.177 9.052Q15.135 9.073 15.051 9.073L15.051 9.073L14.883 9.031Q14.001 8.527 13.245 8.275L13.245 8.275Q12.405 8.023 11.481 8.107L11.481 8.107Q11.313 8.107 11.061 8.170Q10.809 8.233 10.683 8.233L10.683 8.233Q10.347 8.485 10.179 8.716Q10.011 8.947 10.011 9.325L10.011 9.325Q10.011 9.997 10.578 10.375Q11.145 10.753 11.733 10.753L11.733 10.753Q12.153 10.879 13.077 11.131L13.077 11.131L14.211 11.425Q14.337 11.257 14.757 11.257L14.757 11.257Q14.337 11.257 14.211 11.383L14.211 11.383L15.219 11.803Q15.261 11.845 15.261 11.929L15.261 11.929L15.345 11.929Q15.387 11.971 15.387 12.055L15.387 12.055L15.555 12.181Q15.639 12.223 15.639 12.307L15.639 12.307L15.807 12.475Q16.395 12.979 16.584 13.987Q16.773 14.995 16.353 15.919L16.353 15.919Q15.933 16.969 14.883 17.431Z"/></svg>