<?xml version="1.0" encoding="UTF-8"?>
<svg xmlns="http://www.w3.org/2000/svg" width="32" height="32" viewBox="0 0 24 24" fill="#666666"><path d="M23.928 10.888L23.886 10.594Q23.718 9.544 23.634 8.998L23.634 8.998L23.214 9.880L23.130 9.880Q23.550 6.058 20.946 3.790L20.946 3.790L20.862 4.000Q20.442 3.454 19.434 2.740L19.434 2.740Q19.308 3.118 19.644 3.454L19.644 3.454Q20.862 4.546 21.576 5.806L21.576 5.806L21.702 6.016Q21.282 5.428 20.232 4.420L20.232 4.420L19.812 4.000Q18.636 2.740 16.746 2.152L16.746 2.152L16.200 1.984L16.662 2.404Q17.544 3.076 17.964 3.454L17.964 3.454Q18.468 3.958 18.909 4.525Q19.350 5.092 19.392 5.302L19.392 5.302Q18.342 4.462 17.376 4.378L17.376 4.378Q19.980 6.730 19.686 10.132L19.686 10.132Q19.308 9.418 18.720 9.040L18.720 9.040L18.888 10.636Q19.014 11.854 18.888 12.484L18.888 12.484L18.636 13.618L18.342 13.030L18.216 13.618Q17.964 14.542 17.838 15.004L17.838 15.004Q17.544 16.054 16.872 16.684L16.872 16.684Q16.704 16.810 16.494 16.936L16.494 16.936Q16.452 16.978 16.368 16.978L16.368 16.978L16.284 16.978L16.284 16.684L16.200 16.684Q16.074 16.684 16.032 16.726L16.032 16.726Q15.864 16.894 15.696 17.062L15.696 17.062Q15.402 17.482 14.898 17.776L14.898 17.776L14.982 17.440L13.890 17.692Q13.218 17.818 12.882 17.860L12.882 17.860Q12.336 17.944 11.874 17.860L11.874 17.860Q11.160 17.734 10.824 17.356L10.824 17.356L11.538 17.356Q11.412 17.230 11.286 17.188L11.286 17.188L10.026 16.894Q9.438 16.726 9.165 16.558Q8.892 16.390 8.430 15.886L8.430 15.886L8.346 15.802Q7.044 14.542 7.338 12.484L7.338 12.484Q7.422 11.854 7.506 11.560L7.506 11.560Q7.674 11.098 8.052 10.804L8.052 10.804Q7.632 10.510 7.170 10.510L7.170 10.510Q6.498 10.468 5.910 10.909Q5.322 11.350 5.112 12.022L5.112 12.022Q4.566 13.618 5.742 15.172L5.742 15.172L5.868 15.340Q5.112 14.710 4.839 13.639Q4.566 12.568 4.986 11.602L4.986 11.602Q5.322 10.804 6.015 10.405Q6.708 10.006 7.485 10.132Q8.262 10.258 8.850 10.846L8.850 10.846L9.060 11.098Q9.186 10.720 9.165 10.237Q9.144 9.754 8.934 9.460L8.934 9.460Q7.884 8.032 8.199 6.457Q8.514 4.882 9.774 3.664L9.774 3.664L9.942 3.496Q9.060 3.286 8.094 3.874Q7.128 4.462 6.204 5.722L6.204 5.722L6.372 4.714L6.036 4.672Q4.104 4.420 2.634 5.638L2.634 5.638Q1.206 6.772 0.576 8.830L0.576 8.830L0.072 10.636L0.114 10.636L0.450 10.132Q0.282 11.056 0.198 12.148Q0.114 13.240 0.156 13.786L0.156 13.786L0.408 13.030Q0.954 17.062 3.516 19.750L3.516 19.750Q4.776 21.052 6.855 22.249Q8.934 23.446 9.858 23.362L9.858 23.362L9.396 23.068Q9.648 23.110 10.110 23.236L10.110 23.236L10.530 23.320L11.916 23.656L12.672 23.656L12.294 23.320L13.596 23.236Q15.528 23.110 17.418 22.438L17.418 22.438Q17.964 22.270 18.468 21.808L18.468 21.808Q18.804 21.472 19.266 20.884L19.266 20.884Q19.434 20.632 19.644 20.506L19.644 20.506Q21.492 19.498 22.542 17.608L22.542 17.608Q23.046 16.726 22.794 15.592L22.794 15.592Q22.752 15.382 22.836 15.172L22.836 15.172L23.088 14.584Q23.382 13.996 23.487 13.681Q23.592 13.366 23.760 12.694L23.760 12.694L23.928 12.064L23.928 10.888ZM8.178 12.946L7.800 12.694Q7.632 13.618 8.052 14.542Q8.472 15.466 9.270 15.928L9.270 15.928Q9.354 15.970 9.480 15.970L9.480 15.970Q11.412 16.096 12.798 14.962L12.798 14.962L13.092 14.710Q13.470 14.374 14.058 14.458L14.058 14.458Q14.268 14.500 14.373 14.395Q14.478 14.290 14.436 14.080L14.436 14.080Q14.352 13.618 13.932 13.366L13.932 13.366Q12.630 12.694 11.412 13.366L11.412 13.366Q11.076 13.576 10.740 13.660L10.740 13.660Q9.942 13.870 9.018 13.408L9.018 13.408Q8.766 13.282 8.178 12.946L8.178 12.946ZM3.894 4.126L3.978 4.084Q4.062 4.000 4.104 3.958L4.104 3.958Q8.430-0.074 14.100 1.102L14.100 1.102Q15.024 1.312 16.830 1.858L16.830 1.858L18.006 2.194Q15.822 0.682 13.134 0.409Q10.446 0.136 7.905 1.018Q5.364 1.900 3.558 3.832L3.558 3.832L3.894 4.126ZM11.664 7.234L11.664 7.234Q11.706 6.982 11.622 6.898Q11.538 6.814 11.328 6.772L11.328 6.772Q10.908 6.730 10.026 6.730L10.026 6.730L9.816 6.730Q9.438 6.688 9.270 6.646L9.270 6.646Q8.934 6.604 8.724 6.352L8.724 6.352Q8.472 6.940 8.682 7.864Q8.892 8.788 9.354 9.208L9.354 9.208L9.858 8.914Q10.614 8.494 11.034 8.284L11.034 8.284Q11.622 7.990 11.664 7.234ZM3.642 4.420L3.642 4.420Q2.844 3.748 2.760 2.614L2.760 2.614Q2.130 3.286 1.836 4.168L1.836 4.168Q1.626 4.882 1.584 5.890L1.584 5.890Q2.550 4.882 3.642 4.420Z"/></svg>