<?xml version="1.0" encoding="UTF-8"?>
<svg xmlns="http://www.w3.org/2000/svg" width="32" height="32" viewBox="0 0 24 24" fill="#666666"><path d="M6.360 13.120L6.360 6.240L13.240 6.240Q13.240 5 12.360 3.540Q11.480 2.080 10.080 1.160L10.080 1.160Q8.520 0.120 6.840 0.120Q5.160 0.120 3.620 1.020Q2.080 1.920 1.160 3.420Q0.240 4.920 0.240 6.600Q0.240 8.280 1.280 9.880L1.280 9.880Q2.200 11.280 3.660 12.200Q5.120 13.120 6.360 13.120L6.360 13.120ZM9.000 23.880L9.000 9.120L23.760 9.120L23.760 23.880L9.000 23.880Z"/></svg>