<?xml version="1.0" encoding="UTF-8"?>
<svg xmlns="http://www.w3.org/2000/svg" width="32" height="32" viewBox="0 0 24 24" fill="#666666"><path d="M12.297 4.025L14.640 8.777L12.297 10.955L10.119 6.566L11.241 4.025Q11.472 3.662 11.769 3.662Q12.066 3.662 12.297 4.025L12.297 4.025ZM10.119 6.566L12.297 10.955L3.552 19.073L10.119 6.566ZM3.552 19.073L17.214 5.444Q17.511 5.114 17.792 5.213Q18.072 5.312 18.171 5.741L18.171 5.741L20.448 18.974L12.891 23.495Q12.726 23.594 12.297 23.660L12.297 23.660L11.934 23.693L11.571 23.660Q11.208 23.594 11.043 23.495L11.043 23.495L3.552 19.073ZM7.215 0.659L10.119 6.566L3.552 19.073L6.489 0.791Q6.555 0.362 6.770 0.312Q6.984 0.263 7.215 0.659L7.215 0.659Z"/></svg>