<?xml version="1.0" encoding="UTF-8"?>
<svg xmlns="http://www.w3.org/2000/svg" width="32" height="32" viewBox="0 0 24 24" fill="#666666"><path d="M21.337 14.958L21.337 14.958Q21.269 14.958 21.201 14.890L21.201 14.890Q20.963 14.754 20.793 14.754L20.793 14.754L20.793 9.246Q21.133 9.246 21.337 9.042L21.337 9.042Q22.085 8.600 22.323 7.767Q22.561 6.934 22.119 6.169Q21.677 5.404 20.827 5.183Q19.977 4.962 19.229 5.404L19.229 5.404Q18.923 5.540 18.787 5.846L18.787 5.846L13.993 3.092Q13.993 2.888 14.061 2.718Q14.129 2.548 14.095 2.446L14.095 2.446Q14.129 1.562 13.500 0.933Q12.871 0.304 11.987 0.304Q11.103 0.304 10.491 0.933Q9.879 1.562 9.879 2.446L9.879 2.446Q9.879 2.854 9.981 3.092L9.981 3.092L5.187 5.846Q5.119 5.676 4.881 5.506L4.881 5.506L4.779 5.404Q3.997 4.962 3.147 5.183Q2.297 5.404 1.889 6.135Q1.481 6.866 1.702 7.699Q1.923 8.532 2.637 9.042L2.637 9.042L2.773 9.110Q3.011 9.246 3.181 9.246L3.181 9.246L3.181 14.754Q2.841 14.754 2.637 14.992L2.637 14.992Q1.889 15.400 1.651 16.233Q1.413 17.066 1.855 17.831Q2.297 18.596 3.147 18.817Q3.997 19.038 4.779 18.596L4.779 18.596Q5.051 18.460 5.187 18.154L5.187 18.154L9.981 20.942Q9.981 21.112 9.930 21.282Q9.879 21.452 9.845 21.554L9.845 21.554Q9.879 22.438 10.491 23.067Q11.103 23.696 11.987 23.696Q12.871 23.696 13.500 23.067Q14.129 22.438 14.129 21.554L14.129 21.554Q14.129 21.146 13.993 20.942L13.993 20.942L18.787 18.154Q18.889 18.392 19.331 18.596L19.331 18.596Q20.045 19.004 20.878 18.783Q21.711 18.562 22.187 17.848L22.187 17.848Q22.595 17.134 22.323 16.301Q22.051 15.468 21.337 14.958ZM18.243 16.352L5.731 16.352Q5.731 16.046 5.493 15.808L5.493 15.808Q5.391 15.604 5.187 15.400L5.187 15.400L11.443 4.452Q11.579 4.452 11.817 4.520L11.817 4.520L11.987 4.554Q12.429 4.554 12.531 4.452L12.531 4.452L18.787 15.400Q18.481 15.706 18.481 15.808L18.481 15.808L18.379 15.978Q18.243 16.216 18.243 16.352L18.243 16.352ZM13.585 3.806L18.243 6.594Q18.073 7.512 18.481 8.158L18.481 8.158Q18.957 8.974 19.739 9.144L19.739 9.144L19.739 14.652L19.637 14.652L13.483 3.908L13.585 3.806ZM5.629 6.696L10.491 3.806Q10.491 3.840 10.491 3.874L10.491 3.874L10.491 3.806L4.235 14.754L4.133 14.754L4.133 9.246Q4.915 9.076 5.391 8.294L5.391 8.294Q5.799 7.614 5.629 6.696L5.629 6.696ZM18.243 17.406L13.483 20.194Q12.837 19.548 11.987 19.548L11.987 19.548Q10.967 19.548 10.491 20.194L10.491 20.194L5.731 17.406L5.731 17.304L18.243 17.304L18.243 17.406Z"/></svg>