<?xml version="1.0" encoding="UTF-8"?>
<svg xmlns="http://www.w3.org/2000/svg" width="32" height="32" viewBox="0 0 24 24" fill="#666666"><path d="M2.990 11.701L2.990 11.701Q2.990 11.259 2.888 11.157L2.888 11.157Q2.718 10.987 2.463 11.004Q2.208 11.021 2.140 11.259L2.140 11.259Q1.902 11.667 2.106 12.024Q2.310 12.381 2.786 12.551L2.786 12.551Q3.126 12.619 3.381 12.585Q3.636 12.551 3.840 12.313L3.840 12.313Q4.928 11.463 5.438 10.953L5.438 10.953L5.744 10.681Q6.356 10.137 6.696 9.933L6.696 9.933Q7.240 9.525 7.784 9.355L7.784 9.355Q9.994 8.607 11.388 9.865L11.388 9.865L12.238 10.715Q12.340 10.511 12.544 10.307L12.544 10.307Q13.564 9.151 15.128 9.151L15.128 9.151Q16.862 9.151 18.188 10.307L18.188 10.307Q18.494 10.579 19.089 11.106Q19.684 11.633 19.990 11.905L19.990 11.905Q20.500 12.381 21.044 12.551L21.044 12.551Q21.452 12.619 21.809 12.432Q22.166 12.245 22.319 11.871Q22.472 11.497 22.132 11.157L22.132 11.157Q21.826 10.885 21.486 11.055L21.486 11.055Q21.316 11.123 21.248 11.276Q21.180 11.429 21.282 11.565L21.282 11.565L21.282 11.701Q20.840 11.395 20.840 10.851Q20.840 10.307 21.486 10.103L21.486 10.103Q22.200 9.865 22.829 10.222Q23.458 10.579 23.594 11.361L23.594 11.361Q23.798 12.551 23.390 13.401L23.390 13.401Q23.186 13.911 22.710 14.217L22.710 14.217Q22.336 14.489 21.690 14.659L21.690 14.659Q20.670 14.965 19.548 14.795L19.548 14.795Q18.630 14.693 17.440 14.251L17.440 14.251L14.584 12.959Q12.646 12.075 10.844 12.551L10.844 12.551Q9.790 12.857 8.532 13.401L8.532 13.401L7.852 13.707Q6.492 14.319 5.744 14.557L5.744 14.557Q3.874 15.237 2.242 14.659L2.242 14.659Q0.202 13.911 0.338 11.803L0.338 11.803Q0.440 11.157 0.644 10.783L0.644 10.783Q0.882 10.341 1.392 10.205L1.392 10.205Q1.732 10.035 2.106 10.035Q2.480 10.035 2.786 10.205L2.786 10.205Q3.330 10.443 3.364 10.902Q3.398 11.361 2.990 11.701Z"/></svg>