<?xml version="1.0" encoding="UTF-8"?>
<svg xmlns="http://www.w3.org/2000/svg" width="32" height="32" viewBox="0 0 24 24" fill="#666666"><path d="M14.594 13.680L14.594 13.806Q13.838 14.268 12.284 15.234L12.284 15.234L9.974 16.662Q10.730 18.384 10.100 20.232L10.100 20.232Q9.638 21.744 8.525 22.647Q7.412 23.550 5.900 23.760L5.900 23.760Q5.312 23.928 4.472 23.634L4.472 23.634Q3.800 23.466 3.548 22.710L3.548 22.710Q2.750 20.946 3.926 19.560L3.926 19.560L4.346 19.140Q5.144 18.300 5.648 18.006L5.648 18.006Q6.026 17.670 6.950 17.166L6.950 17.166Q7.664 16.788 8.000 16.536L8.000 16.536Q8.084 16.452 8.294 16.410L8.294 16.410L8.546 16.284Q8.378 16.200 8.147 15.990Q7.916 15.780 7.748 15.780L7.748 15.780Q5.984 14.646 4.724 13.386L4.724 13.386Q3.674 12.336 3.296 11.706L3.296 11.706Q2.414 11.034 2.267 10.110Q2.120 9.186 2.624 8.262L2.624 8.262Q3.254 6.750 4.976 4.986L4.976 4.986Q8.000 2.340 12.074 0.912L12.074 0.912Q14.972-0.096 17.576 0.282L17.576 0.282Q17.870 0.408 18.521 0.597Q19.172 0.786 19.424 0.912L19.424 0.912Q20.936 1.542 21.482 2.676Q22.028 3.810 21.524 5.406L21.524 5.406Q20.684 8.094 18.374 9.438L18.374 9.438Q16.778 10.446 15.140 10.824Q13.502 11.202 11.696 10.908L11.696 10.908Q10.604 10.740 9.596 9.732L9.596 9.732Q9.344 9.186 9.176 9.060L9.176 9.060L9.218 8.976Q9.260 8.892 9.344 8.808L9.344 8.808L9.386 8.808Q9.512 8.850 9.596 8.934L9.596 8.934Q10.940 10.320 12.998 9.858L12.998 9.858Q14.804 9.522 16.106 8.892L16.106 8.892Q17.618 8.178 18.626 6.960Q19.634 5.742 19.970 4.608L19.970 4.608Q20.306 3.138 18.794 2.256L18.794 2.256Q17.534 1.626 15.644 1.836L15.644 1.836Q12.116 2.382 8.546 4.608L8.546 4.608Q6.572 5.700 5.522 7.086L5.522 7.086Q5.144 7.632 4.598 8.682L4.598 8.682Q4.304 9.480 4.430 10.236Q4.556 10.992 5.144 11.538L5.144 11.538Q6.194 12.588 6.698 13.008L6.698 13.008L9.176 15.108L9.344 15.150Q9.512 15.192 9.596 15.108L9.596 15.108Q10.100 14.772 10.646 14.562L10.646 14.562Q12.620 13.470 14.300 13.134L14.300 13.134Q14.300 13.428 14.342 13.533Q14.384 13.638 14.510 13.722L14.510 13.722L14.594 13.806L14.594 13.680ZM8.924 17.082L8.924 17.082Q7.160 18.048 5.900 19.308L5.900 19.308Q5.186 20.022 4.976 20.988L4.976 20.988Q4.892 21.576 5.228 21.870Q5.564 22.164 6.194 22.038L6.194 22.038Q7.664 21.702 8.546 20.358L8.546 20.358Q9.008 19.602 9.092 18.804L9.092 18.804Q9.134 18.132 8.924 17.082Z"/></svg>