<?xml version="1.0" encoding="UTF-8"?>
<svg xmlns="http://www.w3.org/2000/svg" width="32" height="32" viewBox="0 0 24 24" fill="#666666"><path d="M0.051 21.261L0.051 21.261Q0.135 20.715 0.471 20.211L0.471 20.211Q0.681 19.917 1.227 19.392Q1.773 18.867 3.201 18.069L3.201 18.069L3.579 17.817Q4.503 17.313 6.351 16.515L6.351 16.515Q6.435 16.515 6.519 16.431Q6.603 16.347 6.603 16.263L6.603 16.263Q8.157 13.113 8.829 11.517L8.829 11.517Q9.039 11.055 9.354 10.152Q9.669 9.249 9.879 8.787L9.879 8.787L9.879 8.661Q9.123 6.855 8.955 5.637L8.955 5.637Q8.619 4.209 8.829 2.487L8.829 2.487Q8.997 1.647 9.879 0.765L9.879 0.765Q10.005 0.639 10.551 0.639L10.551 0.639L11.601 0.639Q12.063 0.639 12.231 1.017L12.231 1.017Q12.651 1.311 13.155 2.067L13.155 2.067Q13.323 2.445 13.449 3.117L13.449 3.117L13.575 3.663Q13.575 4.713 13.407 5.931L13.407 5.931Q13.281 6.687 13.029 8.115L13.029 8.115L12.651 9.585L12.651 9.711Q13.617 11.475 15.549 13.617L15.549 13.617Q15.633 13.743 15.675 13.764Q15.717 13.785 15.927 13.743L15.927 13.743Q17.355 13.491 20.127 13.491L20.127 13.491Q21.555 13.491 22.605 14.037L22.605 14.037Q23.403 14.541 23.655 14.961L23.655 14.961Q23.949 15.465 23.949 15.717L23.949 15.717L23.949 16.641Q23.949 17.103 23.529 17.313L23.529 17.313L23.403 17.439Q23.193 17.691 23.025 17.775L23.025 17.775Q22.773 17.985 22.479 17.943L22.479 17.943Q22.353 17.985 22.017 18.048Q21.681 18.111 21.555 18.111L21.555 18.111Q20.043 18.195 18.657 17.733L18.657 17.733Q17.397 17.313 16.053 16.389L16.053 16.389Q15.927 16.263 15.591 15.990Q15.255 15.717 15.129 15.591L15.129 15.591Q15.087 15.591 15.003 15.528Q14.919 15.465 14.877 15.465L14.877 15.465Q13.281 15.717 12.525 16.011L12.525 16.011Q11.979 16.137 10.929 16.452Q9.879 16.767 9.375 16.893L9.375 16.893Q9.291 16.893 9.228 16.977Q9.165 17.061 9.081 17.061L9.081 17.061Q8.157 18.741 6.855 20.463L6.855 20.463Q5.847 21.681 4.629 22.689L4.629 22.689Q3.915 23.151 3.201 23.361L3.201 23.361L2.151 23.361Q1.731 23.361 1.479 23.193L1.479 23.193Q0.975 23.025 0.618 22.647Q0.261 22.269 0.177 21.765L0.177 21.765Q0.051 21.765 0.051 21.261ZM12.273 12.945L11.601 12.063Q11.391 12.567 10.929 13.617Q10.467 14.667 10.299 15.213L10.299 15.213L13.449 14.415Q13.029 13.953 12.273 12.945L12.273 12.945ZM17.229 15.465L17.229 15.465Q18.363 16.221 19.875 16.641L19.875 16.641Q20.127 16.725 20.379 16.683L20.379 16.683Q20.505 16.641 20.736 16.536Q20.967 16.431 21.030 16.200Q21.093 15.969 20.925 15.843L20.925 15.843Q20.925 15.717 20.631 15.717L20.631 15.717Q20.505 15.675 20.148 15.612Q19.791 15.549 19.581 15.465L19.581 15.465Q18.405 15.255 17.229 15.465ZM4.377 19.749L4.881 19.161Q4.881 19.161 4.839 19.161L4.839 19.161L4.881 19.161Q3.747 19.707 2.655 20.589L2.655 20.589Q2.277 20.841 1.731 21.639L1.731 21.639L1.731 21.891L1.899 22.017L2.025 22.017L2.445 21.681Q2.781 21.471 2.949 21.387L2.949 21.387Q3.495 20.883 4.377 19.749L4.377 19.749ZM10.425 5.511L10.551 5.889Q10.593 5.889 10.635 5.889L10.635 5.889L10.551 5.889Q10.929 4.713 10.929 3.663L10.929 3.663Q10.929 2.865 10.803 2.487L10.803 2.487Q10.803 2.361 10.551 2.361L10.551 2.361Q10.467 2.361 10.404 2.424Q10.341 2.487 10.299 2.487L10.299 2.487Q10.089 2.739 10.047 3.075L10.047 3.075Q10.005 3.285 10.005 3.789L10.005 3.789Q10.005 4.461 10.131 4.839L10.131 4.839Q10.341 5.007 10.425 5.511L10.425 5.511Z"/></svg>