<?xml version="1.0" encoding="UTF-8"?>
<svg xmlns="http://www.w3.org/2000/svg" width="32" height="32" viewBox="0 0 24 24" fill="#666666"><path d="M12.000 23.802L12.000 23.802Q8.808 23.802 6.078 22.185Q3.348 20.568 1.752 17.838L1.752 17.838Q0.114 15.024 0.198 11.748L0.198 11.748Q0.240 8.598 1.836 5.952Q3.432 3.306 6.078 1.794L6.078 1.794Q8.850 0.198 12.126 0.198L12.126 0.198Q15.318 0.198 18.027 1.815Q20.736 3.432 22.290 6.162L22.290 6.162Q23.886 8.976 23.802 12.252L23.802 12.252Q23.760 15.360 22.143 18.027Q20.526 20.694 17.880 22.206L17.880 22.206Q15.150 23.802 12.000 23.802ZM7.800 4.650L7.800 4.650L7.800 19.224L7.926 19.224L18.552 12.126L18.678 12Q18.678 12 18.552 12L18.552 12Q11.496 7.254 7.800 4.902L7.800 4.902Q7.884 4.818 7.884 4.734Q7.884 4.650 7.800 4.650Z"/></svg>