<?xml version="1.0" encoding="UTF-8"?>
<svg xmlns="http://www.w3.org/2000/svg" width="32" height="32" viewBox="0 0 24 24" fill="#666666"><path d="M19.485 12.265L19.485 12.265Q19.596 12.228 19.855 12.117L19.855 12.117Q20.632 11.747 21.002 11.488L21.002 11.488Q21.483 11.118 21.668 10.637Q21.853 10.156 21.668 9.712Q21.483 9.268 21.002 9.046L21.002 9.046Q20.706 8.898 20.521 8.343L20.521 8.343Q20.373 7.344 20.891 6.493L20.891 6.493Q21.483 5.642 21.113 5.013Q20.743 4.384 19.596 4.310L19.596 4.310L19.485 4.310L19.374 4.199L19.374 4.125Q19.263 3.607 19.300 3.385L19.300 3.385Q19.374 2.978 19.818 2.682L19.818 2.682Q20.077 2.571 20.743 2.349L20.743 2.349Q21.002 2.238 21.335 2.238L21.335 2.238Q21.335 2.090 21.224 2.090L21.224 2.090L21.224 2.090Q20.669 1.461 19.818 1.202L19.818 1.202Q19.078 0.980 18.227 1.054L18.227 1.054Q17.265 1.165 16.488 1.646L16.488 1.646Q15.896 2.016 15.193 2.793L15.193 2.793Q15.045 3.126 14.638 2.904L14.638 2.904Q14.416 2.793 14.416 2.571L14.416 2.571Q14.416 2.460 14.471 2.220Q14.527 1.979 14.527 1.868L14.527 1.868L14.860 1.165Q14.453 1.165 14.046 1.350L14.046 1.350Q13.824 1.461 13.343 1.757L13.343 1.757L13.121 1.868Q12.862 1.461 12.843 1.091Q12.825 0.721 13.010 0.240L13.010 0.240Q12.159 0.536 11.715 0.906L11.715 0.906Q11.197 1.387 11.049 2.090L11.049 2.090Q10.864 1.942 10.827 1.646L10.827 1.646Q10.790 1.461 10.790 1.128L10.790 1.128L10.827 0.832L10.716 0.832Q10.642 0.832 10.586 0.888Q10.531 0.943 10.457 0.943L10.457 0.943Q9.606 1.646 9.421 2.571L9.421 2.571Q9.421 2.645 9.365 2.756Q9.310 2.867 9.310 2.904L9.310 2.904Q9.273 2.867 9.143 2.812Q9.014 2.756 8.977 2.682L8.977 2.682Q8.755 2.497 8.292 2.109Q7.830 1.720 7.571 1.535L7.571 1.535Q6.535 0.943 5.554 0.925Q4.574 0.906 3.538 1.424L3.538 1.424L2.613 2.349Q2.835 2.460 3.297 2.571Q3.760 2.682 3.982 2.793L3.982 2.793Q4.611 2.978 4.777 3.348Q4.944 3.718 4.685 4.421L4.685 4.421Q4.574 4.421 4.352 4.477Q4.130 4.532 3.982 4.532L3.982 4.532Q3.390 4.717 3.131 5.106Q2.872 5.494 2.946 6.049L2.946 6.049Q3.020 6.197 3.186 6.549Q3.353 6.900 3.427 7.085L3.427 7.085Q3.427 7.122 3.482 7.252Q3.538 7.381 3.538 7.418L3.538 7.418L3.538 8.602Q3.538 8.824 3.057 9.268L3.057 9.268L2.872 9.453Q2.465 9.823 2.391 10.082L2.391 10.082Q2.132 10.489 2.317 10.970Q2.502 11.451 2.946 11.821L2.946 11.821Q3.538 12.265 4.463 12.635L4.463 12.635Q5.388 13.079 5.388 14.004L5.388 14.004Q5.388 15.299 5.277 15.965L5.277 15.965Q5.277 16.076 5.203 16.372L5.203 16.372Q5.166 16.705 5.166 16.890L5.166 16.890Q4.574 16.446 4.259 15.984Q3.945 15.521 3.871 14.929L3.871 14.929Q2.835 15.817 2.835 16.779L2.835 16.779Q2.650 18.000 3.168 18.962L3.168 18.962Q3.723 19.998 5.055 20.479L5.055 20.479Q5.166 20.479 5.388 20.738L5.388 20.738Q6.424 22.440 8.496 22.810L8.496 22.810Q8.755 22.810 8.755 22.921L8.755 22.921Q9.643 23.476 10.642 23.661L10.642 23.661Q11.530 23.809 12.677 23.735L12.677 23.735Q13.417 23.624 13.787 23.513L13.787 23.513Q14.342 23.365 14.749 23.032L14.749 23.032Q14.823 22.995 14.989 22.921Q15.156 22.847 15.193 22.810L15.193 22.810Q17.117 22.477 18.227 20.849L18.227 20.849L18.560 20.479Q19.707 20.109 20.188 19.332L20.188 19.332Q20.595 18.777 20.743 18.000L20.743 18.000Q20.854 17.334 20.780 16.668L20.780 16.668Q20.669 16.187 20.428 15.799Q20.188 15.410 19.707 14.929L19.707 14.929Q19.559 15.558 19.263 16.021Q18.967 16.483 18.449 16.890L18.449 16.890Q18.338 15.854 18.338 13.893L18.338 13.893Q18.523 13.227 18.782 12.839Q19.041 12.450 19.485 12.265ZM14.971 18.407L9.791 18.407L14.971 18.407Z"/></svg>