<?xml version="1.0" encoding="UTF-8"?>
<svg xmlns="http://www.w3.org/2000/svg" width="32" height="32" viewBox="0 0 24 24" fill="#666666"><path d="M19.350 0.198L19.350 0.198L19.350 5.700L19.224 5.826Q19.182 5.952 19.098 5.952L19.098 5.952Q18.510 6.540 17.628 6.750L17.628 6.750Q16.662 7.086 14.520 7.548L14.520 7.548L13.974 7.674Q11.622 8.094 7.800 8.598L7.800 8.598Q5.700 8.850 4.650 9.102L4.650 9.102L4.650 3.600Q4.776 3.474 5.196 3.474L5.196 3.474Q8.220 2.970 10.152 2.802L10.152 2.802L11.622 2.592Q13.596 2.298 14.604 2.088L14.604 2.088Q16.242 1.794 17.502 1.374L17.502 1.374L17.670 1.290Q18.300 1.038 18.594 0.870L18.594 0.870Q19.098 0.576 19.350 0.198ZM19.350 7.548L19.350 7.548L19.350 13.050L19.098 13.302Q18.510 13.764 17.250 14.268L17.250 14.268L16.998 14.352Q14.898 14.898 13.848 15.024L13.848 15.024Q13.176 15.150 11.937 15.339Q10.698 15.528 10.026 15.654L10.026 15.654L8.304 15.906Q5.910 16.200 4.650 16.452L4.650 16.452L4.650 10.950Q4.776 10.824 5.028 10.824L5.028 10.824Q6.162 10.698 8.388 10.362Q10.614 10.026 11.748 9.900L11.748 9.900Q14.772 9.480 17.376 8.724L17.376 8.724Q18.090 8.472 18.468 8.262L18.468 8.262Q18.972 7.968 19.350 7.548ZM5.028 23.760L4.776 23.802L4.650 23.802L4.650 18.300Q4.776 18.174 5.028 18.174L5.028 18.174Q5.826 18.048 7.338 17.838Q8.850 17.628 9.648 17.502L9.648 17.502L11.034 17.292Q13.134 16.998 14.142 16.830L14.142 16.830Q15.864 16.494 17.250 16.074L17.250 16.074Q18.048 15.822 18.384 15.612L18.384 15.612Q19.014 15.318 19.350 14.898L19.350 14.898L19.350 20.400Q19.266 20.568 18.972 20.820L18.972 20.820L18.678 21.072Q17.712 21.534 16.200 21.954L16.200 21.954Q14.814 22.332 11.916 22.794L11.916 22.794L11.328 22.878Q7.926 23.424 6.246 23.550L6.246 23.550Q5.784 23.550 5.028 23.760L5.028 23.760Z"/></svg>