<?xml version="1.0" encoding="UTF-8"?>
<svg xmlns="http://www.w3.org/2000/svg" width="32" height="32" viewBox="0 0 24 24" fill="#666666"><path d="M15.840 18.343L15.840 18.343Q15.660 18.643 15.465 19.018Q15.270 19.393 15.270 19.663L15.270 19.663L15 22.573Q15 23.083 14.520 23.233L14.520 23.233Q14.190 23.323 13.500 23.563Q12.810 23.803 12.480 23.893L12.480 23.893L11.430 23.893Q11.400 23.893 11.250 23.848Q11.100 23.803 11.070 23.803L11.070 23.803Q9.930 23.413 9.480 23.143L9.480 23.143Q9.180 22.843 9.180 22.663L9.180 22.663Q9.090 21.913 9.090 20.503L9.090 20.503Q9.090 19.753 9.030 19.423L9.030 19.423Q8.910 18.823 8.520 18.463L8.520 18.463L8.520 18.343Q12.060 19.333 15.840 18.343ZM17.250 6.463L17.250 6.463Q17.190 7.093 17.055 8.413Q16.920 9.733 16.890 10.393L16.890 10.393L16.230 17.233Q16.230 18.103 15.270 18.253L15.270 18.253Q14.250 18.463 12.570 18.643L12.570 18.643Q10.470 18.793 8.640 18.253L8.640 18.253Q8.310 18.193 8.160 17.953L8.160 17.953Q8.070 17.803 7.980 17.413L7.980 17.413Q7.980 16.843 7.770 16.123L7.770 16.123L7.410 12.643Q7.410 12.583 7.365 12.493Q7.320 12.403 7.320 12.373L7.320 12.373Q7.260 11.383 6.960 9.493L6.960 9.493L6.750 7.963Q6.660 7.483 6.660 6.553L6.660 6.553Q12.120 7.693 17.250 6.463ZM6.660 5.893L6.660 5.893Q7.020 5.713 7.230 5.713L7.230 5.713L9.840 5.413Q9.900 5.413 10.080 5.323L10.080 5.323L10.230 5.233Q10.140 4.993 10.020 4.513L10.020 4.513Q9.900 3.943 9.780 3.643L9.780 3.643Q9.600 3.193 9.270 2.893L9.270 2.893Q8.910 2.503 8.205 1.708Q7.500 0.913 7.140 0.553L7.140 0.553Q7.440 0.223 7.560 0.148Q7.680 0.073 7.785 0.133Q7.890 0.193 8.160 0.463L8.160 0.463L8.520 0.823Q8.940 1.303 9.180 1.483L9.180 1.483Q10.770 2.773 11.070 4.753L11.070 4.753Q11.190 5.173 11.400 5.293Q11.610 5.413 12 5.413L12 5.413L16.680 5.713Q16.830 5.713 17.130 5.803L17.130 5.803L17.340 5.893Q16.590 6.463 14.070 6.673L14.070 6.673Q11.760 6.883 9.480 6.673L9.480 6.673Q7.110 6.433 6.660 5.893Z"/></svg>