<?xml version="1.0" encoding="UTF-8"?>
<svg xmlns="http://www.w3.org/2000/svg" width="32" height="32" viewBox="0 0 24 24" fill="#666666"><path d="M5.376 14.300L5.376 3.352L9.286 3.352L9.286 14.300Q9.286 17.842 7.630 19.452L7.630 19.452Q6.112 20.924 3.076 20.924L3.076 20.924Q2.386 20.924 1.558 20.809Q0.730 20.694 0.224 20.464L0.224 20.464L0.638 17.336Q1.512 17.750 2.662 17.750L2.662 17.750Q3.950 17.750 4.594 17.060L4.594 17.060Q5.376 16.232 5.376 14.300L5.376 14.300ZM11.862 19.912L12.736 16.600Q13.564 17.060 14.668 17.382L14.668 17.382Q15.910 17.750 17.014 17.750L17.014 17.750Q18.394 17.750 19.084 17.267Q19.774 16.784 19.774 15.910Q19.774 15.036 19.130 14.507Q18.486 13.978 16.876 13.426L16.876 13.426Q12.138 11.770 12.138 8.274L12.138 8.274Q12.138 5.974 13.909 4.525Q15.680 3.076 18.762 3.076L18.762 3.076Q21.200 3.076 23.224 3.950L23.224 3.950L22.350 7.124L22.074 6.986Q21.246 6.664 20.740 6.526L20.740 6.526Q19.774 6.250 18.762 6.250L18.762 6.250Q17.520 6.250 16.853 6.733Q16.186 7.216 16.186 7.998Q16.186 8.780 16.922 9.286L16.922 9.286Q17.474 9.700 19.314 10.436L19.314 10.436Q21.614 11.310 22.695 12.552Q23.776 13.794 23.776 15.588L23.776 15.588Q23.776 17.888 22.028 19.314L22.028 19.314Q20.142 20.924 16.738 20.924L16.738 20.924Q15.404 20.924 13.932 20.556L13.932 20.556Q12.782 20.326 11.862 19.912L11.862 19.912Z"/></svg>