<?xml version="1.0" encoding="UTF-8"?>
<svg xmlns="http://www.w3.org/2000/svg" width="32" height="32" viewBox="0 0 24 24" fill="#666666"><path d="M13.540 5.776L13.540 5.776Q13.995 6.721 14.800 7.736L14.800 7.736Q15.290 8.331 16.375 9.451L16.375 9.451Q17.530 10.711 18.055 11.341L18.055 11.341Q18.895 12.461 19.280 13.511L19.280 13.511Q19.735 14.806 19.595 16.276L19.595 16.276Q19.385 19.006 18.055 20.826L18.055 20.826Q17.005 22.331 15.325 23.101L15.325 23.101Q13.995 23.731 12.542 23.783Q11.090 23.836 9.725 23.416L9.725 23.416Q7.905 22.891 6.680 21.631L6.680 21.631Q5.140 20.056 4.580 17.501L4.580 17.501Q4.090 15.261 4.755 12.321L4.755 12.321Q5.385 9.731 6.785 7.001L6.785 7.001Q8.115 4.481 9.725 2.608Q11.335 0.736 12.630 0.211L12.630 0.211Q12.525 1.436 12.770 2.976L12.770 2.976Q13.015 4.656 13.540 5.776ZM10.495 21.736L10.495 21.736Q11.930 22.051 12.490 22.051L12.490 22.051Q13.295 22.086 13.400 21.666L13.400 21.666Q13.645 20.581 7.485 19.916L7.485 19.916Q8.045 20.476 8.972 21.053Q9.900 21.631 10.495 21.736Z"/></svg>