<?xml version="1.0" encoding="UTF-8"?>
<svg xmlns="http://www.w3.org/2000/svg" width="32" height="32" viewBox="0 0 24 24" fill="#666666"><path d="M4.419 7.307L4.419 7.307Q4.419 7.231 4.362 7.174Q4.305 7.117 4.305 7.041L4.305 7.041Q4.191 6.889 3.887 6.528Q3.583 6.167 3.469 5.977L3.469 5.977Q3.013 5.559 2.861 5.331L2.861 5.331Q2.557 4.989 2.405 4.685L2.405 4.685Q2.861 5.179 3.583 5.635L3.583 5.635Q3.697 5.711 3.887 5.882Q4.077 6.053 4.191 6.091L4.191 6.091Q4.419 6.281 4.837 6.642Q5.255 7.003 5.483 7.193L5.483 7.193Q5.825 7.497 6.585 8.067L6.585 8.067L7.041 8.371Q8.219 9.321 8.827 9.663L8.827 9.663Q9.283 10.043 10.233 10.689Q11.183 11.335 11.677 11.677L11.677 11.677L11.677 11.563Q10.233 9.929 9.397 9.093L9.397 9.093Q8.447 7.877 7.991 7.421L7.991 7.421L6.813 5.863Q6.813 5.825 6.737 5.768Q6.661 5.711 6.661 5.635L6.661 5.635L5.597 4.191L5.445 3.925Q5.217 3.621 5.141 3.393L5.141 3.393Q5.445 3.621 5.977 4.153Q6.509 4.685 6.794 4.951Q7.079 5.217 7.744 5.806Q8.409 6.395 8.675 6.699L8.675 6.699Q8.941 6.889 9.416 7.307Q9.891 7.725 10.119 7.877L10.119 7.877L11.563 8.941Q11.715 9.093 12.019 9.321Q12.323 9.549 12.475 9.663L12.475 9.663Q15.097 11.563 16.541 12.513L16.541 12.513Q16.617 12.627 16.693 12.608Q16.769 12.589 16.769 12.399L16.769 12.399Q17.377 10.917 17.377 8.713L17.377 8.713Q17.377 7.117 16.769 5.521L16.769 5.521Q16.769 5.293 16.541 4.571L16.541 4.571L16.351 4.191Q15.971 3.393 15.705 3.013L15.705 3.013Q15.553 2.405 14.869 1.721L14.869 1.721Q14.869 1.645 14.812 1.588Q14.755 1.531 14.755 1.493L14.755 1.493Q15.211 1.721 15.933 2.177L15.933 2.177Q18.479 4.077 20.341 6.813L20.341 6.813L20.607 7.383Q21.215 8.523 21.405 9.093L21.405 9.093Q22.241 11.145 22.241 12.893L22.241 12.893L22.241 13.007Q22.241 14.071 22.127 14.527L22.127 14.527Q22.051 14.793 21.994 15.268Q21.937 15.743 21.899 15.971Q21.861 16.199 21.975 16.313L21.975 16.313Q23.419 18.099 23.761 20.227L23.761 20.227Q23.875 20.607 23.875 21.443L23.875 21.443Q23.875 22.013 23.761 22.393L23.761 22.393Q23.761 22.469 23.761 22.488Q23.761 22.507 23.666 22.507Q23.571 22.507 23.571 22.431L23.571 22.431L23.533 22.393Q22.735 20.759 21.291 20.607L21.291 20.607Q20.607 20.417 19.923 20.569L19.923 20.569Q19.391 20.645 18.669 20.949L18.669 20.949Q18.403 21.063 17.947 21.291L17.947 21.291Q17.377 21.595 17.111 21.671L17.111 21.671Q14.603 22.735 11.905 22.393L11.905 22.393Q9.929 22.165 8.333 21.557L8.333 21.557L8.219 21.557Q7.877 21.367 7.155 21.063Q6.433 20.759 6.091 20.607L6.091 20.607Q2.633 18.707 0.277 15.249L0.277 15.249L0.125 15.135L0.277 15.135L0.391 15.249Q1.075 15.743 1.569 15.971L1.569 15.971L2.025 16.237Q2.671 16.617 2.975 16.693L2.975 16.693Q3.849 17.187 5.027 17.377L5.027 17.377Q5.065 17.453 5.122 17.453Q5.179 17.453 5.255 17.529L5.255 17.529Q6.851 17.985 9.055 17.985L9.055 17.985Q11.487 17.795 13.311 16.807L13.311 16.807Q13.501 16.693 13.501 16.674Q13.501 16.655 13.311 16.579L13.311 16.579Q12.779 16.161 11.715 15.211L11.715 15.211L10.955 14.527Q10.651 14.299 10.119 13.767Q9.587 13.235 9.283 13.007L9.283 13.007Q8.827 12.627 8.105 11.677L8.105 11.677Q7.991 11.525 7.687 11.221Q7.383 10.917 7.269 10.727L7.269 10.727Q7.041 10.499 6.566 9.967Q6.091 9.435 5.882 9.188Q5.673 8.941 5.312 8.542Q4.951 8.143 4.761 7.877L4.761 7.877Q4.761 7.649 4.419 7.307Z"/></svg>