<?xml version="1.0" encoding="UTF-8"?>
<svg xmlns="http://www.w3.org/2000/svg" width="32" height="32" viewBox="0 0 24 24" fill="#666666"><path d="M23.802 23.172L23.802 0.702L23.802 0.198L0.198 0.198L0.198 23.802L23.172 23.802Q23.550 23.802 23.676 23.676Q23.802 23.550 23.802 23.172L23.802 23.172ZM9.900 13.428L9.900 13.428Q9.144 13.638 7.716 13.764L7.716 13.764L6.750 13.848L6.750 18.552L4.398 18.552Q4.314 18.552 4.230 18.342Q4.146 18.132 4.146 17.922L4.146 17.922L4.146 5.448Q4.146 5.364 4.839 5.259Q5.532 5.154 6.078 5.154L6.078 5.154Q8.472 5.154 9.522 5.322L9.522 5.322Q11.118 5.490 12.042 6.477Q12.966 7.464 13.050 8.976L13.050 8.976Q13.134 10.656 12.294 11.853Q11.454 13.050 9.900 13.428ZM20.022 16.074L20.022 16.074Q19.812 17.796 18.174 18.426L18.174 18.426Q15.948 19.350 13.428 18.300L13.428 18.300Q13.344 18.300 13.260 18.153Q13.176 18.006 13.176 17.922L13.176 17.922Q13.428 16.872 13.554 16.452L13.554 16.452Q14.100 16.536 15.108 16.746L15.108 16.746Q15.864 16.914 16.242 16.998Q16.620 17.082 16.956 16.872Q17.292 16.662 17.376 16.200L17.376 16.200Q17.544 15.486 16.578 14.898L16.578 14.898Q16.284 14.688 15.528 14.436L15.528 14.436L15.276 14.352Q14.184 13.848 13.701 13.134Q13.218 12.420 13.302 11.328L13.302 11.328Q13.428 10.446 14.079 9.795Q14.730 9.144 15.822 8.850L15.822 8.850Q17.502 8.472 19.224 9.102L19.224 9.102Q19.308 9.102 19.434 9.333Q19.560 9.564 19.476 9.648L19.476 9.648L19.098 11.076Q17.796 10.824 17.250 10.698L17.250 10.698Q16.578 10.698 16.326 10.824L16.326 10.824Q15.822 11.034 15.738 11.496Q15.654 11.958 16.074 12.252L16.074 12.252Q16.200 12.420 16.515 12.546Q16.830 12.672 17.019 12.798Q17.208 12.924 17.796 13.176L17.796 13.176Q18.216 13.344 18.426 13.428L18.426 13.428Q20.022 14.016 20.022 16.074ZM9.228 7.422L9.228 7.422Q8.724 7.338 7.842 7.254L7.842 7.254L6.750 7.128L6.750 11.622Q7.800 11.706 8.325 11.664Q8.850 11.622 9.480 11.349Q10.110 11.076 10.362 10.446L10.362 10.446Q10.572 9.984 10.572 9.270Q10.572 8.556 10.215 8.073Q9.858 7.590 9.228 7.422Z"/></svg>