<?xml version="1.0" encoding="UTF-8"?>
<svg xmlns="http://www.w3.org/2000/svg" width="32" height="32" viewBox="0 0 24 24" fill="#666666"><path d="M10.109 6.473L10.109 4.427L12.188 4.427L12.188 6.473L10.109 6.473ZM10.109 8.849L10.109 6.803L12.188 6.803L12.188 8.849L10.109 8.849ZM10.109 11.324L10.109 9.277L12.188 9.277L12.188 11.324L10.109 11.324ZM7.733 8.849L7.733 6.803L9.812 6.803L9.812 8.849L7.733 8.849ZM7.733 11.324L7.733 9.277L9.812 9.277L9.812 11.324L7.733 11.324ZM5.258 8.849L5.258 6.803L7.337 6.803L7.337 8.849L5.258 8.849ZM5.258 11.324L5.258 9.277L7.337 9.277L7.337 11.324L5.258 11.324ZM2.882 11.324L2.882 9.277L4.961 9.277L4.961 11.324L2.882 11.324ZM12.584 11.324L12.584 9.277L14.663 9.277L14.663 11.324L12.584 11.324ZM23.111 9.575L23.111 9.575Q22.286 9.377 21.758 9.377L21.758 9.377Q21.032 9.509 20.735 8.750Q20.438 7.991 19.811 7.495L19.811 7.495Q19.349 6.968 18.920 7.083Q18.491 7.198 18.260 7.826L18.260 7.826Q17.963 8.816 18.161 10.103L18.161 10.103Q18.326 10.796 18.177 11.043Q18.029 11.291 17.319 11.456Q16.610 11.620 8.492 11.654L8.492 11.654Q4.433 11.654 0.539 11.620L0.539 11.620L0.539 11.620Q0.374 11.620 0.291 11.934Q0.209 12.248 0.209 12.677L0.209 12.677Q0.209 13.238 0.308 13.997L0.308 13.997Q0.407 14.987 0.638 15.449L0.638 15.449Q1.430 17.230 2.717 18.287L2.717 18.287Q4.136 19.442 5.984 19.574L5.984 19.574L10.637 19.574Q12.782 19.508 14.696 18.485L14.696 18.485Q16.412 17.593 18.062 15.878L18.062 15.878Q19.382 14.360 20.108 12.776L20.108 12.776Q20.405 12.215 21.065 12.082Q21.725 11.951 22.055 11.852L22.055 11.852Q22.550 11.720 22.913 11.422L22.913 11.422Q23.012 11.225 23.309 10.928L23.309 10.928Q23.837 10.532 23.787 10.136Q23.738 9.739 23.111 9.575ZM7.733 14.822L7.733 14.822Q8.063 14.822 8.310 15.053Q8.558 15.284 8.558 15.663Q8.558 16.043 8.343 16.257Q8.129 16.471 7.766 16.471Q7.403 16.471 7.155 16.257Q6.908 16.043 6.908 15.663Q6.908 15.284 7.155 15.053Q7.403 14.822 7.733 14.822ZM2.684 17.099L2.684 17.099Q3.047 17.066 3.740 17.099L3.740 17.099Q4.664 17.132 5.060 17.000L5.060 17.000Q5.819 16.736 6.330 16.917Q6.842 17.099 7.238 17.825L7.238 17.825Q7.403 18.188 7.799 18.485L7.799 18.485Q8.030 18.650 8.624 18.980L8.624 18.980L8.987 19.178Q7.271 19.409 5.555 18.831Q3.839 18.254 2.684 17.099Z"/></svg>