<?xml version="1.0" encoding="UTF-8"?>
<svg xmlns="http://www.w3.org/2000/svg" width="32" height="32" viewBox="0 0 24 24" fill="#666666"><path d="M21.330 17.405L21.330 22.152Q19.732 22.951 18.063 23.398Q16.395 23.844 14.562 23.844L14.562 23.844Q9.063 23.844 5.867 20.648Q2.671 17.452 2.671 12Q2.671 6.548 5.867 3.352Q9.063 0.156 14.562 0.156L14.562 0.156Q16.395 0.156 18.087 0.579Q19.779 1.002 21.330 1.848L21.330 1.848L21.330 6.595Q19.732 5.467 18.204 4.950Q16.677 4.433 15.031 4.433L15.031 4.433Q11.976 4.433 10.238 6.454Q8.499 8.475 8.499 12Q8.499 15.525 10.238 17.546Q11.976 19.567 15.031 19.567L15.031 19.567Q16.677 19.567 18.204 19.050Q19.732 18.533 21.330 17.405L21.330 17.405Z"/></svg>