<?xml version="1.0" encoding="UTF-8"?>
<svg xmlns="http://www.w3.org/2000/svg" width="32" height="32" viewBox="0 0 24 24" fill="#666666"><path d="M11.426 12.105L11.426 12.105L11.006 12.903Q9.998 14.919 9.830 16.179L9.830 16.179Q9.704 16.473 9.704 17.229L9.704 17.229L9.704 17.775Q10.670 18.153 11.804 18.153L11.804 18.153Q12.476 18.153 13.778 17.901L13.778 17.901L13.400 17.523Q12.896 16.683 12.434 15.339L12.434 15.339Q12.056 14.247 11.426 12.105ZM8.402 6.729L8.402 6.729Q7.184 7.653 6.470 8.997Q5.756 10.341 5.756 11.874Q5.756 13.407 6.470 14.730Q7.184 16.053 8.402 16.977L8.402 16.977Q8.570 16.263 8.990 15.339L8.990 15.339Q9.242 14.751 9.956 13.407L9.956 13.407Q10.712 11.895 11.132 10.929L11.132 10.929Q11.090 10.803 11.027 10.551Q10.964 10.299 10.880 10.173L10.880 10.173Q10.208 8.367 9.452 7.401L9.452 7.401Q8.864 7.191 8.402 6.729ZM17.432 19.077L17.432 19.077Q15.878 18.825 15.332 18.699L15.332 18.699Q13.778 19.455 12.056 19.455L12.056 19.455Q9.998 19.455 8.297 18.447Q6.596 17.439 5.588 15.717Q4.580 13.995 4.580 11.979L4.580 11.979Q4.580 10.383 5.294 8.871L5.294 8.871Q5.924 7.485 7.100 6.351L7.100 6.351Q6.680 6.225 5.756 6.225L5.756 6.225Q3.950 6.225 2.564 7.233L2.564 7.233Q1.010 8.409 0.254 10.803L0.254 10.803Q0.128 11.349 0.128 12.105L0.128 12.105Q0.128 15.339 1.703 18.048Q3.278 20.757 5.987 22.353Q8.696 23.949 11.930 23.949L11.930 23.949Q14.828 23.949 17.432 22.563L17.432 22.563Q19.952 21.261 21.632 18.951L21.632 18.951Q19.868 19.329 18.356 19.329L18.356 19.329Q17.978 19.077 17.432 19.077ZM11.930 0.051L11.930 0.051Q9.032 0.051 6.491 1.395Q3.950 2.739 2.354 5.049L2.354 5.049Q3.824 4.125 5.630 4.125L5.630 4.125Q6.512 4.125 7.436 4.335L7.436 4.335Q8.150 4.545 8.654 4.755L8.654 4.755Q8.738 4.839 8.864 4.902Q8.990 4.965 9.032 5.049L9.032 5.049Q10.586 4.377 12.056 4.377L12.056 4.377Q14.114 4.377 15.836 5.406Q17.558 6.435 18.545 8.136Q19.532 9.837 19.532 11.853L19.532 11.853Q19.532 14.793 17.306 17.229L17.306 17.229L18.356 17.229Q20.834 17.229 22.178 16.053L22.178 16.053Q23.396 15.087 23.732 13.323L23.732 13.323Q23.732 13.029 23.816 12.483L23.816 12.483Q23.900 12.063 23.858 11.853L23.858 11.853Q23.816 8.619 22.199 5.910Q20.582 3.201 17.936 1.647L17.936 1.647Q15.164 0.051 11.930 0.051Z"/></svg>