<?xml version="1.0" encoding="UTF-8"?>
<svg xmlns="http://www.w3.org/2000/svg" width="32" height="32" viewBox="0 0 24 24" fill="#666666"><path d="M20.093 18.987L20.093 18.987L9.113 22.155Q8.861 22.227 8.663 22.047Q8.465 21.867 8.537 21.651L8.537 21.651L12.461 3.327Q12.497 3.075 12.785 3.039Q13.073 3.003 13.181 3.255L13.181 3.255L20.417 18.267Q20.525 18.483 20.435 18.699Q20.345 18.915 20.093 18.987ZM22.001 18.231L22.001 18.231L13.577 0.843Q13.397 0.519 13.091 0.321Q12.785 0.123 12.425 0.087Q12.065 0.051 11.723 0.231Q11.381 0.411 11.201 0.699L11.201 0.699L2.093 15.099Q1.877 15.423 1.877 15.819Q1.877 16.215 2.093 16.539L2.093 16.539L6.557 23.271Q6.737 23.595 7.061 23.757Q7.385 23.919 7.745 23.919L7.745 23.919Q7.961 23.919 8.177 23.847L8.177 23.847L21.101 20.139Q21.713 19.959 21.983 19.383Q22.253 18.807 22.001 18.231Z"/></svg>