<?xml version="1.0" encoding="UTF-8"?>
<svg xmlns="http://www.w3.org/2000/svg" width="32" height="32" viewBox="0 0 24 24" fill="#666666"><path d="M23.800 21.475L19.600 6.625L17.700 7.225Q17.050 5.075 16.050 3.425L16.050 3.425Q14.400 0.825 12.400 0.825Q10.400 0.825 8.700 3.525L8.700 3.525Q7.650 5.125 6.950 7.225L6.950 7.225L4.750 6.625L0.200 21.275L5.850 23.025L10.400 8.325L8.350 7.725Q8.800 6.025 9.850 4.425L9.850 4.425Q11.100 2.375 12.250 2.375Q13.400 2.375 14.600 4.425L14.600 4.425Q15.550 5.975 16.000 7.725L16.000 7.725L13.650 8.475L18.200 23.175L23.800 21.475Z"/></svg>