<?xml version="1.0" encoding="UTF-8"?>
<svg xmlns="http://www.w3.org/2000/svg" width="32" height="32" viewBox="0 0 24 24" fill="#666666"><path d="M23.780 10.803L23.818 10.803Q23.628 8.029 21.918 5.331L21.918 5.331Q20.664 3.469 18.916 2.234Q17.168 0.999 15.002 0.467L15.002 0.467Q13.748 0.125 12.646 0.125L12.646 0.125L10.746 0.125Q7.326 0.467 4.438 2.595L4.438 2.595Q1.132 5.369 0.296 9.245L0.296 9.245Q0.068 10.423 0.068 11.145L0.068 11.145L0.068 13.045Q0.448 16.351 2.082 18.631L2.082 18.631Q4.172 21.709 7.288 22.925L7.288 22.925Q9.454 23.685 11.202 23.875L11.202 23.875L13.102 23.875Q17.434 23.495 20.474 20.303L20.474 20.303Q22.944 17.833 23.666 14.375L23.666 14.375Q23.742 14.071 23.799 13.539Q23.856 13.007 23.932 12.703L23.932 12.703L23.932 11.411Q23.780 11.145 23.780 10.803L23.780 10.803ZM11.924 21.975L11.924 21.975Q9.188 21.975 6.870 20.569L6.870 20.569Q4.590 19.239 3.279 16.921Q1.968 14.603 1.968 11.867Q1.968 9.131 3.317 6.813Q4.666 4.495 6.984 3.165L6.984 3.165Q9.378 1.759 12.152 1.759L12.152 1.759Q14.850 1.835 17.149 3.184Q19.448 4.533 20.778 6.813L20.778 6.813Q22.146 9.131 22.108 11.867Q22.070 14.603 20.683 16.921Q19.296 19.239 17.016 20.569L17.016 20.569Q14.660 21.975 11.924 21.975ZM15.496 18.289L14.774 18.289Q14.432 18.289 14.166 18.175L14.166 18.175Q14.014 18.175 13.900 17.947L13.900 17.947Q13.862 17.833 13.824 17.795L13.824 17.795L13.824 10.081Q12.874 10.157 11.031 10.214Q9.188 10.271 8.238 10.309L8.238 10.309L8.238 11.259L9.416 11.259Q9.758 11.259 9.948 11.487Q10.138 11.715 10.138 12.095L10.138 12.095L10.138 17.567Q10.138 18.289 9.416 18.289L9.416 18.289L8.352 18.289L8.352 19.239L15.496 19.239L15.496 18.289ZM11.696 8.675L11.696 8.675Q12.570 8.675 13.140 8.067Q13.710 7.459 13.710 6.642Q13.710 5.825 13.102 5.217Q12.494 4.609 11.658 4.609Q10.822 4.609 10.252 5.217Q9.682 5.825 9.682 6.642Q9.682 7.459 10.290 8.067Q10.898 8.675 11.696 8.675Z"/></svg>