<?xml version="1.0" encoding="UTF-8"?>
<svg xmlns="http://www.w3.org/2000/svg" width="32" height="32" viewBox="0 0 24 24" fill="#666666"><path d="M18.838 10.302L22.270 10.302L22.270 23.979L1.730 23.979L1.730 10.302L5.162 10.302L5.162 6.918Q5.162 6.354 5.255 5.884L5.255 5.884Q5.490 4.051 6.642 2.618Q7.793 1.184 9.509 0.503Q11.224-0.179 13.104 0.103L13.104 0.103Q15.548 0.526 17.194 2.453Q18.838 4.380 18.838 6.871L18.838 6.871L18.838 10.302ZM8.545 10.302L15.407 10.302Q15.407 10.255 15.407 10.208L15.407 10.208L15.407 6.777Q15.407 6.542 15.360 6.213L15.360 6.213Q15.078 4.850 14.021 4.098Q12.963 3.346 11.553 3.487L11.553 3.487Q10.284 3.581 9.415 4.592Q8.545 5.602 8.545 6.918L8.545 6.918L8.545 10.302Z"/></svg>