<?xml version="1.0" encoding="UTF-8"?>
<svg xmlns="http://www.w3.org/2000/svg" width="32" height="32" viewBox="0 0 24 24" fill="#666666"><path d="M13.615 15.116L13.415 16.076Q13.095 16.076 12.575 16.156L12.575 16.156Q12.215 16.196 12.055 16.196L12.055 16.196L9.815 16.196Q10.055 13.516 10.495 8.196Q10.935 2.876 11.175 0.196L11.175 0.196L12.655 0.196Q14.375 0.116 15.175 0.196L15.175 0.196Q15.455 0.196 15.735 0.556Q16.015 0.916 15.935 1.196L15.935 1.196Q15.655 3.196 14.935 7.236L14.935 7.236L14.415 9.956Q14.215 11.636 13.615 15.116L13.615 15.116ZM13.935 21.076L13.935 21.076Q14.015 22.116 13.255 22.936Q12.495 23.756 11.295 23.836Q10.095 23.916 9.115 23.256Q8.135 22.596 8.055 21.596L8.055 21.596Q7.975 20.436 8.735 19.676Q9.495 18.916 10.815 18.836Q12.135 18.756 12.995 19.356Q13.855 19.956 13.935 21.076Z"/></svg>