<?xml version="1.0" encoding="UTF-8"?>
<svg xmlns="http://www.w3.org/2000/svg" width="32" height="32" viewBox="0 0 24 24" fill="#666666"><path d="M4.426 7.310L4.426 0.338L11.398 0.338L11.426 5.658L14.254 8.486L14.282 8.486L19.574 8.486L19.574 15.486L14.310 15.486Q14.254 15.458 14.170 15.570L14.170 15.570L11.426 18.314L11.398 23.662L4.426 23.662L4.426 16.662L9.774 16.662L12.630 13.806L12.630 10.166L9.774 7.310L4.426 7.310ZM6.778 4.986L6.778 2.662L9.074 2.662L9.074 4.986L6.778 4.986ZM6.778 21.310L6.778 19.014L9.074 19.014L9.074 21.310L6.778 21.310Z"/></svg>