<?xml version="1.0" encoding="UTF-8"?>
<svg xmlns="http://www.w3.org/2000/svg" width="32" height="32" viewBox="0 0 24 24" fill="#666666"><path d="M7.635 6.765L7.635 0.735L23.925 0.735L23.925 6.765L7.635 6.765ZM0.015 3.735L0.015 3.735Q0.015 4.845 0.735 5.610Q1.455 6.375 2.475 6.375Q3.495 6.375 4.230 5.610Q4.965 4.845 4.965 3.750Q4.965 2.655 4.230 1.890Q3.495 1.125 2.475 1.125Q1.455 1.125 0.735 1.890Q0.015 2.655 0.015 3.735ZM7.695 15.015L7.695 8.985L23.985 8.985L23.985 15.015L7.695 15.015ZM0.075 11.985L0.075 11.985Q0.075 13.065 0.795 13.830Q1.515 14.595 2.550 14.595Q3.585 14.595 4.305 13.830Q5.025 13.065 5.025 11.985Q5.025 10.905 4.305 10.140Q3.585 9.375 2.550 9.375Q1.515 9.375 0.795 10.140Q0.075 10.905 0.075 11.985ZM7.695 23.265L7.695 17.205L23.985 17.205L23.985 23.265L7.695 23.265ZM0.075 20.235L0.075 20.235Q0.075 21.315 0.795 22.080Q1.515 22.845 2.550 22.845Q3.585 22.845 4.305 22.080Q5.025 21.315 5.025 20.235Q5.025 19.155 4.305 18.390Q3.585 17.625 2.550 17.625Q1.515 17.625 0.795 18.390Q0.075 19.155 0.075 20.235Z"/></svg>