<?xml version="1.0" encoding="UTF-8"?>
<svg xmlns="http://www.w3.org/2000/svg" width="32" height="32" viewBox="0 0 24 24" fill="#666666"><path d="M23.306 21.102L23.343 21.028L23.343 5.414Q23.343 4.489 23.195 4.008L23.195 4.008Q23.047 3.083 22.048 2.306L22.048 2.306Q21.715 2.047 21.530 1.973L21.530 1.973Q21.197 1.825 20.901 1.825L20.901 1.825Q20.827 1.825 20.808 1.806Q20.790 1.788 20.790 1.714L20.790 1.714L2.623 1.714Q2.623 1.936 2.179 1.936L2.179 1.936Q0.884 2.417 0.329 3.897L0.329 3.897Q0.218 4.156 0.218 4.600L0.218 4.600L0.218 9.928Q0.218 10.187 0.255 10.206Q0.292 10.224 0.551 10.150L0.551 10.150L1.143 9.928Q1.439 9.854 1.735 9.373L1.735 9.373Q1.846 9.188 1.920 9.114L1.920 9.114L2.031 8.966Q2.327 8.485 2.623 8.300L2.623 8.300Q2.808 8.115 2.993 8.115Q3.178 8.115 3.437 8.300L3.437 8.300L3.696 8.485Q4.029 8.707 4.251 8.781L4.251 8.781Q4.991 9.003 5.398 8.892L5.398 8.892Q5.620 8.892 5.731 8.707L5.731 8.707Q5.842 8.633 5.953 8.411L5.953 8.411L5.990 8.300Q6.212 7.856 6.360 7.745Q6.508 7.634 6.619 7.634L6.619 7.634L7.026 7.597Q7.470 7.671 7.914 8.078L7.914 8.078Q8.173 8.300 8.654 8.892L8.654 8.892Q8.802 9.188 9.098 9.336L9.098 9.336Q9.320 9.447 9.801 9.928L9.801 9.928Q10.134 10.335 10.948 10.964L10.948 10.964Q11.503 11.408 11.762 11.667L11.762 11.667Q12.391 12.259 13.168 12.592L13.168 12.592Q13.760 12.777 14.130 12.740L14.130 12.740Q14.611 12.666 15.018 12.111L15.018 12.111Q15.758 11.186 15.943 10.150L15.943 10.150Q16.017 9.928 16.313 9.521L16.313 9.521L16.498 9.225L16.609 9.225Q17.275 9.114 18.237 9.336L18.237 9.336Q18.570 9.336 18.829 9.447L18.829 9.447L19.273 9.558Q19.902 9.669 20.216 9.817Q20.531 9.965 20.642 10.279Q20.753 10.594 20.679 10.964L20.679 10.964Q20.605 11.186 20.549 11.223Q20.494 11.260 20.383 11.223Q20.272 11.186 20.198 11.186L20.198 11.186L19.865 11.186Q19.384 11.297 18.459 11.778L18.459 11.778Q18.274 11.852 18.144 12.018Q18.015 12.185 18.015 12.370L18.015 12.370Q17.830 13.036 17.312 13.406L17.312 13.406L17.238 13.480Q17.090 13.554 17.090 13.739L17.090 13.739Q16.979 13.813 16.849 13.980Q16.720 14.146 16.609 14.220L16.609 14.220Q15.536 15.293 13.612 15.478L13.612 15.478L11.762 15.478Q11.614 15.478 11.577 15.534Q11.540 15.589 11.540 15.700L11.540 15.700Q11.577 15.922 11.577 16.384Q11.577 16.847 11.669 17.087Q11.762 17.328 11.762 17.772L11.762 17.772Q11.762 18.475 12.354 19.067L12.354 19.067Q12.465 19.178 12.465 19.400L12.465 19.400Q12.465 20.214 12.576 20.547L12.576 20.547L12.613 20.806Q12.835 21.694 13.020 22.064L13.020 22.064Q13.168 22.175 13.242 22.212Q13.316 22.249 13.408 22.194Q13.501 22.138 13.723 22.064Q13.945 21.990 14.093 21.953L14.093 21.953Q14.463 21.805 15.018 21.731L15.018 21.731Q15.351 21.731 16.054 21.731L16.054 21.731Q16.424 21.731 17.201 21.694L17.201 21.694Q18.163 21.620 18.644 21.657L18.644 21.657Q19.421 21.657 20.087 21.842L20.087 21.842Q20.309 21.879 20.716 21.934Q21.123 21.990 21.345 22.064L21.345 22.064Q21.826 22.212 22.344 22.249L22.344 22.249Q22.677 22.286 23.343 22.286L23.343 22.286Q23.787 22.286 23.787 21.842L23.787 21.842Q23.454 21.583 23.380 21.435Q23.306 21.287 23.306 21.102L23.306 21.102ZM5.620 18.031L5.620 17.772L5.768 17.661Q5.953 16.662 6.545 16.033L6.545 16.033L6.434 16.033Q5.361 16.033 4.140 15.700L4.140 15.700Q2.993 15.478 2.401 14.886L2.401 14.886Q2.142 14.627 1.827 14.701Q1.513 14.775 1.365 15.145L1.365 15.145Q1.365 15.182 1.309 15.348Q1.254 15.515 1.254 15.589L1.254 15.589Q0.884 16.292 0.440 16.736L0.440 16.736Q0.181 17.217 0.218 17.550L0.218 17.550L0.218 19.733Q0.218 20.103 0.551 20.140Q0.884 20.177 1.439 20.362L1.439 20.362Q1.846 20.510 2.031 20.547L2.031 20.547L2.586 20.732Q3.622 21.139 4.140 21.139L4.140 21.139Q4.473 21.139 4.547 21.084Q4.621 21.028 4.695 20.658L4.695 20.658Q4.695 20.621 4.769 20.566Q4.843 20.510 4.843 20.436L4.843 20.436L4.695 20.436L4.843 20.436L4.843 20.214L4.843 20.325Q4.843 20.288 4.898 20.214Q4.954 20.140 4.954 20.103L4.954 20.103L4.954 19.992Q5.065 19.733 5.065 19.400L5.065 19.400Q5.065 18.956 5.176 18.808L5.176 18.808L5.176 18.697Q5.361 18.623 5.583 18.179L5.583 18.179L5.620 18.031ZM11.429 19.992L11.429 19.992Q11.133 19.696 10.948 19.178L10.948 19.178Q10.948 18.808 10.837 18.808L10.837 18.808Q10.837 18.549 10.689 18.105L10.689 18.105L10.615 17.883Q10.245 16.699 9.209 15.811L9.209 15.811Q8.765 15.552 8.524 15.571Q8.284 15.589 7.951 15.922L7.951 15.922Q7.877 15.996 7.821 16.107Q7.766 16.218 7.729 16.292L7.729 16.292Q7.026 17.439 6.693 18.142L6.693 18.142L6.619 18.253Q6.434 18.549 6.434 18.845L6.434 18.845Q6.360 18.882 6.304 19.085Q6.249 19.289 6.212 19.400L6.212 19.400Q5.916 19.696 5.546 20.510L5.546 20.510L5.398 20.806Q5.398 20.843 5.361 20.898Q5.324 20.954 5.398 21.028L5.398 21.028L5.620 21.028Q6.545 20.806 7.026 20.547L7.026 20.547Q8.025 20.066 9.209 20.436L9.209 20.436Q9.690 20.621 10.134 20.880L10.134 20.880Q10.430 21.065 10.948 21.472L10.948 21.472Q11.318 21.731 11.984 21.953L11.984 21.953L12.243 21.953L12.243 21.842Q12.058 21.509 11.873 20.954L11.873 20.954Q11.614 20.288 11.429 19.992Z"/></svg>