<?xml version="1.0" encoding="UTF-8"?>
<svg xmlns="http://www.w3.org/2000/svg" width="32" height="32" viewBox="0 0 24 24" fill="#666666"><path d="M18.403 16.275L21.975 18.441L12.475 23.875L12.475 19.619L18.403 16.275ZM19.125 15.819L22.697 17.833L22.697 6.433L19.125 8.447L19.125 15.819ZM5.711 16.275L2.025 18.441L11.639 23.875L11.639 19.619L5.711 16.275ZM4.875 15.819L1.303 17.833L1.303 6.433L4.875 8.447L4.875 15.819ZM5.217 7.611L1.683 5.711L11.525 0.125L11.525 4.191L5.217 7.611ZM18.783 7.611L22.317 5.711L12.475 0.125L12.475 4.191L18.783 7.611ZM11.525 12.513L11.525 18.669L5.597 15.477L5.597 9.055L11.525 12.513ZM12.475 12.513L12.475 18.669L18.403 15.477L18.403 9.055L12.475 12.513ZM12.019 11.677L6.053 8.219L12.019 5.027L17.947 8.219L12.019 11.677Z"/></svg>