<?xml version="1.0" encoding="UTF-8"?>
<svg xmlns="http://www.w3.org/2000/svg" width="32" height="32" viewBox="0 0 24 24" fill="#666666"><path d="M12.222 2.158L12.222 2.158L12.222 10.853Q12.296 10.853 12.314 10.835Q12.333 10.816 12.333 10.742L12.333 10.742L12.407 10.705Q12.444 10.668 12.444 10.594L12.444 10.594L12.518 10.594Q12.555 10.557 12.555 10.483L12.555 10.483Q12.666 10.483 12.684 10.483Q12.703 10.483 12.703 10.372L12.703 10.372Q12.777 10.372 12.795 10.354Q12.814 10.335 12.814 10.261L12.814 10.261Q12.925 10.261 12.925 10.039L12.925 10.039L12.925 2.972Q12.925 2.639 13.258 2.639L13.258 2.639L13.961 2.639Q14.220 2.639 14.257 2.676Q14.294 2.713 14.294 2.972L14.294 2.972L14.294 8.744L14.405 8.744Q14.516 8.744 14.534 8.744Q14.553 8.744 14.553 8.633L14.553 8.633L14.553 8.522L14.775 8.300Q14.849 8.226 14.812 8.152L14.812 8.152L14.775 8.078L14.775 3.675L16.033 3.675L16.033 6.894Q16.107 6.894 16.163 6.838Q16.218 6.783 16.255 6.783L16.255 6.783L17.550 5.525Q17.661 5.525 17.661 5.303L17.661 5.303L17.661 3.564Q17.809 3.490 18.105 3.527L18.105 3.527L18.364 3.564L18.623 3.527Q18.956 3.490 19.030 3.564Q19.104 3.638 19.067 4.008L19.067 4.008L19.030 4.267L19.030 4.822L19.067 4.933L19.178 5.044L19.104 5.044L20.214 5.044Q20.325 5.044 20.380 5.100Q20.436 5.155 20.436 5.303L20.436 5.303L20.436 6.450L20.103 6.450Q20.140 6.376 20.251 6.376Q20.362 6.376 20.436 6.339L20.436 6.339L18.808 6.339Q18.734 6.339 18.715 6.358Q18.697 6.376 18.697 6.450L18.697 6.450L18.216 6.894Q17.513 7.560 17.180 7.967L17.180 7.967Q17.180 8.078 17.439 8.078L17.439 8.078L20.214 8.078Q20.362 8.078 20.399 8.097Q20.436 8.115 20.436 8.300L20.436 8.300L20.436 9.114Q20.436 9.299 20.380 9.373Q20.325 9.447 20.103 9.447L20.103 9.447L15.922 9.447L15.848 9.447Q15.774 9.410 15.737 9.428Q15.700 9.447 15.700 9.558L15.700 9.558L14.294 10.964L20.436 10.964L20.436 12Q20.436 12.148 20.362 12.185Q20.288 12.222 20.103 12.222L20.103 12.222L12.814 12.222Q12.703 12.222 12.703 12.241Q12.703 12.259 12.703 12.333L12.703 12.333Q12.592 12.333 12.573 12.352Q12.555 12.370 12.555 12.444L12.555 12.444Q12.481 12.444 12.463 12.463Q12.444 12.481 12.444 12.592L12.444 12.592Q12.370 12.592 12.351 12.592Q12.333 12.592 12.333 12.703L12.333 12.703Q12.259 12.703 12.240 12.722Q12.222 12.740 12.222 12.814L12.222 12.814Q12.148 12.814 12.129 12.832Q12.111 12.851 12.111 12.925L12.111 12.925Q12.037 12.925 12.018 12.944Q12.000 12.962 12.037 13.036Q12.074 13.110 12.148 13.073L12.148 13.073L12.222 13.036L20.880 13.036Q20.991 13.036 21.009 13.055Q21.028 13.073 21.028 13.147L21.028 13.147L21.028 13.961Q21.028 14.220 20.972 14.276Q20.917 14.331 20.658 14.331L20.658 14.331L10.372 14.331L10.261 14.442Q10.187 14.553 10.021 14.720Q9.854 14.886 9.780 14.997L9.780 14.997Q9.854 15.071 10.039 15.034L10.039 15.034L10.150 14.997L21.583 14.997Q21.694 14.997 21.749 15.034Q21.805 15.071 21.805 15.256L21.805 15.256L21.805 16.403L8.633 16.403Q8.411 16.403 8.300 16.514L8.300 16.514L7.005 17.772Q7.005 17.846 7.153 17.883L7.153 17.883L7.264 17.883L22.989 17.883Q23.137 17.883 23.174 17.920Q23.211 17.957 23.211 18.142L23.211 18.142L23.211 20.325Q23.211 20.584 23.174 20.621Q23.137 20.658 22.841 20.658L22.841 20.658L5.858 20.658Q5.784 20.732 5.821 20.843L5.821 20.843L5.858 20.917L5.858 23.544L3.194 23.544Q3.046 23.544 3.009 23.489Q2.972 23.433 2.972 23.322L2.972 23.322L2.972 20.658Q2.898 20.584 2.842 20.621Q2.787 20.658 2.750 20.658L2.750 20.658L0.419 20.658Q0.271 20.658 0.234 20.639Q0.197 20.621 0.197 20.436L0.197 20.436L0.197 18.142Q0.197 17.957 0.252 17.920Q0.308 17.883 0.419 17.883L0.419 17.883L2.972 17.883L0.197 17.883Q0.271 17.809 0.326 17.846Q0.382 17.883 0.419 17.883L0.419 17.883L3.083 17.883Q3.194 17.772 3.083 17.661L3.083 17.661L3.083 0.900Q3.083 0.715 3.120 0.697Q3.157 0.678 3.305 0.678L3.305 0.678L5.525 0.678Q5.784 0.678 5.821 0.715Q5.858 0.752 5.858 1.011L5.858 1.011L5.858 16.958Q6.006 16.884 6.228 16.625L6.228 16.625L6.672 16.144Q7.042 15.737 7.264 15.589L7.264 15.589Q7.375 15.589 7.375 15.367L7.375 15.367L7.375 2.158Q7.523 2.084 7.930 2.158L7.930 2.158L8.189 2.158L8.411 2.158Q8.670 2.084 8.744 2.158Q8.818 2.232 8.781 2.491L8.781 2.491L8.744 2.750L8.744 13.961Q9.669 13.036 10.261 12.592L10.261 12.592Q10.335 12.518 10.372 12.407L10.372 12.407L10.372 12.333L10.372 2.158L11.630 2.158Q11.741 2.158 11.759 2.177Q11.778 2.195 11.778 2.269L11.778 2.269Q12.037 2.121 12.148 2.158L12.148 2.158L12.222 2.158Q12.111 5.044 12.111 10.594L12.111 10.594L12.111 10.853Q12.185 10.779 12.148 10.594L12.148 10.594L12.111 10.483L12.111 2.417Q12.148 2.417 12.148 2.325Q12.148 2.232 12.222 2.158ZM23.544 20.658L6.450 20.658Q6.524 20.584 6.672 20.658L6.672 20.658L6.783 20.658L23.433 20.658Q23.692 20.658 23.747 20.621Q23.803 20.584 23.803 20.325L23.803 20.325L23.803 18.142Q23.803 17.957 23.766 17.920Q23.729 17.883 23.544 17.883L23.544 17.883L7.819 17.883L7.745 17.920Q7.671 17.920 7.634 17.901Q7.597 17.883 7.597 17.772L7.597 17.772L23.655 17.772Q23.766 17.772 23.785 17.809Q23.803 17.846 23.803 17.994L23.803 17.994L23.803 20.436Q23.803 20.621 23.766 20.639Q23.729 20.658 23.544 20.658L23.544 20.658ZM6.450 0.678L6.450 16.736Q6.376 16.662 6.413 16.514L6.413 16.514L6.450 16.403L6.450 0.789Q6.450 0.530 6.394 0.475Q6.339 0.419 6.080 0.419L6.080 0.419L3.897 0.419Q3.712 0.419 3.693 0.456Q3.675 0.493 3.675 0.678L3.675 0.678L3.675 0.567Q3.564 0.456 3.582 0.438Q3.601 0.419 3.786 0.419L3.786 0.419L6.228 0.419Q6.339 0.419 6.394 0.475Q6.450 0.530 6.450 0.678L6.450 0.678ZM15.108 7.967L15.108 7.967Q15.034 7.893 15.071 7.782L15.071 7.782L15.108 7.708L15.108 2.158Q15.108 1.899 15.071 1.862Q15.034 1.825 14.775 1.825L14.775 1.825L14.072 1.825Q13.739 1.825 13.739 2.158L13.739 2.158L13.739 9.225Q13.739 9.447 13.591 9.447L13.591 9.447Q13.739 9.336 13.739 9.114L13.739 9.114L13.739 1.936Q13.739 1.751 13.757 1.733Q13.776 1.714 13.961 1.714L13.961 1.714L14.997 1.714Q15.108 1.714 15.163 1.751Q15.219 1.788 15.219 1.936L15.219 1.936L15.219 7.486Q15.108 7.708 15.108 7.967ZM11.741 13.369L11.778 13.406Q11.852 13.295 12.000 13.369L12.000 13.369L12.111 13.369L22.064 13.369Q22.323 13.406 22.360 13.351Q22.397 13.295 22.397 13.036L22.397 13.036L22.397 12.222Q22.397 12.111 22.378 12.074Q22.360 12.037 22.286 12.111L22.286 12.111L13.369 12.111L22.286 12.111Q22.471 12.111 22.489 12.148Q22.508 12.185 22.508 12.333L22.508 12.333L22.508 13.258Q22.508 13.406 22.471 13.462Q22.434 13.517 22.286 13.517L22.286 13.517L12.111 13.517Q11.889 13.369 11.741 13.369L11.741 13.369ZM7.930 2.010L7.930 1.936Q8.004 2.010 7.967 2.066Q7.930 2.121 7.930 2.158L7.930 2.158L7.930 15.108Q7.930 15.367 7.819 15.367L7.819 15.367L7.819 2.158Q7.893 2.084 7.930 2.010L7.930 2.010ZM22.286 16.292L22.286 16.292L22.286 15.108Q22.286 14.997 22.249 14.942Q22.212 14.886 22.064 14.886L22.064 14.886L10.261 14.886L21.805 14.886Q22.064 14.886 22.119 14.923Q22.175 14.960 22.175 15.256L22.175 15.256L22.175 16.181Q22.249 16.181 22.304 16.236Q22.360 16.292 22.286 16.292ZM10.853 1.936L10.853 1.936L10.853 12.111Q10.853 12.333 10.705 12.333L10.705 12.333L10.705 2.047Q10.779 2.047 10.779 1.992Q10.779 1.936 10.853 1.936ZM17.550 7.634L17.550 7.708Q17.550 7.597 17.772 7.597L17.772 7.597L21.953 7.597Q22.286 7.597 22.286 7.264L22.286 7.264L22.286 6.450Q22.286 6.265 22.249 6.247Q22.212 6.228 22.064 6.228L22.064 6.228L19.289 6.228Q19.030 6.228 19.030 6.117L19.030 6.117L22.397 6.117Q22.471 6.117 22.508 6.154L22.508 6.154L22.508 6.228L22.508 7.597L18.105 7.597Q17.846 7.597 17.735 7.616Q17.624 7.634 17.550 7.708L17.550 7.708L17.550 7.634ZM12.222 1.936L12.222 2.158Q12.148 2.232 12.185 2.343L12.185 2.343L12.222 2.417L12.222 10.594Q12.037 6.487 12.222 2.158L12.222 2.158Q12.148 2.158 12.148 2.084Q12.148 2.010 12.222 1.936L12.222 1.936ZM14.664 10.483L14.664 10.483Q14.738 10.409 14.812 10.446L14.812 10.446L14.886 10.483L21.953 10.483Q22.138 10.483 22.212 10.446Q22.286 10.409 22.286 10.261L22.286 10.261L22.286 9.225Q22.397 9.225 22.397 9.447L22.397 9.447L22.397 10.483Q22.397 10.594 22.360 10.668Q22.323 10.742 22.175 10.742L22.175 10.742Q20.473 10.557 18.401 10.520L18.401 10.520Q17.180 10.483 14.664 10.483ZM0.678 20.436L0.678 17.772L3.453 17.772L0.900 17.772Q0.715 17.772 0.696 17.809Q0.678 17.846 0.678 17.994L0.678 17.994L0.678 20.325Q0.678 20.510 0.696 20.529Q0.715 20.547 0.900 20.547L0.900 20.547L3.453 20.547L0.789 20.547Q0.678 20.547 0.678 20.529Q0.678 20.510 0.678 20.436L0.678 20.436ZM16.625 1.936L16.625 1.936L16.625 2.047Q16.625 2.010 16.588 1.955Q16.551 1.899 16.625 1.936ZM22.286 7.597L17.661 7.597L22.286 7.597ZM17.994 1.936L17.994 5.044Q17.920 5.044 17.957 4.970L17.957 4.970L17.994 4.822L17.994 1.825Q18.068 1.825 18.031 1.899L18.031 1.899L17.994 1.936ZM21.805 4.711L20.436 4.711Q20.436 4.600 20.547 4.600L20.547 4.600L22.175 4.600Q22.101 4.674 21.990 4.674Q21.879 4.674 21.805 4.711L21.805 4.711ZM19.030 6.228L22.286 6.228L19.030 6.228ZM6.339 23.581L6.339 23.544L6.339 20.658L6.339 23.322Q6.413 23.433 6.413 23.451Q6.413 23.470 6.339 23.581L6.339 23.581ZM22.323 4.267L22.286 4.711L22.286 3.564Q22.286 3.453 22.249 3.398Q22.212 3.342 22.064 3.342L22.064 3.342L20.954 3.342L22.286 3.342Q22.360 3.638 22.323 4.267L22.323 4.267ZM19.511 1.936L19.511 1.936Q19.585 1.936 19.548 2.047L19.548 2.047L19.511 2.158L19.511 3.675L19.474 3.786L19.400 3.897Q19.400 3.453 19.474 2.750L19.474 2.750Q19.511 2.195 19.511 1.936ZM14.294 10.964L14.294 10.964Q14.294 10.890 14.312 10.872Q14.331 10.853 14.405 10.853L14.405 10.853L14.368 10.853Q14.294 10.890 14.294 10.964ZM13.480 11.667L13.480 11.667Q13.480 11.556 13.498 11.538Q13.517 11.519 13.628 11.519L13.628 11.519L13.591 11.593Q13.554 11.667 13.480 11.667ZM14.183 11.038L14.183 11.075Q14.183 11.038 14.183 11.001L14.183 11.001L14.183 11.075L14.183 11.038ZM12.296 10.890L12.333 10.853Q12.333 10.890 12.333 10.927L12.333 10.927L12.333 10.853L12.296 10.890ZM14.405 10.742L14.405 10.742Q14.405 10.631 14.460 10.631Q14.516 10.631 14.405 10.742L14.405 10.742Q14.516 10.631 14.516 10.687Q14.516 10.742 14.405 10.742ZM13.850 11.297L13.850 11.297Q13.850 11.223 13.887 11.223Q13.924 11.223 13.850 11.297L13.850 11.297Q13.924 11.223 13.924 11.260Q13.924 11.297 13.850 11.297ZM12.962 10.224L13.036 10.150Q13.036 10.224 12.999 10.224Q12.962 10.224 13.036 10.150L13.036 10.150L12.962 10.224ZM13.184 10.002L13.258 9.928Q13.258 10.002 13.221 10.002Q13.184 10.002 13.258 9.928L13.258 9.928L13.184 10.002ZM13.369 11.778L13.369 11.778ZM13.258 11.926L13.258 12Q13.258 11.963 13.258 11.926L13.258 11.926L13.258 12L13.258 11.926ZM15.589 7.560L15.700 7.486Q15.700 7.560 15.644 7.560Q15.589 7.560 15.700 7.486L15.700 7.486L15.589 7.560ZM12.444 10.742L12.444 10.742ZM12.518 10.594L12.555 10.594Q12.555 10.631 12.555 10.668L12.555 10.668L12.555 10.594L12.518 10.594ZM10.742 2.158L10.853 2.158Q10.779 2.158 10.742 2.158L10.742 2.158ZM22.286 3.342L22.286 3.342ZM10.853 14.294L10.853 14.294ZM14.072 11.075L14.072 11.075ZM14.072 11.149L14.072 11.186Q14.072 11.186 14.072 11.149L14.072 11.149L14.072 11.186L14.072 11.149ZM10.964 14.294L10.964 14.294ZM13.998 11.186L13.961 11.186Q13.961 11.186 13.998 11.186L13.998 11.186L13.961 11.186L13.998 11.186ZM10.964 14.183L10.964 14.183ZM13.850 11.297L13.850 11.297ZM13.850 11.371L13.850 11.408Q13.850 11.408 13.850 11.371L13.850 11.371L13.850 11.408L13.850 11.371ZM13.776 11.408L13.739 11.408Q13.739 11.408 13.776 11.408L13.776 11.408L13.739 11.408L13.776 11.408ZM11.038 14.183L10.964 14.183Q11.001 14.183 11.038 14.183L11.038 14.183L10.964 14.183L11.038 14.183ZM13.739 11.445L13.739 11.519Q13.739 11.482 13.739 11.445L13.739 11.445L13.739 11.519L13.739 11.445ZM13.702 11.519L13.591 11.519Q13.665 11.519 13.702 11.519L13.702 11.519L13.591 11.519L13.702 11.519ZM11.075 14.109L11.075 14.183Q11.075 14.146 11.075 14.109L11.075 14.109L11.075 14.183L11.075 14.109ZM11.112 14.072L11.075 14.072Q11.075 14.072 11.112 14.072L11.112 14.072L11.075 14.072L11.112 14.072ZM13.480 11.667L13.480 11.778Q13.480 11.741 13.480 11.667L13.480 11.667L13.480 11.778L13.480 11.667ZM11.260 13.961L11.186 13.961Q11.223 13.961 11.260 13.961L11.260 13.961L11.186 13.961L11.260 13.961ZM16.514 6.635L16.514 6.561Q16.514 6.598 16.514 6.635L16.514 6.635L16.514 6.561L16.514 6.635ZM11.778 13.517L11.778 13.517ZM11.630 13.517L11.630 13.517ZM11.630 13.591L11.630 13.628Q11.630 13.591 11.630 13.591L11.630 13.591L11.630 13.628L11.630 13.591ZM11.519 13.628L11.519 13.628ZM11.482 13.739L11.408 13.739Q11.445 13.739 11.482 13.739L11.482 13.739L11.408 13.739L11.482 13.739ZM11.408 13.739L11.408 13.739ZM11.408 13.813L11.408 13.850Q11.408 13.813 11.408 13.813L11.408 13.813L11.408 13.850L11.408 13.813ZM11.334 13.850L11.297 13.850Q11.334 13.850 11.334 13.850L11.334 13.850L11.297 13.850L11.334 13.850ZM15.219 7.967L15.219 7.967ZM15.293 7.893L15.330 7.819Q15.330 7.856 15.330 7.856L15.330 7.856L15.293 7.893L15.330 7.819L15.293 7.893ZM15.367 7.819L15.478 7.708Q15.404 7.782 15.367 7.819L15.367 7.819L15.478 7.708L15.367 7.819ZM15.478 7.708L15.478 7.708ZM15.478 7.708L15.478 7.708ZM16.255 6.931L16.255 6.931ZM15.589 7.597L15.589 7.597ZM15.700 7.486L15.700 7.486ZM15.700 7.449L15.700 7.375Q15.700 7.375 15.700 7.375L15.700 7.375L15.700 7.449L15.700 7.375L15.700 7.449ZM15.811 7.375L15.811 7.375ZM15.885 7.301L15.922 7.264Q15.922 7.264 15.885 7.301L15.885 7.301L15.885 7.301L15.922 7.264L15.885 7.301ZM15.922 7.264L15.922 7.264ZM15.959 7.227L16.033 7.153Q16.033 7.153 16.033 7.153L16.033 7.153L15.959 7.227L16.033 7.153L15.959 7.227ZM16.033 7.153L16.033 7.153ZM16.107 7.079L16.144 7.042Q16.144 7.042 16.144 7.042L16.144 7.042L16.107 7.079L16.144 7.042L16.107 7.079ZM16.144 7.042L16.144 7.042ZM16.181 7.005L16.255 6.931Q16.218 6.968 16.181 7.005L16.181 7.005L16.255 6.931L16.181 7.005ZM14.220 10.964L14.183 10.964Q14.220 10.964 14.220 10.964L14.220 10.964L14.183 10.964L14.220 10.964ZM12.407 10.779L12.444 10.742Q12.444 10.742 12.444 10.742L12.444 10.742L12.407 10.779L12.444 10.742L12.407 10.779ZM14.405 10.742L14.405 10.742ZM14.553 10.631L14.553 10.631ZM12.629 10.557L12.703 10.483Q12.666 10.520 12.666 10.520L12.666 10.520L12.629 10.557L12.703 10.483L12.629 10.557ZM12.703 10.483L12.703 10.483ZM12.814 10.372L12.814 10.372ZM12.925 10.298L12.925 10.261Q12.925 10.298 12.925 10.298L12.925 10.298L12.925 10.261L12.925 10.298ZM13.036 10.150L13.036 10.150ZM13.036 10.150L13.036 10.150ZM13.258 9.928L13.258 9.928ZM13.295 9.891L13.369 9.817Q13.332 9.854 13.295 9.891L13.295 9.891L13.369 9.817L13.295 9.891ZM13.369 9.817L13.369 9.817ZM13.443 9.743L13.480 9.706Q13.480 9.706 13.480 9.706L13.480 9.706L13.443 9.743L13.480 9.706L13.443 9.743ZM13.480 9.706L13.480 9.706ZM13.628 9.558L13.628 9.558ZM16.514 6.672L16.514 6.672Z"/></svg>