<?xml version="1.0" encoding="UTF-8"?>
<svg xmlns="http://www.w3.org/2000/svg" width="32" height="32" viewBox="0 0 24 24" fill="#666666"><path d="M0.261 11.937L0.261 11.937Q0.261 9.417 1.038 7.464Q1.815 5.511 3.117 4.209Q4.419 2.907 6.309 2.067L6.309 2.067Q7.779 1.437 10.089 1.437L10.089 1.437Q12.063 1.437 13.638 2.214Q15.213 2.991 16.263 4.041L16.263 4.041L13.365 7.317L13.029 7.065Q12.357 6.519 11.937 6.435L11.937 6.435L11.517 6.309Q10.677 6.015 10.089 6.015L10.089 6.015Q9.165 6.015 8.409 6.435L8.409 6.435Q7.485 6.855 6.939 7.590Q6.393 8.325 6.015 9.480Q5.637 10.635 5.637 11.937L5.637 11.937Q5.637 14.961 6.939 16.263L6.939 16.263Q7.653 17.061 8.472 17.460Q9.291 17.859 10.341 17.859Q11.391 17.859 12.189 17.439L12.189 17.439Q13.071 17.019 13.659 16.263L13.659 16.263L16.515 19.539Q15.297 20.925 13.659 21.765L13.659 21.765Q12.063 22.563 10.089 22.563L10.089 22.563Q8.283 22.563 6.309 21.891L6.309 21.891Q4.503 21.303 3.159 19.959L3.159 19.959Q2.529 19.329 2.025 18.321L2.025 18.321Q1.689 17.691 1.185 16.389L1.185 16.389Q0.261 14.751 0.261 11.937ZM19.203 15.129L19.539 13.491L18.237 13.491L17.733 16.641L16.137 16.641L16.683 13.491L15.087 13.491L15.087 12.063L17.061 12.063L17.313 9.963L15.633 9.963L15.633 8.535L17.565 8.535L18.111 5.385L19.665 5.385L19.161 8.535L20.463 8.535L21.009 5.385L22.563 5.385L22.059 8.535L23.739 8.535L23.739 9.963L21.639 9.963L21.387 12.063L23.109 12.063L23.109 13.491L21.009 13.491L20.463 16.641L18.909 16.641Q18.909 16.725 19.203 15.129L19.203 15.129ZM18.783 10.089L18.489 12.189L19.833 12.189L20.085 10.089L18.783 10.089Z"/></svg>