<?xml version="1.0" encoding="UTF-8"?>
<svg xmlns="http://www.w3.org/2000/svg" width="32" height="32" viewBox="0 0 24 24" fill="#666666"><path d="M16.482 5.484L16.482 5.484L17.166 3.036Q17.706 3 18.084 2.604Q18.462 2.208 18.462 1.668Q18.462 1.128 18.048 0.714Q17.634 0.300 17.058 0.300Q16.482 0.300 16.068 0.714Q15.654 1.128 15.654 1.668L15.654 1.668Q15.654 2.028 15.834 2.352Q16.014 2.676 16.338 2.856L16.338 2.856L15.618 5.268Q14.754 5.052 13.818 4.944L13.818 4.944Q13.134 4.836 12.486 4.800L12.486 4.800L11.982 4.800L11.694 4.944L11.694 23.592L11.982 23.700Q12.738 23.700 14.358 22.764L14.358 22.764Q16.086 21.756 17.706 20.244L17.706 20.244Q19.614 18.516 20.694 16.644L20.694 16.644Q22.026 14.448 22.026 12.396L22.026 12.396Q22.026 9.552 20.262 7.716L20.262 7.716Q18.858 6.240 16.482 5.484ZM14.502 17.508L14.502 17.508Q13.710 16.248 13.728 14.232Q13.746 12.216 14.718 10.668L14.718 10.668Q15.798 8.904 17.742 8.508L17.742 8.508Q18.678 8.364 19.506 8.940L19.506 8.940Q20.406 9.516 20.694 10.668L20.694 10.668Q21.054 11.856 20.334 13.368L20.334 13.368Q19.686 14.664 18.426 15.888L18.426 15.888Q17.238 17.004 16.086 17.508Q14.934 18.012 14.502 17.508ZM17.022 12.252L17.022 12.252Q16.482 12.252 16.104 12.612Q15.726 12.972 15.726 13.494Q15.726 14.016 16.104 14.376Q16.482 14.736 17.004 14.736Q17.526 14.736 17.904 14.376Q18.282 14.016 18.282 13.494Q18.282 12.972 17.904 12.612Q17.526 12.252 17.022 12.252ZM17.382 13.404L17.382 13.404Q17.274 13.404 17.166 13.314Q17.058 13.224 17.058 13.098Q17.058 12.972 17.166 12.864Q17.274 12.756 17.400 12.756Q17.526 12.756 17.616 12.864Q17.706 12.972 17.706 13.098Q17.706 13.224 17.616 13.314Q17.526 13.404 17.382 13.404ZM8.346 5.304L8.346 5.304L7.662 2.820Q7.950 2.640 8.130 2.334Q8.310 2.028 8.310 1.668L8.310 1.668Q8.310 1.092 7.896 0.696Q7.482 0.300 6.888 0.300Q6.294 0.300 5.898 0.696Q5.502 1.092 5.502 1.650Q5.502 2.208 5.898 2.622Q6.294 3.036 6.906 3.036L6.906 3.036L7.590 5.520Q5.178 6.312 3.774 7.752L3.774 7.752Q1.974 9.588 1.974 12.396L1.974 12.396Q2.010 14.484 3.306 16.680L3.306 16.680Q4.422 18.552 6.330 20.280L6.330 20.280Q7.914 21.792 9.642 22.800L9.642 22.800Q11.262 23.700 11.982 23.700L11.982 23.700L11.982 4.800L11.478 4.836Q10.830 4.872 10.182 4.944L10.182 4.944Q9.210 5.088 8.346 5.304ZM9.750 17.508L9.750 17.508Q9.354 18.012 8.202 17.508Q7.050 17.004 5.862 15.888L5.862 15.888Q4.602 14.664 3.954 13.368L3.954 13.368Q3.234 11.856 3.594 10.668L3.594 10.668Q3.882 9.516 4.782 8.940L4.782 8.940Q5.610 8.364 6.546 8.508L6.546 8.508Q8.454 8.904 9.570 10.668L9.570 10.668Q10.506 12.216 10.542 14.232Q10.578 16.248 9.750 17.508ZM7.194 12.288L7.194 12.288Q6.654 12.288 6.276 12.648Q5.898 13.008 5.898 13.530Q5.898 14.052 6.276 14.412Q6.654 14.772 7.194 14.772Q7.734 14.772 8.112 14.412Q8.490 14.052 8.490 13.530Q8.490 13.008 8.112 12.648Q7.734 12.288 7.194 12.288ZM6.798 13.440L6.798 13.440Q6.654 13.440 6.564 13.350Q6.474 13.260 6.474 13.134Q6.474 13.008 6.564 12.900Q6.654 12.792 6.798 12.792Q6.942 12.792 7.032 12.900Q7.122 13.008 7.122 13.134Q7.122 13.260 7.032 13.350Q6.942 13.440 6.798 13.440Z"/></svg>