<?xml version="1.0" encoding="UTF-8"?>
<svg xmlns="http://www.w3.org/2000/svg" width="32" height="32" viewBox="0 0 24 24" fill="#666666"><path d="M6.648 3.525L6.696 3.525Q8.232 3.765 9.240 4.581L9.240 4.581L9.528 4.869Q9.864 5.109 9.960 5.301L9.960 5.301L10.104 5.301Q10.248 5.157 10.560 4.941Q10.872 4.725 11.016 4.581L11.016 4.581L12.072 4.101Q12.360 4.101 12.696 3.957L12.696 3.957L13.560 3.957Q14.376 3.957 15.096 4.437L15.096 4.437Q16.104 5.061 16.728 6.069L16.728 6.069Q16.728 6.165 16.800 6.165Q16.872 6.165 16.872 6.069L16.872 6.069L17.160 5.973Q17.736 5.781 18.072 5.781L18.072 5.781L19.272 5.781Q20.040 5.781 21.240 6.357L21.240 6.357L21.576 6.597Q22.200 6.933 22.440 7.269L22.440 7.269Q23.016 7.893 23.496 8.757L23.496 8.757Q23.928 9.429 23.928 10.437L23.928 10.437L23.928 11.637Q23.928 12.117 23.736 12.645L23.736 12.645Q23.640 12.981 23.304 13.557L23.304 13.557Q22.872 14.469 22.104 15.237L22.104 15.237Q21.576 15.765 20.904 15.957L20.904 15.957L19.560 16.437L17.640 16.437Q17.400 16.869 16.776 17.445L16.776 17.445L16.440 17.781Q15.864 18.117 14.904 18.357L14.904 18.357L14.040 18.357Q13.656 18.357 13.080 18.165L13.080 18.165L12.840 18.069L12.696 18.069Q12.552 18.405 12.168 18.885L12.168 18.885L11.928 19.269Q11.496 19.941 10.728 20.181L10.728 20.181Q9.336 20.853 7.824 20.493Q6.312 20.133 5.304 18.837L5.304 18.837Q4.968 18.453 4.728 17.781L4.728 17.781Q4.728 17.685 4.632 17.733L4.632 17.733L4.584 17.781L3.528 17.781Q3.288 17.781 2.952 17.709Q2.616 17.637 2.472 17.637L2.472 17.637Q1.896 17.445 1.272 17.013L1.272 17.013Q0.360 16.149 0.072 15.525L0.072 15.525Q0.312 14.613 0.072 14.181L0.072 14.181L0.072 13.269Q0.072 12.693 0.360 12.093Q0.648 11.493 0.960 11.181Q1.272 10.869 1.272 10.725L1.272 10.725Q1.704 10.293 2.040 10.149L2.040 10.149L2.088 10.101Q2.136 10.053 2.040 9.957L2.040 9.957Q1.704 9.381 1.704 8.949L1.704 8.949L1.704 7.557Q1.944 5.877 3.168 4.677Q4.392 3.477 6.072 3.381L6.072 3.381L6.360 3.381Q6.504 3.525 6.648 3.525L6.648 3.525L6.648 3.525Z"/></svg>