<?xml version="1.0" encoding="UTF-8"?>
<svg xmlns="http://www.w3.org/2000/svg" width="32" height="32" viewBox="0 0 24 24" fill="#666666"><path d="M23.802 17.376L23.676 17.250L21.072 12L23.676 6.750L23.802 6.624L23.802 0.198L17.376 0.198L17.250 0.324L12 2.928L6.750 0.324L6.624 0.198L0.198 0.198L0.198 6.624L0.324 6.750L2.928 12L0.324 17.250L0.198 17.376L0.198 23.802L6.624 23.802L6.750 23.676L12 21.072L17.250 23.676L17.376 23.802L23.802 23.802L23.802 17.376ZM22.374 1.626L19.896 11.454L12.546 4.104L22.374 1.626ZM11.496 4.104L4.146 11.454L1.626 1.626L11.496 4.104ZM1.626 22.374L4.146 12.504L11.496 19.854L1.626 22.374ZM12.546 19.854L19.896 12.504L22.374 22.374L12.546 19.854Z"/></svg>