<?xml version="1.0" encoding="UTF-8"?>
<svg xmlns="http://www.w3.org/2000/svg" width="32" height="32" viewBox="0 0 24 24" fill="#666666"><path d="M23.780 3.944L23.818 3.944L23.818 20.094Q23.818 20.132 23.742 20.246Q23.666 20.360 23.666 20.436L23.666 20.436Q23.286 21.044 22.716 21.044L22.716 21.044L13.596 21.044L13.596 23.400Q13.406 23.362 12.988 23.286Q12.570 23.210 12.418 23.172L12.418 23.172Q12 23.096 11.107 22.925Q10.214 22.754 9.758 22.697Q9.302 22.640 8.352 22.450Q7.402 22.260 6.927 22.203Q6.452 22.146 5.502 21.975Q4.552 21.804 4.115 21.747Q3.678 21.690 2.785 21.500Q1.892 21.310 1.474 21.272L1.474 21.272Q1.246 21.196 0.828 21.139Q0.410 21.082 0.182 21.044L0.182 21.044L0.182 3.564Q0.220 3.564 0.410 3.507Q0.600 3.450 0.638 3.450L0.638 3.450Q1.664 2.728 3.374 2.500L3.374 2.500Q3.830 2.424 4.742 2.234L4.742 2.234Q5.426 2.082 5.730 2.044L5.730 2.044L6.034 1.968Q7.364 1.778 8.010 1.550L8.010 1.550Q8.428 1.512 9.321 1.322Q10.214 1.132 10.651 1.075Q11.088 1.018 11.981 0.847Q12.874 0.676 13.368 0.600L13.368 0.600L13.482 0.600L13.482 2.842L22.716 2.842Q23.096 2.842 23.400 3.089Q23.704 3.336 23.780 3.678L23.780 3.678L23.780 3.944ZM22.868 19.714L22.868 3.792L13.482 3.792L13.482 5.236L16.674 5.236L16.674 7.250L13.482 7.250L13.482 7.972L16.674 7.972L16.674 9.986L13.482 9.986L13.482 10.708L16.674 10.708L16.674 12.722L13.482 12.722L13.482 13.558L16.788 13.558L16.788 15.572L13.482 15.572L13.482 16.294L16.674 16.294L16.674 18.308L13.482 18.308L13.482 19.714L22.868 19.714ZM10.366 17.472L10.366 17.472Q10.366 17.434 10.347 17.396Q10.328 17.358 10.252 17.358L10.252 17.358Q9.834 16.522 8.941 14.850Q8.048 13.178 7.630 12.342L7.630 12.342L7.630 12.114Q8.846 9.758 10.252 7.250L10.252 7.250L10.252 7.136L10.138 7.136Q9.530 7.136 9.302 7.250L9.302 7.250Q8.618 7.250 8.124 7.364L8.124 7.364Q8.048 7.364 8.029 7.383Q8.010 7.402 8.010 7.478L8.010 7.478L7.060 9.492L6.338 11.164Q6.300 11.050 6.224 10.746Q6.148 10.442 6.110 10.328L6.110 10.328L5.046 7.744Q4.932 7.554 4.894 7.516Q4.856 7.478 4.647 7.478Q4.438 7.478 3.963 7.535Q3.488 7.592 3.260 7.592L3.260 7.592L2.766 7.592L2.766 7.744L3.146 8.542L4.932 12.114L4.932 12.228Q4.552 12.950 3.754 14.470L3.754 14.470Q3.032 15.800 2.652 16.522L2.652 16.522Q2.652 16.560 2.595 16.636Q2.538 16.712 2.538 16.750L2.538 16.750L3.260 16.750Q3.488 16.750 3.906 16.807Q4.324 16.864 4.552 16.864L4.552 16.864Q4.666 16.864 4.666 16.845Q4.666 16.826 4.666 16.750L4.666 16.750Q5.388 15.344 5.768 14.508L5.768 14.508Q5.806 14.318 5.977 13.957Q6.148 13.596 6.224 13.444L6.224 13.444Q6.224 13.178 6.338 13.064L6.338 13.064L6.338 13.178Q6.376 13.292 6.452 13.501Q6.528 13.710 6.566 13.786L6.566 13.786Q6.870 14.394 7.402 15.610L7.402 15.610L7.896 16.750L7.972 16.864Q8.086 16.978 8.238 16.978L8.238 16.978Q8.542 16.978 9.131 17.054Q9.720 17.130 10.024 17.130L10.024 17.130Q10.100 17.358 10.176 17.415Q10.252 17.472 10.366 17.472ZM17.624 5.236L21.310 5.236L21.310 7.250L17.624 7.250L17.624 5.236ZM21.310 18.536L17.624 18.536L17.624 16.522L21.310 16.522L21.310 18.536ZM21.310 12.950L17.624 12.950L17.624 10.936L21.310 10.936L21.310 12.950ZM17.624 8.086L21.310 8.086L21.310 10.100L17.624 10.100L17.624 8.086ZM17.624 13.786L21.310 13.786L21.310 15.800L17.624 15.800L17.624 13.786Z"/></svg>