<?xml version="1.0" encoding="UTF-8"?>
<svg xmlns="http://www.w3.org/2000/svg" width="32" height="32" viewBox="0 0 24 24" fill="#666666"><path d="M6.963 10.543L6.963 10.543Q6.808 10.543 6.560 10.512L6.560 10.512Q5.940 10.481 5.692 10.543L5.692 10.543L5.382 10.574Q3.925 10.760 3.305 10.977L3.305 10.977Q2.220 11.349 1.631 12.186L1.631 12.186Q0.577 13.519 0.407 14.945Q0.236 16.371 0.949 17.797L0.949 17.797Q2.313 20.556 5.692 20.711L5.692 20.711L9.567 20.711Q13.163 20.587 15.364 17.611L15.364 17.611Q16.542 16.154 17.131 14.418L17.131 14.418Q17.348 13.829 17.674 13.597Q17.999 13.364 18.588 13.364L18.588 13.364Q19.084 13.426 20.045 13.364L20.045 13.364L20.789 13.364Q21.130 13.364 21.254 13.302L21.254 13.302Q21.471 13.209 21.471 12.961L21.471 12.961L21.533 12.620Q21.626 11.969 21.626 11.659L21.626 11.659Q21.595 11.132 21.378 10.729L21.378 10.729Q21.254 10.481 20.975 10.419L20.975 10.419Q20.820 10.388 20.448 10.434Q20.076 10.481 19.921 10.450L19.921 10.450L19.456 10.450Q19.053 10.450 18.945 10.311Q18.836 10.171 18.960 9.768L18.960 9.768Q19.921 7.536 21.967 6.854L21.967 6.854Q22.122 6.792 22.510 6.761Q22.897 6.730 23.052 6.637L23.052 6.637Q23.331 6.544 23.424 6.296L23.424 6.296Q23.579 6.079 23.610 5.707L23.610 5.707Q23.641 5.490 23.610 4.994L23.610 4.994L23.610 3.754Q23.610 3.289 23.021 3.289L23.021 3.289Q21.471 3.444 20.386 3.878L20.386 3.878Q19.084 4.405 18.278 5.397L18.278 5.397Q17.410 6.575 16.635 8.001L16.635 8.001Q16.015 9.210 15.364 10.822L15.364 10.822L15.178 11.411Q14.558 13.054 14.217 13.829L14.217 13.829Q13.597 15.100 12.853 15.968L12.853 15.968Q11.954 17.022 10.621 17.332L10.621 17.332Q7.986 17.735 5.103 17.146L5.103 17.146Q4.390 16.991 4.018 16.526Q3.646 16.061 3.646 15.364Q3.646 14.666 4.080 14.170Q4.514 13.674 5.289 13.457L5.289 13.457Q5.878 13.333 7.025 13.302L7.025 13.302Q7.831 13.302 8.234 13.287Q8.637 13.271 8.808 13.101Q8.978 12.930 8.978 12.496L8.978 12.496L8.978 11.938Q8.978 11.070 8.947 10.853L8.947 10.853Q8.885 10.543 8.637 10.481L8.637 10.481Q8.482 10.419 7.800 10.450L7.800 10.450L7.056 10.450Q7.118 10.512 7.087 10.527Q7.056 10.543 6.963 10.543Z"/></svg>