<?xml version="1.0" encoding="UTF-8"?>
<svg xmlns="http://www.w3.org/2000/svg" width="32" height="32" viewBox="0 0 24 24" fill="#666666"><path d="M23.696 15.213L12.850 15.213L12.850 18.375L23.696 18.375L23.696 15.213ZM2.446 18.375L2.446 5.625L5.642 5.625L5.642 18.375L2.446 18.375ZM0.304 9.875L0.304 6.713L2.446 6.713L2.446 9.875L0.304 9.875ZM9.892 12.017L9.892 12.017Q9.892 10.657 10.793 9.739Q11.694 8.821 13.054 8.821L13.054 8.821Q14.108 8.821 14.907 9.416Q15.706 10.011 16.046 10.963L16.046 10.963L19.344 10.963Q19.072 9.467 18.188 8.260Q17.304 7.053 15.961 6.339Q14.618 5.625 13.054 5.625L13.054 5.625Q11.354 5.625 9.875 6.492Q8.396 7.359 7.546 8.821Q6.696 10.283 6.696 12.017Q6.696 13.751 7.546 15.213Q8.396 16.675 9.875 17.525Q11.354 18.375 13.071 18.375Q14.788 18.375 16.284 17.508Q17.780 16.641 18.596 15.213L18.596 15.213L13.054 15.213Q11.694 15.213 10.793 14.295Q9.892 13.377 9.892 12.017Z"/></svg>