<?xml version="1.0" encoding="UTF-8"?>
<svg xmlns="http://www.w3.org/2000/svg" width="32" height="32" viewBox="0 0 24 24" fill="#666666"><path d="M1.322 16.313L0.106 16.313L3.222 7.687L4.856 7.687L7.972 16.313L6.300 16.313L5.426 13.995L2.158 13.995L1.322 16.313ZM3.792 9.435L2.538 12.931L5.008 12.931L3.792 9.435ZM8.390 16.237L8.390 16.237L8.390 14.793Q10.214 15.401 11.240 15.401L11.240 15.401Q12.000 15.401 12.570 15.097L12.570 15.097Q12.836 14.907 12.950 14.717Q13.064 14.527 13.064 14.223L13.064 14.223Q13.064 13.767 12.798 13.539L12.798 13.539Q12.456 13.159 11.658 12.855L11.658 12.855L10.936 12.551Q9.758 11.943 8.960 11.221L8.960 11.221Q8.390 10.613 8.390 9.853L8.390 9.853Q8.390 8.713 9.340 8.143L9.340 8.143Q10.290 7.459 11.886 7.459L11.886 7.459Q13.330 7.459 14.622 7.763L14.622 7.763L14.622 9.131Q13.026 8.675 12.076 8.675L12.076 8.675Q11.392 8.675 10.936 8.903L10.936 8.903Q10.518 9.245 10.518 9.625Q10.518 10.005 10.822 10.233L10.822 10.233Q11.240 10.537 11.962 10.917L11.962 10.917L12.646 11.221Q14.128 11.943 14.698 12.551Q15.268 13.159 15.268 13.995L15.268 13.995Q15.268 14.603 15.002 15.097Q14.736 15.591 14.204 15.857L14.204 15.857Q13.254 16.541 11.316 16.541L11.316 16.541Q9.910 16.541 8.390 16.237ZM17.168 16.313L15.914 16.313L15.914 7.763L18.118 7.763L20.018 13.843L21.994 7.763L23.894 7.763L23.894 16.313L22.336 16.313L22.336 9.777L20.436 15.705L19.106 15.705L17.168 9.701L17.168 16.313Z"/></svg>