<?xml version="1.0" encoding="UTF-8"?>
<svg xmlns="http://www.w3.org/2000/svg" width="32" height="32" viewBox="0 0 24 24" fill="#666666"><path d="M4.314 0.198L16.746 0.198Q17.838 0.198 18.615 0.975Q19.392 1.752 19.392 2.844L19.392 2.844L19.392 21.156Q19.392 22.248 18.615 23.025Q17.838 23.802 16.746 23.802L16.746 23.802L4.314 23.802Q3.222 23.802 2.445 23.025Q1.668 22.248 1.668 21.156L1.668 21.156L1.668 2.844Q1.668 1.752 2.445 0.975Q3.222 0.198 4.314 0.198L4.314 0.198ZM21.450 15.528L20.568 15.528L21.450 15.528Q21.786 15.528 22.038 15.759Q22.290 15.990 22.332 16.326L22.332 16.326L22.332 18.216Q22.332 18.552 22.122 18.783Q21.912 19.014 21.576 19.098L21.576 19.098L20.568 19.098L20.568 15.528L21.450 15.528ZM21.450 10.824L20.568 10.824L21.450 10.824Q21.786 10.824 22.038 11.034Q22.290 11.244 22.332 11.580L22.332 11.580L22.332 13.470Q22.332 13.806 22.122 14.058Q21.912 14.310 21.576 14.352L21.576 14.352L20.568 14.352L20.568 10.824L21.450 10.824ZM21.450 6.078L20.568 6.078L21.450 6.078Q21.786 6.078 22.038 6.309Q22.290 6.540 22.332 6.876L22.332 6.876L22.332 8.766Q22.332 9.102 22.122 9.333Q21.912 9.564 21.576 9.648L21.576 9.648L20.568 9.648L20.568 6.078L21.450 6.078ZM14.352 4.314L14.352 4.314L6.708 4.314Q6.372 4.314 6.120 4.545Q5.868 4.776 5.826 5.070L5.826 5.070L5.784 7.002Q5.784 7.296 6.015 7.548Q6.246 7.800 6.582 7.842L6.582 7.842L14.352 7.884Q14.688 7.884 14.940 7.653Q15.192 7.422 15.234 7.086L15.234 7.086L15.276 5.196Q15.276 4.818 15.003 4.566Q14.730 4.314 14.352 4.314Z"/></svg>