<?xml version="1.0" encoding="UTF-8"?>
<svg xmlns="http://www.w3.org/2000/svg" width="32" height="32" viewBox="0 0 24 24" fill="#666666"><path d="M15.948 15.948L15.948 18.888L7.926 18.888Q7.800 18.384 7.506 17.922L7.506 17.922L17.922 7.506Q18.804 8.052 19.896 8.052L19.896 8.052Q21.408 8.052 22.542 7.023Q23.676 5.994 23.802 4.461Q23.928 2.928 22.983 1.710Q22.038 0.492 20.526 0.240Q19.014-0.012 17.733 0.828Q16.452 1.668 16.074 3.138L16.074 3.138L7.926 3.138Q7.548 1.710 6.330 0.870Q5.112 0.030 3.621 0.219Q2.130 0.408 1.164 1.521Q0.198 2.634 0.198 4.125Q0.198 5.616 1.164 6.729Q2.130 7.842 3.621 8.031Q5.112 8.220 6.330 7.380Q7.548 6.540 7.926 5.112L7.926 5.112L16.074 5.112Q16.200 5.616 16.494 6.078L16.494 6.078L6.078 16.494Q5.196 15.948 4.146 15.948L4.146 15.948Q2.592 15.948 1.458 16.977Q0.324 18.006 0.198 19.539Q0.072 21.072 1.017 22.290Q1.962 23.508 3.474 23.760Q4.986 24.012 6.267 23.172Q7.548 22.332 7.926 20.862L7.926 20.862L15.948 20.862L15.948 23.802L23.802 23.802L23.802 15.948L15.948 15.948ZM4.146 6.078L4.146 6.078Q3.432 6.078 2.886 5.637Q2.340 5.196 2.214 4.503Q2.088 3.810 2.403 3.201Q2.718 2.592 3.369 2.319Q4.020 2.046 4.692 2.256Q5.364 2.466 5.763 3.033Q6.162 3.600 6.099 4.314Q6.036 5.028 5.532 5.532L5.532 5.532Q4.944 6.078 4.146 6.078ZM19.854 2.172L19.854 2.172Q20.484 2.172 20.967 2.487Q21.450 2.802 21.681 3.369Q21.912 3.936 21.807 4.524Q21.702 5.112 21.282 5.532Q20.862 5.952 20.274 6.057Q19.686 6.162 19.119 5.931Q18.552 5.700 18.237 5.217Q17.922 4.734 17.922 4.104L17.922 4.104Q17.922 3.306 18.489 2.739Q19.056 2.172 19.854 2.172ZM4.146 21.828L4.146 21.828Q3.306 21.828 2.739 21.261Q2.172 20.694 2.172 19.875Q2.172 19.056 2.739 18.489Q3.306 17.922 4.125 17.922Q4.944 17.922 5.532 18.489Q6.120 19.056 6.120 19.875Q6.120 20.694 5.532 21.261Q4.944 21.828 4.146 21.828ZM17.922 21.828L17.922 17.922L21.828 17.922L21.828 21.828L17.922 21.828Z"/></svg>