<?xml version="1.0" encoding="UTF-8"?>
<svg xmlns="http://www.w3.org/2000/svg" width="32" height="32" viewBox="0 0 24 24" fill="#666666"><path d="M11.460 11.300L11.460 11.300L8.688 11.300Q7.236 11.300 6.378 12.158Q5.520 13.016 5.520 14.468L5.520 14.468L5.520 16.932Q5.520 17.372 5.124 17.372L5.124 17.372L3.892 17.372Q1.956 17.372 1.120 15.700L1.120 15.700Q0.460 14.336 0.460 13.236L0.460 13.236Q0.196 10.508 0.856 8.704L0.856 8.704Q1.560 6.592 3.452 6.240L3.452 6.240L11.416 6.240Q11.856 6.240 11.856 6.108L11.856 6.108L11.856 5.404L11.680 5.316Q11.504 5.272 11.460 5.272L11.460 5.272L6.752 5.272Q6.444 5.272 6.334 5.140Q6.224 5.008 6.224 4.700L6.224 4.700L6.224 2.940Q6.224 1.400 7.456 1.004L7.456 1.004Q8.820 0.432 9.524 0.300L9.524 0.300Q12.164-0.140 14.452 0.432L14.452 0.432Q15.596 0.696 16.388 1.268L16.388 1.268Q16.872 1.752 17.048 2.148L17.048 2.148Q17.312 2.632 17.224 3.204L17.224 3.204L17.224 8.132Q17.224 9.584 16.432 10.376Q15.640 11.168 14.188 11.168L14.188 11.168Q13.220 11.300 11.460 11.300ZM7.588 3.072L7.588 3.072Q7.588 3.512 7.896 3.842Q8.204 4.172 8.644 4.172Q9.084 4.172 9.436 3.820Q9.788 3.468 9.788 3.072Q9.788 2.676 9.458 2.368Q9.128 2.060 8.688 1.972L8.688 1.972Q8.204 1.972 7.896 2.302Q7.588 2.632 7.588 3.072ZM12.560 12.708L12.560 12.708L15.288 12.708Q16.740 12.708 17.598 11.850Q18.456 10.992 18.456 9.540L18.456 9.540L18.456 7.032Q18.456 6.636 18.852 6.636L18.852 6.636L20.084 6.636Q22.020 6.636 22.856 8.308L22.856 8.308Q23.560 9.672 23.560 10.772L23.560 10.772Q23.780 13.500 23.120 15.304L23.120 15.304Q22.416 17.416 20.524 17.768L20.524 17.768L12.560 17.768Q12.120 17.768 12.120 17.900L12.120 17.900L12.120 18.604L12.296 18.692Q12.472 18.736 12.560 18.736L12.560 18.736L17.224 18.736Q17.532 18.736 17.642 18.868Q17.752 19.000 17.752 19.308L17.752 19.308L17.752 21.068Q17.752 22.608 16.520 23.004L16.520 23.004Q15.156 23.532 14.452 23.708L14.452 23.708Q11.812 24.148 9.524 23.532L9.524 23.532Q8.380 23.312 7.588 22.740L7.588 22.740Q7.104 22.256 6.928 21.860L6.928 21.860Q6.664 21.376 6.752 20.804L6.752 20.804L6.752 15.832Q6.752 14.424 7.544 13.632Q8.336 12.840 9.788 12.840L9.788 12.840Q10.756 12.708 12.560 12.708ZM16.388 20.936L16.388 20.936Q16.388 20.496 16.080 20.166Q15.772 19.836 15.332 19.836Q14.892 19.836 14.540 20.188Q14.188 20.540 14.188 20.936Q14.188 21.332 14.518 21.640Q14.848 21.948 15.288 22.036L15.288 22.036Q15.772 22.036 16.080 21.706Q16.388 21.376 16.388 20.936Z"/></svg>