<?xml version="1.0" encoding="UTF-8"?>
<svg xmlns="http://www.w3.org/2000/svg" width="32" height="32" viewBox="0 0 24 24" fill="#666666"><path d="M0.024 11.875L0.024 11.875Q0.024 8.736 1.745 6.070L1.745 6.070Q3.335 3.533 5.937 2.200Q8.539 0.867 11.248 1.211L11.248 1.211Q14.215 1.555 16.451 3.834L16.451 3.834L13.484 7.188Q11.549 5.898 9.957 5.855L9.957 5.855Q8.539 5.769 7.506 6.715L7.506 6.715Q6.561 7.575 6.088 9.080L6.088 9.080Q5.658 10.499 5.701 12.155Q5.744 13.810 6.303 15.229Q6.861 16.648 7.851 17.379L7.851 17.379Q8.969 18.239 10.345 18.024L10.345 18.024Q11.936 17.809 13.742 16.304L13.742 16.304L16.709 19.701Q14.473 22.238 11.506 22.754L11.506 22.754Q8.754 23.184 6.088 21.851Q3.421 20.518 1.787 17.895L1.787 17.895Q0.024 15.143 0.024 11.875ZM22.084 9.209L23.976 14.971L22.901 14.971L22.471 13.638L20.622 13.638L20.192 14.971L19.117 14.971L21.009 9.209L22.084 9.209ZM20.880 12.692L22.213 12.692L21.524 10.542L20.880 12.692ZM10.044 9.209L10.087 9.209L11.033 9.209L11.033 12.348Q11.033 13.079 11.076 13.294L11.076 13.294Q11.119 13.681 11.355 13.896Q11.591 14.111 11.979 14.111L11.979 14.111Q12.280 14.111 12.495 13.961Q12.710 13.810 12.796 13.552Q12.882 13.294 12.882 12.434L12.882 12.434L12.882 9.209L13.828 9.209L13.828 12.262Q13.828 13.423 13.720 13.939Q13.613 14.455 13.161 14.778Q12.710 15.100 12 15.100Q11.291 15.100 10.861 14.821Q10.431 14.541 10.237 14.047Q10.044 13.552 10.044 12.305L10.044 12.305L10.044 9.209ZM14.817 14.971L14.817 9.209L16.580 9.209Q17.225 9.209 17.569 9.360Q17.913 9.510 18.192 9.854Q18.472 10.198 18.644 10.779Q18.816 11.359 18.816 12.133Q18.816 12.907 18.622 13.466Q18.429 14.025 18.192 14.348Q17.956 14.670 17.569 14.821Q17.182 14.971 16.623 14.971L16.623 14.971L14.817 14.971ZM16.193 10.198L15.806 10.198L15.806 13.982L16.494 13.982Q16.966 13.982 17.182 13.918Q17.397 13.853 17.526 13.681Q17.655 13.509 17.741 13.122Q17.827 12.735 17.827 12.090Q17.827 11.445 17.741 11.123Q17.655 10.800 17.440 10.564Q17.225 10.327 17.010 10.263Q16.795 10.198 16.193 10.198L16.193 10.198Z"/></svg>