<?xml version="1.0" encoding="UTF-8"?>
<svg xmlns="http://www.w3.org/2000/svg" width="32" height="32" viewBox="0 0 24 24" fill="#666666"><path d="M18.766 8.158L18.766 8.158L20.738 6.356Q21.554 5.064 21.554 3.534L21.554 3.534L21.554 3.296Q21.554 2.990 21.418 2.718L21.418 2.718Q20.874 1.630 19.582 1.120L19.582 1.120Q18.562 0.440 15.570 0.304L15.570 0.304Q12.170 0.780 9.450 1.970L9.450 1.970Q8.226 2.820 7.104 3.432L7.104 3.432L7.104 3.602Q7.138 3.602 7.206 3.568Q7.274 3.534 7.308 3.534L7.308 3.534Q7.444 3.534 7.444 3.602L7.444 3.602L7.614 3.534L7.682 3.534L7.682 3.602L7.614 3.704Q7.512 3.806 7.308 3.908Q7.104 4.010 6.424 4.520L6.424 4.520L5.982 4.860L6.220 5.030L6.050 4.928Q6.050 5.030 5.846 5.030L5.846 5.030L5.846 5.098L5.982 5.302Q5.846 5.302 5.744 5.234L5.744 5.234Q5.098 5.336 4.724 5.982L4.724 5.982L4.724 6.288L4.758 6.254Q5.030 5.982 5.234 5.846L5.234 5.846L5.234 6.050L5.166 6.050L5.030 6.152L5.030 6.220L5.166 6.424L5.166 6.526Q5.268 6.356 5.404 6.220L5.404 6.220L5.982 5.608L6.356 5.404Q6.662 5.506 6.662 5.608L6.662 5.608L6.798 5.608Q8.566 4.316 10.334 3.670L10.334 3.670L10.334 3.806Q10.266 3.976 10.028 4.180L10.028 4.180Q9.960 4.282 9.892 4.282L9.892 4.282Q9.892 4.418 10.028 4.554L10.028 4.554Q9.314 6.866 8.430 8.600L8.430 8.600Q5.880 15.298 2.446 21.588L2.446 21.588Q2.446 21.622 2.480 21.707Q2.514 21.792 2.514 21.826L2.514 21.826L2.718 21.758Q2.956 21.656 3.262 21.520L3.262 21.520L3.330 21.520L3.330 21.656L3.466 21.656L3.636 21.588L3.772 21.588L3.772 21.894L3.534 22.438Q3.092 23.152 3.024 23.628L3.024 23.628L3.024 23.696L3.262 23.696L3.466 23.390Q4.350 22.370 4.724 21.520L4.724 21.520L5.472 21.282Q6.220 21.078 6.798 20.840L6.798 20.840L6.934 20.772Q8.430 20.194 9.144 19.820L9.144 19.820Q9.756 19.820 10.385 19.599Q11.014 19.378 11.524 18.970L11.524 18.970L11.524 18.902L11.150 19.072L11.082 19.072L11.082 18.902Q12.034 18.800 12.612 18.392L12.612 18.392Q14.278 17.134 15.944 15.910L15.944 15.910Q19.378 13.360 19.276 10.980L19.276 10.980Q18.630 9.926 17.950 9.348L17.950 9.348L17.712 9.042Q17.712 8.770 18.766 8.158ZM15.196 13.836L15.196 13.836L13.156 15.468Q11.524 16.522 10.708 16.964L10.708 16.964Q8.702 18.188 6.492 18.970L6.492 18.970L6.220 19.072L6.118 19.072Q6.186 18.834 7.818 15.536L7.818 15.536L9.382 12.408Q11.592 12.068 13.666 11.150L13.666 11.150L14.176 11.082Q14.788 10.946 15.366 11.116Q15.944 11.286 16.386 11.660L16.386 11.660L16.386 11.966Q15.842 13.496 15.196 13.836ZM16.454 7.036L16.454 7.036Q15.672 7.818 14.686 8.362L14.686 8.362Q12.680 9.008 11.218 9.790L11.218 9.790Q11.150 9.790 11.082 9.722L11.082 9.722L10.844 9.722L10.844 9.586Q10.844 8.940 11.218 8.464L11.218 8.464Q11.456 7.138 11.728 7.036L11.728 7.036L13.428 3.228Q13.428 3.058 13.717 2.905Q14.006 2.752 14.550 2.718L14.550 2.718L14.754 2.718L14.754 2.922Q15.502 2.786 16.114 2.786L16.114 2.786Q16.998 2.684 17.525 2.854Q18.052 3.024 18.154 3.432L18.154 3.432L18.154 3.602L18.324 3.602L18.324 3.092L18.460 3.092Q18.936 3.330 19.038 3.738L19.038 3.738L19.038 3.908Q19.038 4.350 18.698 4.724L18.698 4.724Q18.528 4.724 18.528 4.486L18.528 4.486L18.392 4.486L18.392 4.928Q17.406 6.526 16.896 6.526L16.896 6.526Q16.726 6.798 16.454 7.036Z"/></svg>