<?xml version="1.0" encoding="UTF-8"?>
<svg xmlns="http://www.w3.org/2000/svg" width="32" height="32" viewBox="0 0 24 24" fill="#666666"><path d="M0.135 20.463L0.135 20.463L0.135 3.663Q0.135 3.579 0.198 3.516Q0.261 3.453 0.261 3.411L0.261 3.411Q0.723 1.731 1.983 1.017L1.983 1.017L3.537 0.261L20.337 0.261Q20.421 0.261 20.484 0.324Q20.547 0.387 20.589 0.387L20.589 0.387Q22.311 0.975 23.361 2.613L23.361 2.613Q23.571 3.201 23.865 3.537L23.865 3.537L23.865 20.337Q23.865 20.379 23.802 20.463Q23.739 20.547 23.739 20.589L23.739 20.589Q23.319 22.017 22.059 22.941L22.059 22.941Q21.219 23.571 20.337 23.739L20.337 23.739L3.537 23.739Q3.453 23.739 3.390 23.676Q3.327 23.613 3.285 23.613L3.285 23.613Q1.563 23.025 0.513 21.387L0.513 21.387Q0.387 21.261 0.135 20.463ZM3.789 6.687L3.789 6.687Q4.209 7.191 5.049 8.241L5.049 8.241Q6.435 10.047 7.233 10.887L7.233 10.887Q7.317 10.971 7.485 11.055Q7.653 11.139 7.737 11.139L7.737 11.139L16.137 11.139Q16.221 11.139 16.410 11.076Q16.599 11.013 16.683 11.013L16.683 11.013L17.901 9.459Q19.329 7.653 20.085 6.813L20.085 6.813Q18.111 4.461 15.087 3.579Q12.063 2.697 9.081 3.453L9.081 3.453Q5.889 4.251 3.789 6.687ZM14.037 6.015L14.961 4.713Q14.709 5.553 14.310 7.401Q13.911 9.249 13.659 10.089L13.659 10.089L11.139 10.089Q12.231 8.703 14.037 6.015L14.037 6.015Z"/></svg>