<?xml version="1.0" encoding="UTF-8"?>
<svg xmlns="http://www.w3.org/2000/svg" width="32" height="32" viewBox="0 0 24 24" fill="#666666"><path d="M4.608 21.520L4.608 21.800L2.480 21.800Q2.004 20.792 1.598 19.728Q1.192 18.664 0.912 17.432L0.912 17.432Q0.632 16.312 0.478 14.912Q0.324 13.512 0.324 12L0.324 12Q0.324 10.376 0.492 9.032Q0.660 7.688 0.912 6.596L0.912 6.596Q1.192 5.392 1.584 4.314Q1.976 3.236 2.480 2.200L2.480 2.200L4.608 2.200L4.608 2.508Q4.132 3.236 3.712 4.146Q3.292 5.056 2.942 6.274Q2.592 7.492 2.368 8.934Q2.144 10.376 2.144 12L2.144 12Q2.144 13.708 2.354 15.094Q2.564 16.480 2.928 17.712L2.928 17.712Q3.264 18.888 3.698 19.854Q4.132 20.820 4.608 21.520L4.608 21.520ZM23.676 12L23.676 12Q23.676 13.512 23.522 14.898Q23.368 16.284 23.088 17.432L23.088 17.432Q22.808 18.664 22.402 19.728Q21.996 20.792 21.520 21.800L21.520 21.800L19.392 21.800L19.392 21.520Q19.840 20.820 20.288 19.854Q20.736 18.888 21.086 17.684Q21.436 16.480 21.646 15.094Q21.856 13.708 21.856 12L21.856 12Q21.856 10.376 21.632 8.934Q21.408 7.492 21.058 6.274Q20.708 5.056 20.288 4.146Q19.868 3.236 19.392 2.508L19.392 2.508L19.392 2.200L21.520 2.200Q22.024 3.236 22.416 4.314Q22.808 5.392 23.088 6.596L23.088 6.596Q23.340 7.688 23.508 9.032Q23.676 10.376 23.676 12ZM6.260 10.068L6.260 10.068Q5.476 10.068 4.958 9.522Q4.440 8.976 4.440 8.150Q4.440 7.324 4.972 6.792Q5.504 6.260 6.316 6.260Q7.128 6.260 7.646 6.792Q8.164 7.324 8.164 8.164Q8.164 9.004 7.632 9.536Q7.100 10.068 6.260 10.068ZM6.260 18.552L6.260 18.552Q5.476 18.552 4.958 17.992Q4.440 17.432 4.440 16.606Q4.440 15.780 4.972 15.248Q5.504 14.716 6.316 14.716Q7.128 14.716 7.646 15.262Q8.164 15.808 8.164 16.634Q8.164 17.460 7.632 18.006Q7.100 18.552 6.260 18.552ZM18.972 11.160L18.972 18.244L15.976 18.244L15.976 16.564L15.920 16.564Q14.884 18.552 12.868 18.552L12.868 18.552Q11.384 18.552 10.530 17.572Q9.676 16.592 9.676 14.968L9.676 14.968Q9.676 11.496 13.204 10.964L13.204 10.964L15.976 10.544Q15.976 8.612 14.156 8.612Q12.336 8.612 10.684 9.872L10.684 9.872L10.684 7.100Q11.328 6.708 12.476 6.414Q13.624 6.120 14.576 6.120L14.576 6.120Q18.972 6.120 18.972 11.160L18.972 11.160ZM16.004 13.428L16.004 13.428L16.004 12.644L14.128 12.924Q12.588 13.148 12.588 14.520L12.588 14.520Q12.588 15.164 12.966 15.556Q13.344 15.948 13.988 15.948L13.988 15.948Q14.856 15.948 15.430 15.234Q16.004 14.520 16.004 13.428Z"/></svg>