<?xml version="1.0" encoding="UTF-8"?>
<svg xmlns="http://www.w3.org/2000/svg" width="32" height="32" viewBox="0 0 24 24" fill="#666666"><path d="M13.913 0.300L14.453 0.030L20.212 0.030Q20.302 0.030 20.438 0.098Q20.573 0.165 20.663 0.165L20.663 0.165Q23.363 0.840 23.768 3.270L23.768 3.270Q23.768 3.405 23.835 3.698Q23.902 3.990 23.902 4.125L23.902 4.125L23.902 5.250Q23.902 5.385 23.835 5.678Q23.768 5.970 23.768 6.105L23.768 6.105L23.272 12.855Q22.732 18.975 22.643 22.125L22.643 22.125Q22.598 22.530 22.463 22.688Q22.327 22.845 21.923 22.845L21.923 22.845Q21.157 22.890 19.672 22.957Q18.188 23.025 17.422 23.115L17.422 23.115Q15.892 23.160 12.788 23.385Q9.683 23.610 8.152 23.655L8.152 23.655Q7.297 23.655 5.588 23.970L5.588 23.970L4.193 23.970Q4.148 23.970 3.990 23.880Q3.832 23.790 3.787 23.790L3.787 23.790Q2.482 23.610 1.605 22.845Q0.728 22.080 0.413 20.865L0.413 20.865Q0.322 20.640 0.255 20.212Q0.188 19.785 0.098 19.605L0.098 19.605L0.098 18.885Q0.098 18.840 0.188 18.660Q0.277 18.480 0.277 18.345L0.277 18.345Q0.277 17.760 0.345 16.567Q0.413 15.375 0.413 14.835L0.413 14.835Q0.413 13.530 0.548 12.990L0.548 12.990Q1.402 10.785 2.213 9.345L2.213 9.345Q3.248 7.455 4.598 6.105L4.598 6.105Q6.532 4.035 8.468 2.775L8.468 2.775Q10.672 1.335 13.058 0.750L13.058 0.750Q13.328 0.570 13.913 0.300L13.913 0.300Z"/></svg>