<?xml version="1.0" encoding="UTF-8"?>
<svg xmlns="http://www.w3.org/2000/svg" width="32" height="32" viewBox="0 0 24 24" fill="#666666"><path d="M19.224 14.604L19.224 14.604L8.052 14.604L10.698 8.052L15.024 8.052L15.948 6.078L12 6.078L10.698 4.104L12 2.172L15.948 2.172L15.024 0.198L10.698 0.198L7.800 4.104L8.976 6.078L1.122 15.948Q0.702 16.452 0.450 17.166Q0.198 17.880 0.198 18.552L0.198 18.552Q0.198 20.022 1.143 21.156Q2.088 22.290 3.474 22.500L3.474 22.500L10.614 23.172Q18.006 23.802 19.224 23.802Q20.442 23.802 21.492 23.172Q22.542 22.542 23.172 21.492Q23.802 20.442 23.802 19.224Q23.802 18.006 23.172 16.935Q22.542 15.864 21.492 15.234Q20.442 14.604 19.224 14.604ZM4.146 20.526L4.146 20.526Q3.348 20.526 2.760 19.938Q2.172 19.350 2.172 18.552Q2.172 17.754 2.760 17.166Q3.348 16.578 4.125 16.578Q4.902 16.578 5.490 17.166Q6.078 17.754 6.078 18.552Q6.078 19.350 5.490 19.938Q4.902 20.526 4.146 20.526ZM19.224 21.828L19.224 21.828Q18.132 21.828 17.355 21.072Q16.578 20.316 16.578 19.224Q16.578 18.132 17.355 17.355Q18.132 16.578 19.224 16.578Q20.316 16.578 21.072 17.355Q21.828 18.132 21.828 19.224Q21.828 20.316 21.072 21.072Q20.316 21.828 19.224 21.828Z"/></svg>