<?xml version="1.0" encoding="UTF-8"?>
<svg xmlns="http://www.w3.org/2000/svg" width="32" height="32" viewBox="0 0 24 24" fill="#666666"><path d="M13.452 8.241L13.490 8.241Q15.010 8.241 16.454 8.583L16.454 8.583L17.024 8.849Q18.050 9.343 18.278 10.255L18.278 10.255Q18.506 11.053 18.088 11.927L18.088 11.927Q17.974 12.307 17.670 12.725L17.670 12.725Q17.480 12.953 17.024 13.333L17.024 13.333L16.796 13.599Q16.112 14.169 14.592 15.157L14.592 15.157L13.718 15.727Q13.414 15.917 12.806 16.297L12.806 16.297Q11.704 17.019 11.210 17.513L11.210 17.513Q11.096 17.627 10.925 17.855Q10.754 18.083 10.602 18.197L10.602 18.197Q10.450 18.463 10.431 18.786Q10.412 19.109 10.488 19.413L10.488 19.413Q10.754 19.945 11.267 20.363Q11.780 20.781 12.445 20.952Q13.110 21.123 13.604 20.743Q14.098 20.363 14.174 19.641L14.174 19.641L14.174 19.147Q14.174 18.691 14.554 18.349L14.554 18.349Q15.162 17.893 15.846 17.741L15.846 17.741Q17.100 17.475 17.746 17.627L17.746 17.627Q17.974 17.627 18.088 17.741L18.088 17.741Q18.544 17.931 18.658 18.197Q18.772 18.463 18.696 18.919L18.696 18.919Q18.202 20.895 16.568 22.377L16.568 22.377Q15.124 23.631 13.338 23.783L13.338 23.783Q11.932 23.973 10.488 23.441L10.488 23.441Q5.814 21.655 4.218 16.791L4.218 16.791Q3.686 15.005 4.180 13.447Q4.674 11.889 6.118 10.749L6.118 10.749Q7.752 9.229 10.754 8.583L10.754 8.583Q11.704 8.355 12.160 8.355L12.160 8.355Q12.768 8.241 13.452 8.241L13.452 8.241ZM15.010 4.783L15.010 4.783Q15.200 1.933 17.518 0.641L17.518 0.641Q18.924-0.081 20.368 0.299L20.368 0.299Q21.166 0.451 21.470 0.907Q21.774 1.363 21.641 2.199Q21.508 3.035 20.824 3.966Q20.140 4.897 19.722 5.353L19.722 5.353Q19.038 6.075 18.354 6.455L18.354 6.455Q17.594 7.025 16.796 7.177L16.796 7.177Q16.226 7.253 15.827 7.063Q15.428 6.873 15.238 6.341L15.238 6.341Q15.010 5.619 15.010 4.783ZM13.338 2.769L13.338 2.769Q13.338 4.479 12.502 5.619L12.502 5.619Q12.350 5.961 12.046 6.113L12.046 6.113Q11.780 6.379 11.457 6.379Q11.134 6.379 10.868 6.113L10.868 6.113Q10.488 5.733 10.260 5.049L10.260 5.049Q9.842 3.605 10.146 2.427L10.146 2.427Q10.526 1.097 11.932 1.097L11.932 1.097Q12.388 1.097 12.711 1.287Q13.034 1.477 13.110 1.819L13.110 1.819Q13.224 1.933 13.224 2.199L13.224 2.199Q13.224 2.541 13.338 2.769ZM8.474 4.897L8.474 5.277Q8.474 5.847 8.436 6.151L8.436 6.151Q8.360 6.607 8.132 6.949L8.132 6.949Q7.942 7.405 7.600 7.462Q7.258 7.519 6.840 7.177L6.840 7.177Q5.814 6.341 5.624 5.049L5.624 5.049L5.624 4.213Q5.738 3.643 6.137 3.263Q6.536 2.883 7.068 2.883L7.068 2.883Q7.676 2.883 8.018 3.377L8.018 3.377Q8.474 4.023 8.474 4.897L8.474 4.897ZM5.168 8.735L5.168 8.697Q5.168 9.077 4.940 9.533L4.940 9.533Q4.750 10.065 4.218 9.913L4.218 9.913L4.104 9.875L3.990 9.799Q3.268 9.533 2.793 8.716Q2.318 7.899 2.318 7.177L2.318 7.177Q2.318 6.759 2.584 6.417Q2.850 6.075 3.268 5.847L3.268 5.847Q3.800 5.695 4.332 6.227L4.332 6.227Q4.636 6.531 4.788 7.025L4.788 7.025Q4.902 7.291 5.016 7.899L5.016 7.899L5.054 8.013Q5.168 8.355 5.168 8.735L5.168 8.735Z"/></svg>