<?xml version="1.0" encoding="UTF-8"?>
<svg xmlns="http://www.w3.org/2000/svg" width="32" height="32" viewBox="0 0 24 24" fill="#666666"><path d="M14.768 8.750L14.768 8.750Q14.636 7.067 13.431 5.994Q12.227 4.922 10.445 4.823L10.445 4.823L8.894 4.823Q8.795 3.602 9.356 2.710L9.356 2.710Q10.016 1.556 11.484 1.407Q12.953 1.259 13.943 2.248L13.943 2.248Q14.768 3.206 14.768 4.724L14.768 4.724Q14.768 5.021 14.900 5.152L14.900 5.152L15.824 6.076Q16.253 4.756 15.923 3.271L15.923 3.271Q15.527 1.919 14.454 1.093Q13.382 0.268 11.897 0.203L11.897 0.203Q10.940 0.203 10.280 0.401L10.280 0.401Q9.488 0.631 8.894 1.226L8.894 1.226Q8.168 1.919 7.821 3.041Q7.475 4.163 7.739 5.318L7.739 5.318Q8.036 6.572 8.993 7.495L8.993 7.495Q9.323 7.826 10.148 8.222L10.148 8.222Q10.511 8.387 10.791 8.172Q11.072 7.957 11.072 7.628L11.072 7.628Q11.072 6.934 10.346 6.803L10.346 6.803Q10.247 6.803 10.049 6.572L10.049 6.572L10.049 6.473Q10.346 6.407 10.692 6.489Q11.039 6.572 11.270 6.803L11.270 6.803Q11.732 7.265 11.567 8.024L11.567 8.024Q11.435 8.585 10.989 8.799Q10.544 9.014 9.917 8.849L9.917 8.849Q8.366 8.419 7.574 6.803L7.574 6.803Q7.508 6.637 7.359 6.324Q7.211 6.011 7.145 5.846L7.145 5.846Q6.518 6.506 6.188 6.968L6.188 6.968Q5.759 7.628 5.594 8.321L5.594 8.321Q5.000 11.093 7.046 12.974L7.046 12.974Q7.145 13.073 7.178 13.155Q7.211 13.238 7.145 13.403L7.145 13.403Q6.980 14.822 6.749 15.746L6.749 15.746Q6.584 16.637 6.320 18.336Q6.056 20.035 5.907 20.894Q5.759 21.752 5.924 22.577L5.924 22.577Q6.089 23.236 6.749 23.501L6.749 23.501Q6.782 23.303 6.831 22.890Q6.881 22.478 6.947 22.247L6.947 22.247Q7.112 21.389 7.359 19.689Q7.607 17.989 7.772 17.099L7.772 17.099Q7.871 16.571 8.019 15.498Q8.168 14.426 8.300 13.898L8.300 13.898Q8.300 13.601 8.597 13.601L8.597 13.601Q8.729 13.601 8.762 13.700Q8.795 13.799 8.795 13.997L8.795 13.997Q8.663 15.218 8.300 17.000L8.300 17.000Q8.135 18.089 7.805 20.102L7.805 20.102Q7.409 22.412 7.244 23.501L7.244 23.501Q7.244 23.567 7.310 23.633L7.310 23.633L7.343 23.699Q7.607 23.699 8.069 23.748Q8.531 23.797 8.795 23.797L8.795 23.797Q9.422 23.797 10.049 22.973L10.049 22.973Q10.478 22.544 10.148 21.851L10.148 21.851Q9.950 21.653 9.950 21.521L9.950 21.521Q9.488 20.927 10.148 20.597L10.148 20.597Q10.181 20.564 10.346 20.514Q10.511 20.465 10.544 20.399L10.544 20.399Q10.709 20.333 10.758 20.135Q10.808 19.937 10.643 19.772L10.643 19.772L10.346 19.474Q10.016 19.079 9.851 18.947Q9.686 18.815 9.735 18.567Q9.785 18.320 9.933 18.221Q10.082 18.122 10.445 17.973Q10.808 17.825 10.973 17.726Q11.138 17.627 11.171 17.495Q11.204 17.363 11.072 17.198L11.072 17.198Q10.874 17.000 10.742 16.802L10.742 16.802Q10.544 16.571 10.577 16.241Q10.610 15.911 10.841 15.729Q11.072 15.548 11.270 15.548L11.270 15.548Q11.567 15.416 11.600 15.152L11.600 15.152Q11.567 14.987 11.633 14.673Q11.699 14.360 11.699 14.228L11.699 14.228Q11.699 14.129 11.765 13.997Q11.831 13.865 11.897 13.799L11.897 13.799Q12.194 13.502 13.019 13.073L13.019 13.073Q14.075 12.314 14.504 11.208Q14.933 10.103 14.768 8.750ZM18.497 20.498L18.497 20.498Q18.497 20.102 18.068 20.102L18.068 20.102Q17.837 20.102 17.738 20.069L17.738 20.069Q17.540 20.003 17.474 19.772L17.474 19.772Q17.309 19.309 17.474 18.848L17.474 18.848Q17.804 18.188 17.045 18.023L17.045 18.023Q16.946 18.023 16.715 17.973Q16.484 17.924 16.319 17.924L16.319 17.924Q16.022 17.924 16.022 17.627L16.022 17.627Q16.022 17.528 15.972 17.313Q15.923 17.099 15.923 17.000L15.923 17.000Q15.923 16.802 16.055 16.604L16.055 16.604Q16.121 16.471 16.302 16.257Q16.484 16.043 16.467 15.927Q16.451 15.812 16.220 15.647L16.220 15.647Q16.187 15.614 16.022 15.515Q15.857 15.416 15.824 15.350L15.824 15.350Q15.527 15.185 15.477 15.020Q15.428 14.855 15.593 14.525L15.593 14.525Q15.824 14.327 15.824 14.228L15.824 14.228Q16.088 13.931 15.923 13.601L15.923 13.601L15.824 13.436Q15.659 13.040 15.494 12.875L15.494 12.875Q15.362 12.578 15.494 12.248L15.494 12.248Q16.814 9.640 15.824 7.198L15.824 7.198Q15.032 5.515 13.118 5.053L13.118 5.053L13.019 5.152Q13.085 5.186 13.184 5.351Q13.283 5.515 13.349 5.549L13.349 5.549Q15.296 7.198 15.296 9.575L15.296 9.575Q15.296 12.248 13.019 13.898L13.019 13.898Q12.854 13.997 12.804 14.129Q12.755 14.261 12.821 14.426L12.821 14.426Q13.019 14.921 13.382 15.911Q13.745 16.901 13.943 17.396L13.943 17.396L16.418 23.171L16.484 23.270Q16.583 23.402 16.748 23.402L16.748 23.402Q17.672 22.940 18.167 22.148Q18.662 21.356 18.497 20.498ZM12.293 14.426L12.293 14.426Q12.260 14.624 12.210 14.954Q12.161 15.284 12.095 15.449L12.095 15.449L12.062 15.647Q12.029 15.944 12.095 16.076L12.095 16.076L14.273 21.422Q14.636 22.346 15.296 22.873L15.296 22.873Q15.692 23.072 15.824 23.204L15.824 23.204L15.923 23.072Q14.768 20.201 12.293 14.426Z"/></svg>