<?xml version="1.0" encoding="UTF-8"?>
<svg xmlns="http://www.w3.org/2000/svg" width="32" height="32" viewBox="0 0 24 24" fill="#666666"><path d="M11.882 16.016L11.882 16.016L9.572 16.016Q8.977 16.016 8.837 15.911Q8.697 15.806 8.592 15.246L8.592 15.246Q8.102 12.761 6.947 10.661L6.947 10.661Q6.387 9.681 5.862 8.246L5.862 8.246Q5.232 6.461 5.547 4.501L5.547 4.501Q5.687 3.241 6.439 2.279Q7.192 1.316 8.382 0.791L8.382 0.791Q10.202-0.014 12.057 0.004Q13.912 0.021 15.697 0.896L15.697 0.896Q17.342 1.631 18.059 3.206Q18.777 4.781 18.462 6.706L18.462 6.706Q18.287 7.826 17.832 8.981L17.832 8.981Q17.517 9.786 16.817 11.081L16.817 11.081Q15.662 13.391 15.382 15.141L15.382 15.141Q15.277 15.666 15.189 15.841Q15.102 16.016 14.909 16.069Q14.717 16.121 14.192 16.121L14.192 16.121Q13.317 16.016 11.882 16.016ZM11.777 23.996L11.777 23.996L9.152 23.996Q8.802 23.996 8.644 23.856Q8.487 23.716 8.487 23.331L8.487 23.331L8.487 22.876Q8.487 22.386 8.522 22.229Q8.557 22.071 8.749 22.036Q8.942 22.001 9.502 22.001L9.502 22.001L14.507 22.036Q14.892 22.001 15.032 22.159Q15.172 22.316 15.172 22.666L15.172 22.666Q15.172 23.331 15.119 23.559Q15.067 23.786 14.839 23.839Q14.612 23.891 13.947 23.891L13.947 23.891Q13.317 23.996 11.777 23.996ZM14.227 20.041L11.882 20.041L9.152 20.041Q8.837 20.041 8.714 19.936Q8.592 19.831 8.592 19.516L8.592 19.516L8.592 19.201Q8.592 18.641 8.627 18.466Q8.662 18.291 8.837 18.239Q9.012 18.186 9.537 18.186L9.537 18.186L14.507 18.186Q15.172 18.186 15.172 18.851L15.172 18.851L15.172 19.131Q15.172 19.656 15.137 19.814Q15.102 19.971 14.927 20.006Q14.752 20.041 14.227 20.041L14.227 20.041Z"/></svg>