<?xml version="1.0" encoding="UTF-8"?>
<svg xmlns="http://www.w3.org/2000/svg" width="32" height="32" viewBox="0 0 24 24" fill="#666666"><path d="M0.355 12.231L0.355 12.231L0.355 11.853Q0.397 11.517 0.565 11.265L0.565 11.265Q0.691 11.097 0.943 10.803L0.943 10.803L1.279 10.425L7.831 3.831L7.873 3.873Q7.957 3.873 7.957 3.957L7.957 3.957L10.309 6.351Q10.519 6.519 10.309 6.729L10.309 6.729Q10.225 7.317 10.435 7.863Q10.645 8.409 11.107 8.703L11.107 8.703Q11.275 8.787 11.317 8.892Q11.359 8.997 11.359 9.207L11.359 9.207L11.359 15.003Q11.359 15.255 11.107 15.507L11.107 15.507Q10.603 15.843 10.372 16.389Q10.141 16.935 10.330 17.502Q10.519 18.069 10.981 18.447Q11.443 18.825 12.031 18.825Q12.619 18.825 13.081 18.489Q13.543 18.153 13.732 17.586Q13.921 17.019 13.753 16.473Q13.585 15.927 13.081 15.507L13.081 15.507Q12.913 15.423 12.871 15.318Q12.829 15.213 12.829 15.003L12.829 15.003L12.829 9.081L12.955 9.081L15.055 11.181Q15.139 11.265 15.139 11.391L15.139 11.391L15.181 11.475L15.181 12.231Q15.265 13.029 15.874 13.470Q16.483 13.911 17.281 13.806Q18.079 13.701 18.562 13.029Q19.045 12.357 18.835 11.601L18.835 11.601Q18.751 10.929 18.100 10.488Q17.449 10.047 16.735 10.131L16.735 10.131Q16.483 10.131 16.231 10.005L16.231 10.005L14.005 7.779Q13.879 7.653 13.879 7.401L13.879 7.401Q14.005 6.813 13.711 6.267Q13.417 5.721 12.871 5.448Q12.325 5.175 11.779 5.301L11.779 5.301Q11.359 5.301 11.359 5.175L11.359 5.175Q9.805 3.579 9.007 2.907L9.007 2.907Q8.797 2.739 9.007 2.529L9.007 2.529Q9.469 2.193 10.183 1.353L10.183 1.353L10.729 0.807Q11.905-0.369 13.081 0.807L13.081 0.807L23.035 10.803Q24.253 11.979 23.035 13.155L23.035 13.155L13.291 22.941Q12.913 23.319 12.745 23.445L12.745 23.445Q12.409 23.739 12.031 23.781L12.031 23.781L11.779 23.781L11.569 23.697Q11.065 23.487 10.855 23.277L10.855 23.277L10.057 22.479Q8.881 21.387 8.335 20.757L8.335 20.757L1.153 13.575Q1.069 13.365 0.775 13.029L0.775 13.029Q0.397 12.525 0.355 12.231Z"/></svg>