<?xml version="1.0" encoding="UTF-8"?>
<svg xmlns="http://www.w3.org/2000/svg" width="32" height="32" viewBox="0 0 24 24" fill="#666666"><path d="M0.372 0.202L0.372 0.202Q6.803 0.084 12.408 3.506L12.408 3.506Q17.718 6.751 20.845 12.208Q23.972 17.666 23.795 23.625L23.795 23.625L19.016 23.625Q18.839 19.731 17.541 16.486Q16.243 13.241 13.677 10.527Q11.110 7.813 7.688 6.456L7.688 6.456Q4.384 5.158 0.549 5.158L0.549 5.158Q0.372 3.506 0.372 0.202ZM16.243 23.802L16.243 23.802L11.464 23.802L10.874 20.852Q9.753 17.489 7.600 15.542Q5.446 13.595 2.024 12.946L2.024 12.946Q1.670 12.710 0.726 12.710L0.726 12.710Q0.490 12.710 0.431 12.621Q0.372 12.533 0.372 12.356L0.372 12.356L0.372 7.754Q5.977 7.754 10.520 11.471L10.520 11.471Q15.948 16.368 16.243 23.802ZM6.862 20.498L6.862 20.498Q6.862 21.855 5.889 22.828Q4.915 23.802 3.529 23.802Q2.142 23.802 1.228 22.858Q0.313 21.914 0.195 20.498L0.195 20.498Q0.195 19.082 1.169 18.108Q2.142 17.135 3.529 17.135Q4.915 17.135 5.889 18.108Q6.862 19.082 6.862 20.498Z"/></svg>