<?xml version="1.0" encoding="UTF-8"?>
<svg xmlns="http://www.w3.org/2000/svg" width="32" height="32" viewBox="0 0 24 24" fill="#666666"><path d="M14.375 14.128L14.375 14.014Q13.463 14.014 12.836 13.387Q12.209 12.760 12.209 11.867Q12.209 10.974 12.836 10.366Q13.463 9.758 14.375 9.758L14.375 9.758Q14.983 9.758 15.553 10.100Q16.123 10.442 16.389 11.050L16.389 11.050L18.175 11.050Q17.795 9.720 16.750 8.903Q15.705 8.086 14.375 8.086L14.375 8.086Q13.311 8.086 12.399 8.618Q11.487 9.150 10.955 10.043Q10.423 10.936 10.423 12Q10.423 13.064 10.955 13.957Q11.487 14.850 12.399 15.382Q13.311 15.914 14.375 15.914L14.375 15.914L19.923 15.914L19.923 14.128L14.375 14.128ZM7.839 15.800L7.839 8.086L9.625 8.086L9.625 15.800L7.839 15.800ZM6.167 11.164L6.167 9.378L7.953 9.378L7.953 11.164L6.167 11.164ZM20.189 3.792L20.189 3.792L4.153 3.792L0.125 12L2.139 16.066Q4.153 20.132 4.153 20.208L4.153 20.208L20.189 20.208Q21.671 20.208 22.773 19.125Q23.875 18.042 23.875 16.522L23.875 16.522L23.875 7.364Q23.875 5.920 22.811 4.856Q21.747 3.792 20.189 3.792ZM22.089 7.478L22.089 16.636Q22.089 17.396 21.557 17.909Q21.025 18.422 20.303 18.422L20.303 18.422L5.559 18.422L3.735 15.458Q1.873 12.456 1.873 12.228L1.873 12.228L5.559 5.692L20.303 5.692Q21.063 5.692 21.576 6.224Q22.089 6.756 22.089 7.478L22.089 7.478Z"/></svg>