<?xml version="1.0" encoding="UTF-8"?>
<svg xmlns="http://www.w3.org/2000/svg" width="32" height="32" viewBox="0 0 24 24" fill="#666666"><path d="M8.048 9.283L12.000 23.799L15.952 9.283L8.048 9.283ZM2.538 9.283L12.000 23.799L8.048 9.283L2.538 9.283ZM12.000 23.799L2.538 9.283L1.360 13.691Q1.284 13.995 1.360 14.299Q1.436 14.603 1.664 14.793L1.664 14.793L12.000 23.799ZM4.932 0.543L2.538 9.283L8.048 9.283L5.692 0.543Q5.616 0.201 5.312 0.201Q5.008 0.201 4.932 0.543L4.932 0.543ZM21.462 9.283L12.000 23.799L15.952 9.283L21.462 9.283ZM12.000 23.799L21.462 9.283L22.640 13.691Q22.716 13.995 22.640 14.299Q22.564 14.603 22.336 14.793L22.336 14.793L12.000 23.799ZM19.068 0.543L21.462 9.283L15.952 9.283L18.308 0.543Q18.384 0.201 18.688 0.201Q18.992 0.201 19.068 0.543L19.068 0.543Z"/></svg>