<?xml version="1.0" encoding="UTF-8"?>
<svg xmlns="http://www.w3.org/2000/svg" width="32" height="32" viewBox="0 0 24 24" fill="#666666"><path d="M11.924 10.157L11.924 10.157L11.924 13.843L10.518 13.843Q8.542 13.729 7.554 13.615L7.554 13.615Q5.958 13.425 4.666 13.007L4.666 13.007Q3.716 12.779 2.082 12.057L2.082 12.057Q1.588 11.943 0.866 11.487L0.866 11.487Q0.448 11.107 0.258 10.727Q0.068 10.347 0.068 9.815L0.068 9.815L0.068 6.699Q0.068 6.015 0.638 5.407L0.638 5.407Q1.398 4.647 2.918 4.229L2.918 4.229Q5.350 3.355 8.010 3.165L8.010 3.165L8.314 3.127Q11.316 2.899 12.874 2.899L12.874 2.899Q17.092 2.899 20.816 4.115L20.816 4.115Q21.310 4.267 22.222 4.761L22.222 4.761L22.982 5.179Q23.932 5.749 23.932 6.965L23.932 6.965L23.932 9.929Q23.932 11.107 23.096 11.601L23.096 11.601Q22.716 11.867 21.918 12.247L21.918 12.247L21.538 12.437Q21.462 12.513 21.196 12.437L21.196 12.437L21.082 12.437Q15.382 10.993 12.418 10.271L12.418 10.271Q12.152 10.157 11.924 10.157ZM11.924 17.985L11.924 21.101L9.568 21.101Q5.996 20.873 3.602 20.151L3.602 20.151Q3.108 19.999 2.348 19.657L2.348 19.657L1.132 19.049Q0.068 18.365 0.068 17.035L0.068 17.035L0.068 14.299Q0.752 15.249 1.968 15.857L1.968 15.857Q2.652 16.199 4.210 16.693L4.210 16.693Q7.516 17.529 11.468 17.529L11.468 17.529Q11.734 17.529 11.829 17.624Q11.924 17.719 11.924 17.985L11.924 17.985ZM23.818 14.185L23.818 14.185L23.818 17.529Q23.780 18.175 23.096 18.707L23.096 18.707Q21.918 19.429 21.310 19.657L21.310 19.657Q21.234 19.733 20.968 19.695L20.968 19.695L20.702 19.657L12.152 17.529Q12.076 17.529 12.000 17.415L12.000 17.415L11.924 17.301L11.924 13.957Q12.342 14.071 13.121 14.261Q13.900 14.451 14.318 14.565L14.318 14.565Q15.420 14.869 17.624 15.401Q19.828 15.933 20.968 16.199L20.968 16.199L21.424 16.199L21.880 15.933Q22.602 15.515 22.944 15.249L22.944 15.249Q23.476 14.793 23.818 14.185Z"/></svg>