<?xml version="1.0" encoding="UTF-8"?>
<svg xmlns="http://www.w3.org/2000/svg" width="32" height="32" viewBox="0 0 24 24" fill="#666666"><path d="M22.745 11.388L22.745 11.388Q22.631 11.350 22.327 11.198L22.327 11.198Q21.871 11.008 21.567 10.932L21.567 10.932Q19.971 10.476 16.779 9.982L16.779 9.982L15.145 9.754Q14.993 9.754 14.613 9.678Q14.233 9.602 13.967 9.640L13.967 9.640Q14.081 9.146 14.309 8.956Q14.537 8.766 15.145 8.652L15.145 8.652Q15.221 8.728 15.278 8.899Q15.335 9.070 15.373 9.165Q15.411 9.260 15.487 9.298Q15.563 9.336 15.639 9.260L15.639 9.260L16.475 9.260Q17.539 9.070 18.261 8.500Q18.983 7.930 19.439 6.904L19.439 6.904Q19.667 5.954 19.781 5.574L19.781 5.574Q20.009 3.940 20.959 2.952L20.959 2.952L21.225 2.724Q20.351 2.496 19.211 2.781Q18.071 3.066 17.045 3.788L17.045 3.788Q15.943 4.624 15.411 5.802L15.411 5.802Q15.297 5.764 14.993 5.707Q14.689 5.650 14.575 5.612Q14.461 5.574 14.404 5.498Q14.347 5.422 14.347 5.346L14.347 5.346Q13.587 3.332 11.725 2.154L11.725 2.154Q11.041 1.736 10.091 1.584L10.091 1.584Q9.255 1.432 8.381 1.546L8.381 1.546Q4.695 2.078 2.339 5.004L2.339 5.004Q1.199 6.410 0.648 8.120Q0.097 9.830 0.211 11.654L0.211 11.654Q0.363 15.340 2.567 18.646L2.567 18.646Q2.947 19.178 4.011 20.204L4.011 20.204L4.467 20.660Q5.113 21.040 5.835 20.983Q6.557 20.926 7.089 20.432L7.089 20.432Q7.127 20.356 7.260 20.185Q7.393 20.014 7.431 19.938L7.431 19.938Q7.431 20.014 7.488 20.071Q7.545 20.128 7.545 20.204L7.545 20.204Q7.659 20.394 7.849 20.926L7.849 20.926Q8.039 21.534 8.153 21.724L8.153 21.724Q8.343 22.104 8.856 22.294Q9.369 22.484 9.825 22.332L9.825 22.332Q9.977 22.142 10.167 22.332L10.167 22.332Q10.889 22.674 11.611 22.332L11.611 22.332Q11.687 22.294 11.839 22.142L11.839 22.142Q12.029 21.990 12.181 21.933Q12.333 21.876 12.675 21.952L12.675 21.952L12.903 21.990Q13.435 21.876 13.701 21.648L13.701 21.648Q14.081 21.344 14.081 20.774L14.081 20.774L14.119 20.736Q14.119 20.660 14.195 20.660L14.195 20.660Q14.385 20.584 14.537 20.413Q14.689 20.242 14.689 20.052L14.689 20.052Q14.841 19.558 14.689 18.874L14.689 18.874L14.309 18.228Q13.815 17.240 13.511 16.860L13.511 16.860L13.397 16.746Q14.081 16.974 14.575 17.088L14.575 17.088Q15.639 17.316 16.209 16.746L16.209 16.746Q16.285 16.746 16.342 16.803Q16.399 16.860 16.475 16.860L16.475 16.860Q17.159 17.316 18.033 17.164Q18.907 17.012 19.439 16.404L19.439 16.404L19.667 16.404Q20.769 16.556 21.567 15.910L21.567 15.910Q21.795 15.682 21.909 15.530L21.909 15.530Q22.061 15.302 22.061 15.074L22.061 15.074L22.061 14.960Q22.973 14.884 23.391 14.466Q23.809 14.048 23.809 13.174L23.809 13.174Q23.733 12.490 23.505 12.072Q23.277 11.654 22.745 11.388ZM17.539 8.196L17.539 8.196Q16.817 8.538 15.867 8.538L15.867 8.538L15.829 8.538Q15.753 8.500 15.715 8.405Q15.677 8.310 15.620 8.082Q15.563 7.854 15.544 7.740Q15.525 7.626 15.544 7.607Q15.563 7.588 15.639 7.588L15.639 7.588Q15.943 7.588 16.019 7.664Q16.095 7.740 16.095 8.082L16.095 8.082Q16.285 7.816 16.361 7.778Q16.437 7.740 16.703 7.854L16.703 7.854Q16.817 7.892 17.064 7.949Q17.311 8.006 17.425 8.082L17.425 8.082L17.615 8.196Q17.615 8.196 17.539 8.196ZM15.981 5.688L15.981 5.688Q16.475 4.814 17.767 3.788L17.767 3.788Q18.755 3.218 19.667 3.218L19.667 3.218Q19.439 3.446 19.325 3.674L19.325 3.674Q19.059 4.016 18.907 4.890L18.907 4.890L18.831 5.346Q18.603 6.524 18.375 7.132L18.375 7.132Q18.375 7.284 18.223 7.436L18.223 7.436Q18.147 7.550 18.147 7.588L18.147 7.588Q17.843 7.322 17.235 6.866L17.235 6.866L16.931 6.638L16.931 6.410L17.083 6.144Q17.539 5.384 17.805 5.004L17.805 5.004Q18.223 4.396 18.717 4.054L18.717 4.054Q17.919 4.358 17.387 5.004L17.387 5.004Q17.007 5.422 16.475 6.410L16.475 6.410L15.867 6.068Q15.867 5.992 15.924 5.878Q15.981 5.764 15.981 5.688ZM12.789 7.702L12.789 7.702Q12.789 6.676 13.245 6.068L13.245 6.068Q13.245 5.992 13.397 5.954L13.397 5.954L13.511 5.954Q15.221 6.106 16.589 7.132L16.589 7.132Q16.703 7.170 16.874 7.360Q17.045 7.550 17.159 7.588L17.159 7.588Q17.045 7.550 16.760 7.493Q16.475 7.436 16.361 7.360L16.361 7.360Q15.297 7.132 14.461 7.474L14.461 7.474Q13.853 7.930 12.789 7.702L12.789 7.702Q13.017 7.968 13.302 8.006Q13.587 8.044 13.967 7.968L13.967 7.968Q14.271 7.968 14.727 7.778L14.727 7.778L14.917 7.740Q14.917 7.778 14.879 7.892L14.879 7.892L14.803 7.968Q14.423 8.234 13.359 8.652L13.359 8.652L13.017 8.804L12.903 8.804Q12.789 8.424 12.789 7.702ZM9.217 4.852L9.217 4.852Q10.053 4.852 10.699 5.498Q11.345 6.144 11.345 7.018Q11.345 7.892 10.737 8.519Q10.129 9.146 9.236 9.146Q8.343 9.146 7.716 8.519Q7.089 7.892 7.089 6.980Q7.089 6.068 7.697 5.460Q8.305 4.852 9.217 4.852ZM14.689 12.110L14.689 12.110Q15.639 12.338 16.361 12.338L16.361 12.338L18.489 12.718Q18.679 12.718 18.717 12.813Q18.755 12.908 18.603 13.060L18.603 13.060Q18.413 13.326 18.033 13.478Q17.653 13.630 17.311 13.554L17.311 13.554L17.045 13.554Q17.159 13.706 17.083 13.934Q17.007 14.162 16.817 14.238L16.817 14.238Q16.361 14.732 15.639 14.732L15.639 14.732Q15.525 14.732 15.221 14.675Q14.917 14.618 14.803 14.618L14.803 14.618Q14.727 14.960 14.347 15.150Q13.967 15.340 13.454 15.302Q12.941 15.264 12.561 14.960L12.561 14.960Q12.789 15.682 12.903 16.138L12.903 16.138L12.903 16.518Q12.713 17.848 11.763 18.741Q10.813 19.634 9.445 19.710L9.445 19.710Q6.861 19.900 4.695 18.304L4.695 18.304Q2.833 17.088 1.845 14.960L1.845 14.960Q1.845 14.922 1.788 14.846Q1.731 14.770 1.731 14.732L1.731 14.732Q2.681 14.960 3.061 15.074L3.061 15.074Q3.783 15.188 4.277 15.112L4.277 15.112Q4.961 14.998 5.531 14.618L5.531 14.618L5.797 14.618Q7.165 14.998 8.381 14.846L8.381 14.846Q9.331 14.694 10.129 14.162L10.129 14.162Q10.851 13.668 11.611 12.832L11.611 12.832Q11.953 12.490 12.447 11.540L12.447 11.540Q12.675 11.160 13.131 10.704L13.131 10.704L13.397 10.704L16.361 11.046L17.615 11.274Q19.325 11.616 20.275 11.768L20.275 11.768L20.313 11.768Q20.389 11.806 20.389 11.882L20.389 11.882L19.173 11.958Q16.171 12.224 14.689 12.110ZM9.217 8.196L9.217 8.196Q9.787 8.196 10.148 7.873Q10.509 7.550 10.528 7.018Q10.547 6.486 10.167 6.144Q9.787 5.802 9.236 5.802Q8.685 5.802 8.305 6.182Q7.925 6.562 7.925 7.018Q7.925 7.474 8.286 7.835Q8.647 8.196 9.217 8.196ZM8.495 6.068L8.495 6.068Q8.571 5.992 8.780 5.935Q8.989 5.878 9.103 5.802L9.103 5.802L9.711 6.068Q9.863 6.144 9.863 6.315Q9.863 6.486 9.692 6.657Q9.521 6.828 9.141 6.828Q8.761 6.828 8.381 6.638L8.381 6.638Q8.191 6.220 8.495 6.068Z"/></svg>