<?xml version="1.0" encoding="UTF-8"?>
<svg xmlns="http://www.w3.org/2000/svg" width="32" height="32" viewBox="0 0 24 24" fill="#666666"><path d="M9.194 22.393L8.966 23.875L7.180 23.875Q7.218 23.723 7.275 23.362Q7.332 23.001 7.408 22.925L7.408 22.925Q8.054 22.697 8.206 22.165L8.206 22.165Q8.320 21.861 8.282 21.101L8.282 21.101L8.244 20.569L8.244 13.197Q7.826 13.121 6.952 13.045L6.952 13.045Q6.268 12.969 5.926 12.931L5.926 12.931Q5.394 12.817 5.052 12.627L5.052 12.627Q3.114 11.373 2.563 9.454Q2.012 7.535 2.886 5.369L2.886 5.369Q3.494 4.001 2.050 3.811L2.050 3.811Q1.822 3.811 1.100 3.583L1.100 3.583L1.100 3.355Q1.480 3.165 2.126 2.747Q2.772 2.329 3.152 2.177L3.152 2.177Q3.228 2.101 3.494 2.101L3.494 2.101Q3.950 2.063 4.102 1.911L4.102 1.911Q5.090 1.417 5.584 1.341Q6.078 1.265 6.458 1.626Q6.838 1.987 7.408 2.975L7.408 2.975Q7.826 3.849 7.788 4.685Q7.750 5.521 7.294 6.433L7.294 6.433Q6.914 7.079 6.876 7.421L6.876 7.421Q6.800 7.991 7.408 8.219L7.408 8.219L8.168 7.155Q9.536 5.179 10.296 4.267L10.296 4.267Q11.512 2.747 12.766 1.835L12.766 1.835Q14.248 0.695 15.958 0.125L15.958 0.125L16.794 0.125Q17.022 0.467 17.592 1.075L17.592 1.075Q18.428 1.949 18.694 2.519L18.694 2.519Q19.302 3.507 20.366 5.559L20.366 5.559Q21.544 7.839 22.266 8.941L22.266 8.941Q22.722 9.625 22.855 10.689Q22.988 11.753 22.722 12.722Q22.456 13.691 21.886 14.147L21.886 14.147L21.886 10.005L21.430 10.005Q20.898 10.765 20.822 11.791L20.822 11.791Q20.746 12.399 20.860 13.691L20.860 13.691Q20.936 14.641 20.936 15.097L20.936 15.097Q20.936 16.617 20.898 19.581L20.898 19.581Q20.822 22.469 20.822 23.875L20.822 23.875L19.986 23.875L19.986 23.571Q19.910 23.191 19.986 22.925L19.986 22.925Q20.708 17.491 18.694 12.019L18.694 12.019Q17.212 13.349 17.022 15.591L17.022 15.591Q16.946 16.313 16.718 17.187L16.718 17.187Q16.566 17.719 16.186 18.783L16.186 18.783Q16.110 19.011 15.882 19.429L15.882 19.429Q15.540 20.113 15.502 20.455L15.502 20.455Q15.464 21.025 16.072 21.519L16.072 21.519Q16.148 21.595 16.053 22.070Q15.958 22.545 15.958 22.811L15.958 22.811L15.502 22.241Q15.160 21.785 15.008 21.633L15.008 21.633L15.008 22.013Q14.590 22.127 13.697 22.298Q12.804 22.469 12.386 22.583L12.386 22.583Q12.386 22.545 12.329 22.355Q12.272 22.165 12.272 22.127L12.272 22.127Q12.766 21.861 12.994 21.633L12.994 21.633Q13.868 21.101 13.963 20.550Q14.058 19.999 13.336 19.391L13.336 19.391Q11.018 17.567 12.044 14.983L12.044 14.983Q12.196 14.679 12.234 13.919L12.234 13.919Q12.234 13.349 12.272 12.969L12.272 12.969L11.588 13.349Q11.094 13.577 10.942 13.691L10.942 13.691Q10.676 13.881 10.638 14.033L10.638 14.033Q10.182 15.705 9.726 19.201L9.726 19.201L9.688 19.505Q9.422 20.569 9.194 22.393L9.194 22.393ZM12.994 17.605L14.438 19.391Q15.654 17.795 15.844 16.123Q16.034 14.451 15.122 13.197L15.122 13.197Q13.716 16.047 12.994 17.605L12.994 17.605Z"/></svg>