<?xml version="1.0" encoding="UTF-8"?>
<svg xmlns="http://www.w3.org/2000/svg" width="32" height="32" viewBox="0 0 24 24" fill="#666666"><path d="M5.673 3.564L9.853 3.564Q10.537 4.590 11.905 6.661Q13.273 8.732 13.995 9.758L13.995 9.758L16.047 12.798Q19.391 17.776 21.025 20.322L21.025 20.322L16.845 20.322L16.731 20.208Q16.199 19.372 15.078 17.700Q13.957 16.028 13.425 15.192L13.425 15.192Q13.349 15.154 13.349 15.135Q13.349 15.116 13.349 15.116Q13.349 15.116 13.349 15.135Q13.349 15.154 13.273 15.192L13.273 15.192Q12.741 16.028 11.620 17.700Q10.499 19.372 9.967 20.208L9.967 20.208L9.853 20.322L5.673 20.322L5.673 20.208Q6.585 18.840 8.428 16.104Q10.271 13.368 11.145 12L11.145 12L11.145 11.886Q10.271 10.518 8.428 7.782Q6.585 5.046 5.673 3.678L5.673 3.678L5.673 3.564ZM4.343 20.360L4.267 20.436L0.125 20.436L0.125 20.322L0.505 19.676Q1.227 18.574 1.645 18.042L1.645 18.042L5.559 12.114L5.559 12Q2.747 7.478 0.125 3.678L0.125 3.678L4.267 3.678L4.381 3.792Q4.875 4.476 5.749 5.825Q6.623 7.174 7.117 7.858L7.117 7.858L7.915 9.036Q9.245 10.974 9.853 12L9.853 12L9.853 12.114Q8.789 13.748 6.547 17.016L6.547 17.016L4.267 20.436L4.343 20.360ZM23.875 8.428L23.875 11.278L16.389 11.278L14.603 8.542L14.603 8.428L23.875 8.428ZM23.875 12.722L23.875 15.572Q23.875 15.534 23.875 15.534L23.875 15.534L23.875 15.572L19.125 15.572L17.339 12.836L17.339 12.722L23.875 12.722Z"/></svg>