<?xml version="1.0" encoding="UTF-8"?>
<svg xmlns="http://www.w3.org/2000/svg" width="32" height="32" viewBox="0 0 24 24" fill="#666666"><path d="M13.216 8.608L13.216 8.608Q13.248 8.608 13.344 8.608L13.344 8.608L13.376 8.608Q14.176 8.544 15.200 7.904L15.200 7.904Q15.232 7.872 15.264 7.776L15.264 7.776L15.360 7.488Q15.488 7.200 15.232 6.976L15.232 6.976Q14.496 6.304 13.952 5.440L13.952 5.440Q13.888 5.312 13.792 5.088L13.792 5.088L13.696 4.864Q13.664 4.832 13.600 4.768L13.600 4.768L13.568 4.736L13.504 4.896Q13.504 4.992 13.536 5.152L13.536 5.152Q13.664 5.728 14.208 6.400L14.208 6.400Q14.528 6.816 14.848 7.168L14.848 7.168Q14.976 7.328 14.944 7.552Q14.912 7.776 14.688 7.840L14.688 7.840Q14.592 7.872 14.400 7.968L14.400 7.968L14.176 8.096Q13.632 8.320 13.344 8.320L13.344 8.320Q13.152 8.288 13.056 8.224Q12.960 8.160 12.928 8L12.928 8L12.864 7.712Q12.608 7.968 12.800 8.384L12.800 8.384Q12.832 8.544 12.944 8.576Q13.056 8.608 13.216 8.608ZM11.552 9.088L11.680 9.312Q11.936 9.568 12.416 9.728L12.416 9.728Q13.120 9.920 13.824 9.888L13.824 9.888L13.824 9.536Q13.824 9.312 13.632 9.312L13.632 9.312Q12.864 9.312 12.416 9.248L12.416 9.248Q12.224 9.248 11.840 9.152L11.840 9.152L11.552 9.088ZM11.168 5.760L11.136 5.760Q11.008 5.760 10.960 5.808Q10.912 5.856 10.960 5.984Q11.008 6.112 11.104 6.176L11.104 6.176Q11.616 6.400 12.080 6.208Q12.544 6.016 12.384 5.440L12.384 5.440Q12.320 5.184 12.032 4.800Q11.744 4.416 11.632 4.464Q11.520 4.512 11.776 5.184L11.776 5.184Q11.904 5.664 11.888 5.744Q11.872 5.824 11.168 5.760L11.168 5.760ZM10.176 4.352L10.176 4.352Q10.208 4.288 10.272 4.192L10.272 4.192Q10.752 3.232 11.616 3.424L11.616 3.424Q11.776 3.424 11.776 3.296Q11.776 3.168 11.680 3.072Q11.584 2.976 11.456 2.944L11.456 2.944Q11.072 2.848 10.720 3.104L10.720 3.104Q10.080 3.520 10.016 4.096L10.016 4.096Q10.016 4.320 10.176 4.352ZM14.112 9.280L14.112 9.280Q14.048 9.280 14.048 9.376L14.048 9.376L14.048 9.856Q14.528 9.856 14.928 9.536Q15.328 9.216 15.552 8.704L15.552 8.704L15.456 8.736L15.232 8.864Q14.528 9.248 14.112 9.280ZM15.136 6.016L15.136 6.016Q15.616 6.080 16 5.728L16 5.728Q16.096 5.632 16.032 5.504L16.032 5.504L15.840 5.120Q15.552 4.416 15.456 4.432Q15.360 4.448 15.424 4.768L15.424 4.768Q15.488 4.992 15.616 5.248L15.616 5.248Q15.680 5.440 15.648 5.488Q15.616 5.536 15.424 5.568L15.424 5.568L15.296 5.568Q14.912 5.536 14.864 5.632Q14.816 5.728 14.896 5.872Q14.976 6.016 15.136 6.016ZM19.264 16.960L19.264 16.960Q19.072 16.320 18.688 16.112Q18.304 15.904 17.632 16.064L17.632 16.064Q17.408 16.128 16.896 16.320L16.896 16.320L16.384 16.544L17.600 12.896Q17.856 12.128 17.248 11.648L17.248 11.648L16.608 11.136L16.224 10.816Q16 10.592 15.984 10.496Q15.968 10.400 16.128 10.112L16.128 10.112Q16.640 9.248 16.880 7.808Q17.120 6.368 17.088 5.056L17.088 5.056Q16.992 3.264 16.160 2.144L16.160 2.144Q14.848 0.352 12.800 0.128L12.800 0.128L12.480 0.096L11.776 0.096L10.944 0.224Q9.536 0.448 8.128 1.312L8.128 1.312L7.744 1.568Q7.008 2.016 6.720 2.816L6.720 2.816Q6.656 2.912 6.528 3.008L6.528 3.008Q5.888 3.456 5.856 4.320L5.856 4.320Q5.856 4.608 5.856 5.120L5.856 5.120L5.888 5.664Q5.888 5.728 5.824 5.856L5.824 5.856L5.728 6.144Q5.600 6.432 5.568 6.592L5.568 6.592Q5.408 7.840 6.208 8.736L6.208 8.736Q6.464 9.024 6.976 9.152L6.976 9.152Q7.104 9.216 7.136 9.344L7.136 9.344Q7.232 9.920 7.552 10.400L7.552 10.400Q7.648 10.528 7.680 10.688L7.680 10.688Q7.712 10.944 7.488 11.072L7.488 11.072L5.248 12.448Q5.120 12.512 5.024 12.576L5.024 12.576Q4.544 12.736 4.416 13.120L4.416 13.120L4.416 13.344L4.672 14.016Q5.056 15.040 5.216 15.584L5.216 15.584Q5.568 16.640 5.696 18.304L5.696 18.304L5.728 19.616Q5.760 19.936 6.048 20.064L6.048 20.064L8.000 20.928Q8.544 21.152 9.120 21.120L9.120 21.120Q9.248 21.120 9.312 21.248L9.312 21.248L10.016 23.488Q10.048 23.616 10.208 23.648L10.208 23.648L11.616 23.904L12.928 23.904L13.664 23.840Q14.080 23.744 14.368 23.648L14.368 23.648Q14.752 23.520 14.688 23.040L14.688 23.040Q14.656 22.816 14.704 22.768Q14.752 22.720 14.976 22.656L14.976 22.656L14.976 22.656Q15.424 22.528 15.536 22.336Q15.648 22.144 15.552 21.696L15.552 21.696L15.360 20.672L15.360 20.416Q15.360 20.256 15.536 20.208Q15.712 20.160 15.776 19.936L15.776 19.936Q15.776 19.840 15.840 19.808L15.840 19.808Q16.352 19.584 16.928 19.648L16.928 19.648Q16.992 19.648 16.992 19.648L16.992 19.648Q17.056 19.840 17.184 19.888Q17.312 19.936 17.536 19.936L17.536 19.936L17.536 19.936Q18.144 19.968 18.528 19.936L18.528 19.936Q19.232 19.872 19.488 19.008L19.488 19.008L19.584 18.560L19.584 18.176Q19.392 17.440 19.264 16.960ZM8.160 10.848L8.192 10.816Q7.744 9.920 7.616 9.216L7.616 9.216Q7.584 8.992 7.744 8.832Q7.904 8.672 7.936 8.592Q7.968 8.512 7.904 8.352L7.904 8.352Q7.904 8.352 7.840 8.352L7.840 8.352L7.744 8.384Q7.680 8.416 7.584 8.480L7.584 8.480L7.520 8.512Q7.104 8.800 6.688 8.512L6.688 8.512Q6.208 8.192 6.016 7.456L6.016 7.456Q5.856 6.848 6.144 6.400L6.144 6.400Q6.528 5.888 7.104 5.952L7.104 5.952Q7.456 6.016 7.648 6.400L7.648 6.400Q7.712 6.528 7.776 6.848L7.776 6.848L7.776 6.848Q7.808 6.976 7.936 6.976L7.936 6.976L8.288 6.912Q8.480 6.880 8.544 6.784Q8.608 6.688 8.544 6.464L8.544 6.464L8.384 5.728Q8.320 5.376 8.416 4.736L8.416 4.736L8.416 4.704Q8.576 3.936 8.608 3.552L8.608 3.552Q8.608 3.456 8.544 3.168L8.544 3.168L8.512 2.976Q8.512 2.816 8.544 2.720L8.544 2.720Q8.864 2.112 9.536 1.664Q10.208 1.216 10.944 0.832L10.944 0.832Q11.488 0.544 12.480 0.640Q13.472 0.736 14.464 1.248L14.464 1.248Q14.944 1.472 15.488 2.144L15.488 2.144L15.936 2.720Q15.648 2.688 15.488 2.720L15.488 2.720Q15.232 2.752 15.104 2.944L15.104 2.944Q15.040 3.040 15.008 3.296L15.008 3.296Q15.424 3.008 15.920 3.264Q16.416 3.520 16.576 3.936L16.576 3.936Q16.672 4.256 16.704 4.512L16.704 4.512Q16.832 5.952 16.736 6.880L16.736 6.880Q16.576 8.672 15.840 9.824L15.840 9.824Q15.360 10.624 15.008 10.912L15.008 10.912Q14.464 11.456 13.408 11.712L13.408 11.712Q12.704 11.872 12.096 11.680L12.096 11.680Q11.360 11.424 10.784 10.912L10.784 10.912Q10.336 10.528 9.696 9.632L9.696 9.632L9.568 9.472Q9.504 9.696 9.696 10.016L9.696 10.016Q9.984 10.528 10.656 11.200L10.656 11.200Q10.784 11.328 11.072 11.552L11.072 11.552L11.264 11.680L10.976 11.712Q9.408 11.808 9.088 11.712L9.088 11.712Q8.544 11.584 8.160 10.848L8.160 10.848ZM12.288 14.432L12.480 14.240Q12.768 14.528 13.184 15.328L13.184 15.328Q13.536 15.936 13.760 16.480L13.760 16.480L13.568 16.448Q13.312 16.384 13.184 16.320L13.184 16.320L11.488 15.616Q11.360 15.552 11.424 15.456L11.424 15.456L11.488 15.296Q11.680 14.976 11.808 14.832Q11.936 14.688 12.288 14.432L12.288 14.432ZM13.696 15.328L13.696 15.328Q13.568 15.072 13.280 14.560L13.280 14.560L13.056 14.144Q12.992 14.016 13.024 13.952L13.024 13.952Q13.088 13.792 13.216 13.824L13.216 13.824Q13.312 13.856 13.472 13.760L13.472 13.760Q13.728 13.632 14.016 13.824L14.016 13.824Q14.112 13.888 14.336 13.984L14.336 13.984L14.464 14.048Q14.464 14.592 14.400 15.328L14.400 15.328Q14.336 16.256 14.176 16.448L14.176 16.448L14.080 16.160Q13.824 15.584 13.696 15.328ZM13.152 23.200L13.152 23.200Q12.224 23.328 11.264 23.136L11.264 23.136Q10.976 23.104 10.528 22.976L10.528 22.976Q10.432 22.976 10.400 22.880L10.400 22.880L10.240 22.304Q9.952 21.184 9.824 20.608Q9.696 20.032 9.536 18.848L9.536 18.848L9.440 18.144L9.440 17.984L10.112 17.888Q11.648 17.664 12.768 17.728L12.768 17.728Q12.960 17.728 13.280 17.760L13.280 17.760L13.568 17.824Q13.664 17.824 13.696 17.952L13.696 17.952L13.952 22.240Q13.952 22.432 14.016 22.784L14.016 22.784L14.048 23.040L13.792 23.104Q13.376 23.168 13.152 23.200ZM14.944 22.176L14.944 22.176Q14.848 22.208 14.688 22.240L14.688 22.240L14.432 22.304L14.368 20.448L14.784 20.352Q14.816 20.352 14.864 20.368Q14.912 20.384 14.912 20.416L14.912 20.416L14.944 20.544Q15.104 21.408 15.168 21.856L15.168 21.856L15.168 21.856Q15.168 22.080 15.152 22.112Q15.136 22.144 14.944 22.176L14.944 22.176ZM14.624 16.416L14.624 16.384Q14.592 16.416 14.592 16.416Q14.592 16.416 14.592 16.416L14.592 16.416L14.816 14.656Q14.848 14.464 14.848 14.176L14.848 14.176Q14.848 14.016 15.040 13.968Q15.232 13.920 15.472 14.032Q15.712 14.144 15.808 14.336L15.808 14.336Q15.872 14.400 15.808 14.432L15.808 14.432L14.624 16.416ZM18.112 19.296L18.144 19.296Q18.112 19.296 18.048 19.296L18.048 19.296Q17.632 19.296 17.440 19.264L17.440 19.264L17.440 19.200L18.208 19.040L18.208 19.008L17.952 18.944L16.992 18.976Q16.864 19.008 16.832 18.976Q16.800 18.944 16.800 18.816L16.800 18.816L16.608 17.344Q16.576 17.280 16.640 17.248L16.640 17.248L17.344 16.928L17.824 16.736Q18.048 16.608 18.272 16.672Q18.496 16.736 18.592 16.992L18.592 16.992Q18.848 17.856 18.912 18.336L18.912 18.336Q18.976 18.720 18.752 18.992Q18.528 19.264 18.112 19.296L18.112 19.296ZM15.616 2.912L15.520 3.168Q15.584 3.168 15.648 3.200L15.648 3.200Q15.808 3.264 15.936 3.392L15.936 3.392Q16.160 3.552 16.320 3.808L16.320 3.808Q16.544 4.192 16.672 4.864L16.672 4.864L16.704 5.440L16.704 6.016Q16.704 6.720 16.608 7.296L16.608 7.296Q16.480 8.256 16 9.280L16 9.280Q15.616 10.016 15.104 10.688L15.104 10.688L14.656 11.232L15.808 10.272L16.608 8.640L16.928 6.688L16.928 4.768L16.640 3.136L15.616 2.912Z"/></svg>