<?xml version="1.0" encoding="UTF-8"?>
<svg xmlns="http://www.w3.org/2000/svg" width="32" height="32" viewBox="0 0 24 24" fill="#666666"><path d="M20.108 22.374L20.108 22.374L16.580 15.276Q16.454 15.066 16.475 14.961Q16.496 14.856 16.706 14.772L16.706 14.772Q17.882 14.184 18.680 13.176L18.680 13.176Q19.730 11.916 20.213 10.362Q20.696 8.808 20.486 7.149Q20.276 5.490 19.562 4.272L19.562 4.272Q19.520 4.188 19.457 4.062Q19.394 3.936 19.310 3.852L19.310 3.852Q18.974 3.516 18.428 3.222L18.428 3.222Q18.050 3.054 17.336 2.802L17.336 2.802Q16.538 2.676 16.160 2.676L16.160 2.676Q15.530 2.634 15.026 2.781Q14.522 2.928 14.249 3.054Q13.976 3.180 13.808 3.474L13.808 3.474Q12.884 4.566 13.262 5.952L13.262 5.952Q13.472 6.666 13.934 7.296L13.934 7.296Q14.270 7.758 14.984 8.304L14.984 8.304Q15.530 8.598 15.908 8.724L15.908 8.724Q16.160 8.724 16.307 8.661Q16.454 8.598 16.580 8.304L16.580 8.304Q16.706 8.178 16.706 7.800L16.706 7.800Q16.706 7.296 16.412 6.498L16.412 6.498Q16.160 5.952 16.160 5.700L16.160 5.700Q16.328 6.162 16.790 7.002L16.790 7.002L17.084 7.548Q17.210 7.842 17.168 8.199Q17.126 8.556 16.958 8.850L16.958 8.850L16.706 9.102Q16.370 9.354 15.719 9.963Q15.068 10.572 14.732 10.824L14.732 10.824Q13.346 12 12.380 13.176L12.380 13.176Q11.288 14.478 9.482 17.124L9.482 17.124Q8.978 17.796 8.180 19.140L8.180 19.140L7.634 20.022Q7.382 20.400 6.920 21.177Q6.458 21.954 6.227 22.353Q5.996 22.752 5.492 23.508L5.492 23.508L5.282 23.802L20.486 23.802Q20.780 23.802 20.885 23.634Q20.990 23.466 20.906 23.172L20.906 23.172Q20.528 22.962 20.360 22.752L20.360 22.752Q20.234 22.626 20.108 22.374ZM7.508 10.824L7.508 10.824Q7.802 10.320 8.348 9.270L8.348 9.270Q9.818 6.666 10.658 5.448L10.658 5.448Q11.708 3.852 12.212 3.222L12.212 3.222Q13.052 2.382 13.934 2.004L13.934 2.004Q15.320 1.752 16.160 1.878L16.160 1.878Q17.798 2.088 18.932 3.222L18.932 3.222L19.184 3.474L19.184 3.348Q16.664 0.198 12.884 0.198L12.884 0.198L3.434 0.198Q3.056 0.198 3.056 0.702L3.056 0.702L3.056 19.602Q3.686 17.922 5.534 14.478L5.534 14.478Q6.206 13.176 7.508 10.824Z"/></svg>