<?xml version="1.0" encoding="UTF-8"?>
<svg xmlns="http://www.w3.org/2000/svg" width="32" height="32" viewBox="0 0 24 24" fill="#666666"><path d="M23.247 16.411L23.247 16.411Q22.923 14.719 23.103 12.595L23.103 12.595Q23.247 11.911 23.247 11.551L23.247 11.551Q23.283 10.975 23.103 10.435L23.103 10.435Q22.887 9.751 22.671 8.419L22.671 8.419L22.635 8.203Q22.419 6.799 22.275 6.079L22.275 6.079Q22.023 4.855 21.663 3.919L21.663 3.919Q21.447 3.523 21.267 3.343L21.267 3.343Q21.015 3.127 20.655 3.127L20.655 3.127Q19.971 3.127 19.971 3.811L19.971 3.811Q20.007 4.315 20.187 5.377Q20.367 6.439 20.403 6.943L20.403 6.943Q20.475 7.339 20.637 8.077Q20.799 8.815 20.871 9.211L20.871 9.211L20.871 9.643Q20.547 9.643 20.403 9.535L20.403 9.535L20.043 9.283Q19.431 8.851 19.179 8.527L19.179 8.527Q18.351 7.339 17.847 6.151L17.847 6.151L17.307 4.927Q16.371 2.659 15.795 1.687L15.795 1.687Q15.327 0.895 14.607 0.571L14.607 0.571Q14.031 0.319 13.095 0.319L13.095 0.319Q12.663 0.319 12.663 0.751L12.663 0.751L12.735 1.111Q12.843 1.543 12.987 1.795L12.987 1.795Q13.491 2.695 14.445 4.549Q15.399 6.403 15.903 7.303L15.903 7.303Q16.191 7.735 16.839 8.599L16.839 8.599L17.055 8.851Q17.379 9.355 17.307 9.607Q17.235 9.859 16.695 10.111L16.695 10.111L16.587 10.111L16.479 10.219Q15.327 10.507 14.355 9.535L14.355 9.535Q13.419 8.815 12.303 8.635L12.303 8.635Q12.159 8.635 11.763 8.581Q11.367 8.527 11.187 8.527L11.187 8.527Q9.819 8.419 8.883 8.491L8.883 8.491Q7.659 8.599 6.579 8.995L6.579 8.995Q4.995 9.535 3.879 10.831L3.879 10.831Q2.943 11.947 2.295 13.711L2.295 13.711Q2.079 14.395 1.647 15.943L1.647 15.943Q1.503 15.727 1.395 15.619L1.395 15.619Q1.179 15.403 1.179 15.187L1.179 15.187L1.035 15.259Q0.819 15.475 0.747 15.619L0.747 15.619L0.747 16.195Q0.747 16.627 0.963 17.095L0.963 17.095Q2.259 20.227 3.195 22.927L3.195 22.927Q3.555 23.611 4.203 23.611L4.203 23.611Q6.111 23.791 7.479 23.503L7.479 23.503L9.495 23.143Q9.063 22.711 8.847 22.603L8.847 22.603Q8.847 22.531 8.901 22.477Q8.955 22.423 8.955 22.351L8.955 22.351L10.503 22.711Q13.347 23.755 16.047 23.611L16.047 23.611Q16.659 23.611 16.803 23.143L16.803 23.143L17.163 22.495Q17.415 21.415 18.279 20.119L18.279 20.119L18.315 20.047Q18.711 19.507 18.855 19.363Q18.999 19.219 19.197 19.219Q19.395 19.219 19.863 19.363L19.863 19.363L20.187 19.435Q21.195 19.795 22.023 19.345Q22.851 18.895 23.103 17.851L23.103 17.851Q23.247 17.419 23.247 16.411ZM21.987 15.043L21.987 15.043Q21.663 15.403 21.555 15.403L21.555 15.403Q19.683 15.583 18.603 15.043L18.603 15.043Q18.351 14.971 17.955 14.539L17.955 14.539L17.703 14.287Q18.387 14.035 18.603 13.927L18.603 13.927Q20.007 13.783 21.447 14.503L21.447 14.503Q21.483 14.503 21.591 14.539L21.591 14.539L21.663 14.611Q21.987 14.935 21.987 15.043Z"/></svg>