<?xml version="1.0" encoding="UTF-8"?>
<svg xmlns="http://www.w3.org/2000/svg" width="32" height="32" viewBox="0 0 24 24" fill="#666666"><path d="M0.164 17.896L0.164 17.896Q0.164 19.348 0.890 20.580Q1.616 21.812 2.848 22.538Q4.080 23.264 5.532 23.264Q6.984 23.264 8.216 22.538Q9.448 21.812 10.174 20.580Q10.900 19.348 10.900 17.896Q10.900 16.444 10.174 15.212Q9.448 13.980 8.216 13.254Q6.984 12.528 5.532 12.528Q4.080 12.528 2.848 13.254Q1.616 13.980 0.890 15.212Q0.164 16.444 0.164 17.896ZM13.100 17.896L13.100 17.896Q13.100 19.348 13.826 20.580Q14.552 21.812 15.784 22.538Q17.016 23.264 18.468 23.264Q19.920 23.264 21.152 22.538Q22.384 21.812 23.110 20.580Q23.836 19.348 23.836 17.896Q23.836 16.444 23.110 15.212Q22.384 13.980 21.152 13.276Q19.920 12.572 18.468 12.572Q17.016 12.572 15.784 13.276Q14.552 13.980 13.826 15.212Q13.100 16.444 13.100 17.896ZM6.632 6.104L6.632 6.104Q6.632 7.556 7.358 8.788Q8.084 10.020 9.316 10.724Q10.548 11.428 12.000 11.428Q13.452 11.428 14.684 10.724Q15.916 10.020 16.642 8.788Q17.368 7.556 17.368 6.104Q17.368 4.652 16.642 3.420Q15.916 2.188 14.684 1.462Q13.452 0.736 12.000 0.736Q10.548 0.736 9.316 1.462Q8.084 2.188 7.358 3.420Q6.632 4.652 6.632 6.104Z"/></svg>