<?xml version="1.0" encoding="UTF-8"?>
<svg xmlns="http://www.w3.org/2000/svg" width="32" height="32" viewBox="0 0 24 24" fill="#666666"><path d="M6.729 21.545L6.729 21.545Q6.393 21.377 6.225 21.041L6.225 21.041Q6.099 20.915 6.078 20.915Q6.057 20.915 5.973 21.041Q5.889 21.167 5.826 21.419Q5.763 21.671 5.679 21.839L5.679 21.839Q5.385 22.805 4.839 23.141Q4.293 23.477 3.327 23.267L3.327 23.267Q3.075 23.267 2.529 23.015L2.529 23.015Q1.731 22.595 2.151 21.839L2.151 21.839Q2.151 21.755 2.214 21.629Q2.277 21.503 2.277 21.419L2.277 21.419Q1.563 21.419 1.353 20.789L1.353 20.789Q0.849 19.445 1.017 18.416Q1.185 17.387 2.151 16.421L2.151 16.421L2.235 16.253Q2.403 15.959 2.403 15.791L2.403 15.791Q2.403 14.363 2.697 13.313L2.697 13.313Q3.033 12.053 3.831 11.045L3.831 11.045Q4.503 10.163 5.427 9.617L5.427 9.617Q5.595 9.533 5.616 9.407Q5.637 9.281 5.553 9.071L5.553 9.071Q4.839 8.189 4.629 6.971L4.629 6.971Q4.545 6.635 4.671 6.215L4.671 6.215Q4.755 5.921 5.007 5.417L5.007 5.417L5.175 5.039Q5.427 4.745 5.553 4.745L5.553 4.745Q5.931 4.661 6.561 4.199L6.561 4.199L6.855 3.989Q8.157 2.645 10.131 2.645L10.131 2.645Q10.341 2.645 10.446 2.582Q10.551 2.519 10.551 2.393L10.551 2.393Q10.719 1.595 11.307 0.839L11.307 0.839L11.727 0.419Q11.937 0.209 12.168 0.230Q12.399 0.251 12.525 0.545L12.525 0.545Q12.777 1.007 13.155 1.847L13.155 1.847L13.407 2.393Q13.617 2.729 13.827 2.519L13.827 2.519Q14.331 2.309 14.499 2.288Q14.667 2.267 14.751 2.393Q14.835 2.519 15.003 3.065L15.003 3.065Q16.011 7.265 13.701 10.919L13.701 10.919Q13.617 11.045 13.428 11.318Q13.239 11.591 13.155 11.759Q13.071 11.927 13.092 12.053Q13.113 12.179 13.281 12.389L13.281 12.389Q14.163 13.145 14.751 14.195Q15.339 15.245 15.507 16.421L15.507 16.421Q15.717 17.891 15.507 19.319L15.507 19.319Q15.423 19.697 15.507 19.760Q15.591 19.823 15.927 19.739L15.927 19.739Q17.397 19.277 18.531 18.521L18.531 18.521L18.867 18.353Q19.623 17.891 20.043 17.723L20.043 17.723Q20.673 17.429 21.303 17.345L21.303 17.345L21.681 17.345Q22.101 17.261 22.374 17.366Q22.647 17.471 22.836 17.723Q23.025 17.975 23.025 18.269L23.025 18.269Q23.025 18.857 22.353 19.067L22.353 19.067Q20.631 19.403 18.804 20.726Q16.977 22.049 14.457 22.721L14.457 22.721Q14.373 22.721 14.205 22.805Q14.037 22.889 13.953 23.015L13.953 23.015Q13.659 23.225 13.323 23.309L13.323 23.309Q13.113 23.393 12.651 23.435L12.651 23.435L12.231 23.519L11.895 23.561Q9.375 23.771 8.031 23.771L8.031 23.771Q7.275 23.771 6.729 23.645L6.729 23.645Q5.973 23.393 5.805 22.889L5.805 22.889Q5.595 22.091 6.225 21.671L6.225 21.671Q6.351 21.671 6.519 21.608Q6.687 21.545 6.729 21.545Z"/></svg>