<?xml version="1.0" encoding="UTF-8"?>
<svg xmlns="http://www.w3.org/2000/svg" width="32" height="32" viewBox="0 0 24 24" fill="#666666"><path d="M11.252 0.202L11.252 0.202L11.252 6.900Q11.252 7.104 11.150 7.206L11.150 7.206L4.350 14.006L4.316 14.074Q4.282 14.142 4.248 14.142L4.248 14.142L4.248 7.342Q4.248 7.240 4.248 7.223Q4.248 7.206 4.350 7.206L4.350 7.206Q5.506 6.050 7.784 3.721Q10.062 1.392 11.252 0.202ZM19.650 9.994L19.752 9.994L19.752 16.794Q19.752 16.862 19.735 16.879Q19.718 16.896 19.650 16.896L19.650 16.896L12.748 23.798L12.612 23.798L12.612 16.998Q12.612 16.930 12.629 16.913Q12.646 16.896 12.748 16.896L12.748 16.896Q13.904 15.774 16.216 13.462Q18.528 11.150 19.752 9.994L19.752 9.994L19.650 9.994ZM12.748 8.396L19.412 8.396L12.612 15.196L12.612 8.498Q12.612 8.430 12.629 8.413Q12.646 8.396 12.748 8.396L12.748 8.396ZM11.354 8.702L11.354 8.702L11.354 15.400Q11.354 15.468 11.337 15.485Q11.320 15.502 11.252 15.502L11.252 15.502L4.554 15.502Q7.886 12.034 11.354 8.702ZM4.248 23.594L4.248 23.594Q4.248 23.560 4.248 23.560L4.248 23.560L4.248 23.594L4.248 16.896Q4.248 16.828 4.248 16.811Q4.248 16.794 4.350 16.794L4.350 16.794L11.014 16.794L8.804 19.038Q5.778 22.098 4.248 23.594Z"/></svg>