<?xml version="1.0" encoding="UTF-8"?>
<svg xmlns="http://www.w3.org/2000/svg" width="32" height="32" viewBox="0 0 24 24" fill="#666666"><path d="M19.565 16.346L18.663 14.952L14.440 14.952L13.948 16.100L13.825 16.387Q13.661 16.797 13.661 17.002L13.661 17.002Q13.702 17.576 14.071 17.781L14.071 17.781Q14.153 17.863 14.645 17.904L14.645 17.904L15.219 18.027L15.219 18.396L11.242 18.396L11.242 18.027Q12.021 17.781 12.267 17.494L12.267 17.494Q12.718 17.043 13.292 15.731L13.292 15.731L17.515 6.219L17.638 6.219L21.902 15.977Q22.476 17.330 22.927 17.781L22.927 17.781Q23.419 18.027 23.788 18.027L23.788 18.027L23.788 18.396L18.047 18.396L18.047 18.027L18.540 18.027Q19.073 18.027 19.565 17.781L19.565 17.781Q19.852 17.494 19.811 17.371L19.811 17.371L19.811 17.002L19.565 16.346ZM14.850 14.173L18.416 14.173L16.613 10.073L14.850 14.173ZM0.213 20.856L0.213 20.200Q1.074 20.200 1.709 19.298Q2.345 18.396 2.796 17.125L2.796 17.125L8.413 3.144L9.192 3.144L14.973 16.592Q15.465 17.822 16.162 19.175L16.162 19.175L16.367 19.544Q16.695 20.200 17.802 20.200L17.802 20.200L17.802 20.856L9.438 20.856L9.438 20.200Q10.586 20.200 11.119 19.954L11.119 19.954Q11.488 19.749 11.488 19.175L11.488 19.175Q11.488 18.970 11.365 18.560L11.365 18.560L11.242 18.273Q10.996 17.781 10.873 17.371L10.873 17.371L10.217 15.854L4.477 15.854L3.698 17.904Q3.288 18.847 3.288 19.298L3.288 19.298Q3.288 19.872 4.067 20.077L4.067 20.077Q4.313 20.200 5.338 20.200L5.338 20.200L5.338 20.856L0.213 20.856ZM4.846 14.829L9.848 14.829L7.388 8.925L7.142 8.925L4.846 14.829Z"/></svg>