<?xml version="1.0" encoding="UTF-8"?>
<svg xmlns="http://www.w3.org/2000/svg" width="32" height="32" viewBox="0 0 24 24" fill="#666666"><path d="M3.726 0.261L12 0.261L19.476 0.261Q21.030 0.261 22.206 1.227Q23.382 2.193 23.676 3.663L23.676 3.663Q23.802 3.915 23.802 4.461L23.802 4.461L23.802 19.413Q23.802 21.009 22.815 22.206Q21.828 23.403 20.274 23.613L20.274 23.613Q20.148 23.613 19.875 23.676Q19.602 23.739 19.476 23.739L19.476 23.739L4.650 23.739Q2.676 23.739 1.437 22.521Q0.198 21.303 0.198 19.413L0.198 19.413L0.198 4.587Q0.198 2.907 1.164 1.731Q2.130 0.555 3.726 0.261L3.726 0.261ZM3.726 12.063L3.726 12.063L3.726 19.539Q3.726 20.337 4.650 20.337L4.650 20.337L19.350 20.337Q19.728 20.337 20.001 20.064Q20.274 19.791 20.274 19.413L20.274 19.413L20.274 4.713Q20.148 4.209 19.917 3.999Q19.686 3.789 19.224 3.789L19.224 3.789L4.524 3.789Q4.020 3.789 3.810 3.999Q3.600 4.209 3.600 4.713L3.600 4.713Q3.726 7.065 3.726 12.063ZM6.876 10.341L6.876 10.341Q7.002 10.425 7.212 10.467L7.212 10.467L7.548 10.635Q8.010 10.803 8.913 11.265Q9.816 11.727 10.278 11.937L10.278 11.937Q10.488 12.021 10.530 12.021Q10.572 12.021 10.698 11.937L10.698 11.937L12.420 10.635Q15.066 8.661 16.452 7.737L16.452 7.737Q16.620 7.569 16.914 7.443L16.914 7.443Q17.082 7.401 17.124 7.359L17.124 7.359Q17.418 7.233 17.607 7.464Q17.796 7.695 17.796 7.989L17.796 7.989L17.628 8.241Q17.502 8.451 17.502 8.535L17.502 8.535Q16.830 9.417 15.528 11.307L15.528 11.307L14.226 13.113Q12.672 15.255 11.874 16.263L11.874 16.263Q11.370 17.019 10.698 16.977Q10.026 16.935 9.522 16.137L9.522 16.137L6.498 11.685Q6.204 11.391 6.204 11.265L6.204 11.265Q6.120 10.887 6.309 10.614Q6.498 10.341 6.876 10.341Z"/></svg>