<?xml version="1.0" encoding="UTF-8"?>
<svg xmlns="http://www.w3.org/2000/svg" width="32" height="32" viewBox="0 0 24 24" fill="#666666"><path d="m.29 8.99 4.8-6.53a.6.6 0 0 1 .42-.24l6.42-.71a.6.6 0 0 1 .14 0l6.42.71a.6.6 0 0 1 .42.24L23.7 9a.6.6 0 0 1-.02.75L12.34 22.86a.45.45 0 0 1-.68 0L.31 9.74a.6.6 0 0 1-.02-.75Zm13.36-5.55a.15.15 0 0 0-.21.2l3.04 3.75a.3.3 0 0 1-.23.49h-8.5a.3.3 0 0 1-.23-.5l3.05-3.74a.15.15 0 0 0-.22-.2L5.8 7.72a.3.3 0 0 1-.5-.24l.21-3.04a.15.15 0 0 0-.3-.05l-.99 3.48a.75.75 0 0 1-.48.5l-2.19.71a.15.15 0 0 0 .05.3h2.1a.75.75 0 0 1 .64.34l5.56 8.74a.23.23 0 0 0 .39-.22L6.3 10.02a.45.45 0 0 1 .4-.64h10.57a.45.45 0 0 1 .4.64l-3.98 8.22a.22.22 0 0 0 .4.22l5.55-8.74a.75.75 0 0 1 .64-.34h2.04a.15.15 0 0 0 .04-.3l-2.12-.7a.75.75 0 0 1-.48-.51l-1-3.48a.15.15 0 0 0-.17-.1.15.15 0 0 0-.12.15l.22 3.04a.3.3 0 0 1-.51.24l-4.54-4.28Z"/></svg>