<?xml version="1.0" encoding="UTF-8"?>
<svg xmlns="http://www.w3.org/2000/svg" width="32" height="32" viewBox="0 0 24 24" fill="#666666"><path d="m20.35 0-1.32.08.1 2.78a.18.18 0 0 1-.3.14l-.9-.7-1.05.8a.18.18 0 0 1-.25-.03.18.18 0 0 1-.04-.12l.12-2.72-13.21.82A1.2 1.2 0 0 0 2.37 2.3l.74 19.82a1.2 1.2 0 0 0 1.15 1.16l16.11.72h.06c.66 0 1.2-.54 1.2-1.2V1.12A1.2 1.2 0 0 0 20.35 0zm-7.99 4.08c3.14 0 4.86 1.68 4.86 4.88-.42.33-3.59.56-3.59.09.07-1.8-.73-1.87-1.18-1.87-.42 0-1.13.12-1.13 1.08 0 2.37 6.1 2.24 6.1 7.02 0 2.69-2.18 4.17-4.97 4.17-2.87 0-5.38-1.16-5.1-5.2.11-.47 3.77-.35 3.77 0-.05 1.67.33 2.16 1.29 2.16.73 0 1.07-.4 1.07-1.09 0-2.43-6.02-2.51-6.02-6.97 0-2.56 1.76-4.27 4.9-4.27z"/></svg>