<?xml version="1.0" encoding="UTF-8"?>
<svg xmlns="http://www.w3.org/2000/svg" width="32" height="32" viewBox="0 0 24 24" fill="#666666"><path d="m19.83 16.57.45-.49h1.25l.29.4-1.19 3.84h.46l-.07.2h-1.67l1.05-3.34h-1.89l-1 3.18h.4l-.08.16h-1.5l1.04-3.33H15.4l-1 3.13h.41l-.06.2h-1.56l1.42-4.18h-.55l.09-.26h1.54l.49.5h.85l.46-.51h1l.45.5h.9ZM6 20.27H4.4l-.25-.14V3.65H2.98l-.1-.1v-1.1l.14-.14h6.91l.2.2v1.04L10 3.7H8.99v8.14l8.25-8.14H15.3l-.17-.18V2.44l.12-.1h7.02l.12.13v1l-9.46 9.7H12.5a.24.24 0 0 0-.11.06l-.32.28a.25.25 0 0 0-.07.1l-.28.78-5.74 5.88Zm7.45-6.75.14.14-.26.87-.2.2h-.91l-.17-.16.29-.82.27-.23h.84Zm-3.47 7.04 1.48-4.22h-.47l.28-.29h1.56l-1.47 4.27h.59l-.08.24H9.97ZM23.25 12h-.03l-4.05-4.05 4.04-4.14V2.12l-.61-.6H14.9l-.61.56v.98L12 .78V.75L12 .77l-.01-.02v.03l-1.21 1.2-.5-.5H2.65l-.6.65V3.9l.58.58h.67v4.97L.78 12H.75l.02.01-.02.01h.03l2.53 2.54v6.06l.85.5h2.18l1.74-1.8 3.9 3.91v.03l.02-.02.01.02v-.03l2.35-2.35h.46c.1 0 .2-.07.23-.17l.14-.4.01-.07c0-.06-.01-.11-.04-.15l1.37-1.37-.58 1.84v.07c0 .11.06.2.17.24l.07.01h1.7c.11 0 .2-.06.24-.15l.15-.37a.25.25 0 0 0 0-.2.25.25 0 0 0-.23-.15h-.07l.79-2.47h1.15l-.95 3.02-.01.07c0 .11.07.2.17.24l.08.01h1.88c.1 0 .2-.07.23-.16l.15-.4a.25.25 0 0 0-.15-.32.24.24 0 0 0-.08-.02h-.14l1.06-3.44.02-.08c0-.05-.02-.1-.05-.14l-.36-.48a.25.25 0 0 0-.2-.1h-1.34a.25.25 0 0 0-.18.08l-.37.41h-.59l-.04-.04 4.17-4.17h.03-.02l.02-.02Z"/></svg>