<?xml version="1.0" encoding="UTF-8"?>
<svg xmlns="http://www.w3.org/2000/svg" width="32" height="32" viewBox="0 0 24 24" fill="#666666"><path d="M2.25 1.5a.75.75 0 0 0-.75.75v16.5H0V2.25C0 1.01 1 0 2.25 0h20.1c1 0 1.5 1.21.79 1.92L10.76 14.3h3.49v-1.55h1.5v1.92c0 .62-.5 1.13-1.13 1.13H9.27L6.7 18.37h11.69V9h1.5v9.38c0 .82-.68 1.5-1.5 1.5H5.18L2.57 22.5h19.19c.41 0 .75-.34.75-.75V5.25H24v16.5c0 1.24-1 2.25-2.25 2.25H1.65c-1 0-1.5-1.21-.79-1.92L13.19 9.75H9.75v1.5h-1.5V9.37c0-.62.5-1.12 1.12-1.12h5.32l2.62-2.62H5.63V15h-1.5V5.63c0-.83.67-1.5 1.5-1.5H18.8l2.63-2.63H2.25Z"/></svg>